<svg
  version="1.1"
  xmlns="http://www.w3.org/2000/svg"
  viewBox="0 0 32 32">
  <path d="M6.656 17.344h18.688v-2.688h-18.688v2.688zM30.656 16l-5.312-2.656v5.312l5.312-2.656zM1.344 16l5.312 2.656v-5.312l-5.312 2.656zM14.656 25.344h2.688v-18.688h-2.688v18.688zM16 1.344l-2.656 5.312h5.312l-2.656-5.312zM13.344 25.344l2.656 5.312 2.656-5.312h-5.312zM8.448 21.664l1.888 1.888 13.216-13.216-1.888-1.888-13.216 13.216zM26.368 5.632l-5.664 1.888 3.776 3.776 1.888-5.664zM7.52 20.704l-1.888 5.664 5.664-1.888-3.776-3.776z"/>
</svg>
