<svg
  version="1.1"
  xmlns="http://www.w3.org/2000/svg"
  viewBox="0 0 32 32">
  <path d="M25.792 8c0.96-0.032 1.792 0.32 2.496 1.056 0.704 0.704 1.056 1.568 1.056 2.592v11.328c0 1.024-0.352 1.888-1.056 2.592-0.704 0.736-1.536 1.088-2.496 1.088h-19.584c-0.96 0-1.792-0.352-2.496-1.088-0.704-0.704-1.056-1.568-1.056-2.592v-11.328c0-1.024 0.352-1.888 1.056-2.592 0.704-0.736 1.536-1.088 2.496-1.056h3.136c0 0 1.184-1.824 1.664-2.144 0.48-0.352 0.96-0.512 1.44-0.512h7.104c0.48 0 0.96 0.16 1.44 0.512 0.48 0.32 1.664 2.144 1.664 2.144h3.136zM16 24c1.824 0 3.392-0.64 4.704-1.952s1.952-2.88 1.952-4.704c0-1.856-0.64-3.424-1.952-4.736-1.312-1.28-2.88-1.952-4.704-1.952s-3.392 0.672-4.704 1.952c-1.312 1.312-1.952 2.88-1.952 4.736 0 1.824 0.64 3.392 1.952 4.704s2.88 1.952 4.704 1.952zM16 12c1.472 0 2.72 0.512 3.776 1.568 1.024 1.024 1.568 2.304 1.568 3.776s-0.544 2.72-1.568 3.744c-1.056 1.056-2.304 1.568-3.776 1.568s-2.72-0.512-3.776-1.568c-1.024-1.024-1.568-2.272-1.568-3.744s0.544-2.752 1.568-3.776c1.056-1.056 2.304-1.568 3.776-1.568z"/>
</svg>
