<svg
  version="1.1"
  xmlns="http://www.w3.org/2000/svg"
  viewBox="0 0 32 32">
  <path d="M29.344 18.24l-4.096 0.48c-0.192 0.704-0.448 1.344-0.768 1.92l2.528 3.2-3.168 3.168-3.2-2.56c-0.64 0.352-1.28 0.608-1.92 0.8l-0.48 4.096h-4.48l-0.448-4.096c-0.672-0.192-1.312-0.448-1.952-0.8l-3.2 2.56-3.168-3.168 2.56-3.2c-0.352-0.64-0.608-1.28-0.8-1.952l-4.096-0.448v-4.48l4.096-0.48c0.192-0.672 0.448-1.312 0.8-1.92l-2.56-3.2 3.168-3.168 3.2 2.528c0.64-0.32 1.28-0.576 1.952-0.768l0.448-4.096h4.48l0.48 4.096c0.64 0.192 1.28 0.448 1.92 0.768l3.2-2.528 3.168 3.168-2.528 3.2c0.32 0.576 0.576 1.216 0.768 1.92l4.096 0.48v4.48zM20.288 16c0-1.184-0.416-2.176-1.248-3.040-0.864-0.832-1.856-1.248-3.040-1.248s-2.176 0.416-3.040 1.248c-0.832 0.864-1.248 1.856-1.248 3.040s0.416 2.176 1.248 3.040c0.864 0.832 1.856 1.248 3.040 1.248s2.176-0.416 3.040-1.248c0.832-0.864 1.248-1.856 1.248-3.040v0z"/>
</svg>
