<svg
  version="1.1"
  xmlns="http://www.w3.org/2000/svg"
  viewBox="0 0 32 32">
  <path d="M21.92 13.024c-0.512 0-1.024-0.128-1.472-0.448l-7.84 7.872c0.288 0.448 0.416 0.96 0.416 1.472 0 1.632-1.312 2.976-2.944 2.976s-2.976-1.344-2.976-2.976c0-1.632 1.344-2.976 2.976-2.976 0.512 0 1.024 0.16 1.472 0.448l7.872-7.84c-0.32-0.448-0.448-0.96-0.448-1.472 0-1.632 1.312-2.976 2.944-2.976s2.976 1.344 2.976 2.976c0 1.632-1.344 2.944-2.976 2.944M26.368 2.656h-20.736c-0.544 0-1.056 0.16-1.504 0.416l4.48 4.48c0.416-0.288 0.96-0.448 1.472-0.448 1.632 0 2.944 1.344 2.944 2.976s-1.312 2.944-2.944 2.944c-1.632 0-2.976-1.312-2.976-2.944 0-0.512 0.16-1.056 0.448-1.504l-4.448-4.416v-0.032c-0.288 0.448-0.448 0.96-0.448 1.504v20.736c0 1.632 1.344 2.976 2.976 2.976h20.736c0.544 0 1.056-0.16 1.504-0.448h-0.032l-4.416-4.448c-0.448 0.288-0.992 0.448-1.504 0.448-1.632 0-2.944-1.344-2.944-2.976s1.312-2.976 2.944-2.976c1.632 0 2.976 1.344 2.976 2.976 0 0.512-0.16 1.024-0.448 1.472l4.48 4.48c0.256-0.448 0.416-0.96 0.416-1.504v-20.736c0-1.632-1.344-2.976-2.976-2.976M21.92 8.96c-0.576 0-1.088 0.512-1.088 1.12 0 0.576 0.512 1.088 1.088 1.088 0.608 0 1.12-0.512 1.12-1.088 0-0.608-0.512-1.12-1.12-1.12M10.080 20.8c-0.608 0-1.12 0.544-1.12 1.12 0 0.608 0.512 1.12 1.12 1.12 0.576 0 1.12-0.512 1.12-1.12 0-0.576-0.544-1.12-1.12-1.12M20.832 21.92c0 0.608 0.512 1.12 1.088 1.12 0.608 0 1.12-0.512 1.12-1.12 0-0.576-0.512-1.12-1.12-1.12-0.576 0-1.088 0.544-1.088 1.12M11.2 10.080c0-0.608-0.544-1.12-1.12-1.12-0.608 0-1.12 0.512-1.12 1.12 0 0.576 0.512 1.088 1.12 1.088 0.576 0 1.12-0.512 1.12-1.088"/>
</svg>
