<svg
  version="1.1"
  xmlns="http://www.w3.org/2000/svg"
  viewBox="0 0 32 32">
  <path d="M26.656 2.656h-16c-0.64 0-1.312 0.544-1.312 1.344v1.344h-1.344c-0.672 0-1.344 0.512-1.344 1.312v1.344h-1.312c-0.672 0-1.344 0.672-1.344 1.344v17.312c0 0.8 0.672 1.344 1.344 1.344h16c0.8 0 1.312-0.672 1.312-1.344v-1.312h1.344c0.8 0 1.344-0.672 1.344-1.344v-1.344h1.312c0.8 0 1.344-0.672 1.344-1.312v-17.344c0-0.8-0.672-1.344-1.344-1.344zM21.344 26.656h-16v-17.312h16v17.312zM24 24h-1.344v-14.656c0-0.8-0.64-1.344-1.312-1.344h-13.344v-1.344h16v17.344zM26.656 21.344h-1.312v-14.688c0-0.8-0.672-1.312-1.344-1.312h-13.344v-1.344h16v17.344zM6.656 24h13.344v-13.344h-13.344v13.344z"/>
</svg>
