<svg
  version="1.1"
  xmlns="http://www.w3.org/2000/svg"
  viewBox="0 0 32 32">
  <path d="M26.656 21.216c0 1.408-0.48 2.656-1.536 3.712-4.512 4.608-11.904-1.536-13.28-2.784 0.8-0.992 1.696-0.736 4.928 1.088 0.16 0.096 0.288 0.096 0.384-0.064 0.128-0.128 0.064-0.288-0.064-0.416l-10.112-10.368c-0.416-0.384-0.416-1.056 0-1.472 0.384-0.416 1.056-0.416 1.44 0l7.008 7.168 0.48-0.512-7.008-7.136-0.96-0.992c-0.416-0.416-0.416-1.088 0-1.472 0.384-0.416 1.056-0.416 1.44 0l0.96 0.992 6.272 6.4 0.736 0.736 0.48-0.48-0.736-0.736-6.272-6.432c-0.384-0.416-0.384-1.056 0-1.472 0.416-0.416 1.056-0.416 1.472 0l1.92 1.984 4.352 4.416 0.704 0.736 0.48-0.48-0.704-0.736-4.352-4.448c-0.384-0.416-0.384-1.056 0-1.472 0.416-0.416 1.056-0.416 1.44 0l6.528 6.656c0.032 0.032 3.936 3.776 4 7.584"/>
</svg>
