<svg
  version="1.1"
  xmlns="http://www.w3.org/2000/svg"
  viewBox="0 0 32 32">
  <path d="M25.44 25.44c5.184-5.216 5.184-13.664 0-18.88-5.216-5.184-13.664-5.184-18.88 0-5.184 5.216-5.184 13.664 0 18.88 0.544 0.512 1.376 0.512 1.888 0 0.544-0.544 0.544-1.376 0-1.888-4.16-4.192-4.16-10.944 0-15.104 4.192-4.16 10.944-4.16 15.104 0s4.16 10.912 0 15.104c-0.544 0.512-0.544 1.344 0 1.888 0.512 0.512 1.344 0.512 1.888 0v0zM17.408 9.472c3.008 0.64 5.248 3.328 5.248 6.528 0 3.68-2.976 6.656-6.656 6.656s-6.656-2.976-6.656-6.656c0-3.2 2.24-5.888 5.248-6.528l1.408-2.816 1.408 2.816z"/>
</svg>
