<svg
  version="1.1"
  xmlns="http://www.w3.org/2000/svg"
  viewBox="0 0 32 32">
  <path d="M25.536 2.656h-19.072c-2.080 0-3.808 1.728-3.808 3.808v19.072c0 2.080 1.728 3.808 3.808 3.808h19.072c2.080 0 3.808-1.728 3.808-3.808v-19.072c0-2.080-1.728-3.808-3.808-3.808zM12 18.656v1.344h-4v-1.344h4zM8 10.656v9.344h-1.344v-9.344h1.344zM14.656 18.656h2.688v1.344h-2.688v-1.344zM14.656 10.656h2.688v1.344h-2.688v-1.344zM17.344 12h1.312v1.344h-1.312v-1.344zM17.344 17.344h1.312v1.312h-1.312v-1.312zM13.344 12h1.312v6.656h-1.312v-6.656zM21.344 18.656h2.656v1.344h-2.656v-1.344zM21.344 10.656h2.656v1.344h-2.656v-1.344zM24 12h1.344v6.656h-1.344v-6.656zM20 10.656h1.344v9.344h-1.344v-9.344z"/>
</svg>
