<svg
  version="1.1"
  xmlns="http://www.w3.org/2000/svg"
  viewBox="0 0 32 32">
  <path d="M9.792 14.656l1.888 1.888-7.552 7.552-1.888-1.888 7.552-7.552zM7.904 10.88c0.512-0.512 1.376-0.512 1.888 0.032l11.296 11.296c0.544 0.512 0.544 1.376 0.032 1.888v0c-0.544 0.512-1.376 0.512-1.92 0l-11.296-11.296c-0.512-0.544-0.512-1.376 0-1.92v0zM15.392 20.256l1.888 1.888-7.552 7.552-1.888-1.888 7.552-7.552zM18.272 4.288c2.624-2.592 6.848-2.592 9.44 0v0c2.592 2.624 2.592 6.816 0 9.44l-6.592 6.592-9.44-9.44 6.592-6.592z"/>
</svg>
