<svg
  version="1.1"
  xmlns="http://www.w3.org/2000/svg"
  viewBox="0 0 32 32">
  <path d="M9.696 13.728l8.576 8.576-5.12 5.12h-4.768c-0.032 0.064-0.096 0.128-0.16 0.224-0.096 0.064-0.256 0.224-0.48 0.448s-0.448 0.416-0.672 0.576c-0.192 0.16-0.448 0.32-0.736 0.448-0.32 0.128-0.576 0.224-0.832 0.224-0.768 0-1.44-0.288-2.016-0.832-0.544-0.576-0.832-1.248-0.832-2.016 0-0.256 0.064-0.512 0.192-0.8 0.16-0.288 0.32-0.544 0.48-0.8 0.192-0.224 0.384-0.448 0.576-0.64s0.352-0.352 0.48-0.48l0.192-0.16v-4.768l5.12-5.12zM26.976 16.192c-1.024 1.024-2.24 1.728-3.648 2.112-0.448 0.096-1.248 0.352-2.464 0.704-1.184 0.352-1.888 0.576-2.048 0.64-0.064 0.032-0.416 0.32-1.056 0.8l-1.632-1.632 6.208-3.52c0.128-0.096 0.224-0.192 0.256-0.32s0.032-0.256-0.032-0.384c-0.096-0.16-0.256-0.256-0.448-0.256-0.064 0-0.16 0.032-0.256 0.064l-6.464 3.68-1.632-1.6 3.712-6.432c0.064-0.128 0.096-0.224 0.032-0.352-0.032-0.128-0.096-0.224-0.224-0.288-0.096-0.064-0.16-0.096-0.224-0.096-0.192 0-0.352 0.096-0.448 0.256l-3.584 6.144-1.6-1.6c0.032-0.096 0.16-0.256 0.352-0.512 0.224-0.288 0.352-0.448 0.384-0.544 0.032-0.064 0.096-0.256 0.224-0.576 0.096-0.32 0.192-0.672 0.352-1.088 0.128-0.416 0.224-0.832 0.352-1.216s0.224-0.736 0.32-1.056c0.096-0.32 0.16-0.48 0.16-0.512 0.352-1.376 1.056-2.592 2.080-3.616 0.768-0.768 1.632-1.344 2.624-1.728 0.96-0.416 1.984-0.608 3.040-0.608 1.024 0 2.048 0.192 3.040 0.608 0.992 0.384 1.856 0.96 2.624 1.728 1.024 0.992 1.728 2.208 2.080 3.552 0.384 1.376 0.384 2.72 0 4.096-0.352 1.376-1.056 2.56-2.080 3.552v0z"/>
</svg>
