<svg
  version="1.1"
  xmlns="http://www.w3.org/2000/svg"
  viewBox="0 0 32 32">
  <path d="M2.656 25.344c0-1.472 1.216-2.688 2.656-2.688h21.376c1.472 0 2.656 1.184 2.656 2.688 0 1.472-1.216 2.656-2.656 2.656h-21.376c-1.44 0-2.656-1.184-2.656-2.656zM2.656 16c0-1.472 1.216-2.656 2.656-2.656h21.376c1.472 0 2.656 1.184 2.656 2.656s-1.216 2.656-2.656 2.656h-21.376c-1.44 0-2.656-1.184-2.656-2.656zM2.656 6.656c0-1.472 1.216-2.656 2.656-2.656h21.376c1.472 0 2.656 1.184 2.656 2.656s-1.216 2.688-2.656 2.688h-21.376c-1.44 0-2.656-1.184-2.656-2.688z"/>
</svg>
