<svg
  version="1.1"
  xmlns="http://www.w3.org/2000/svg"
  viewBox="0 0 32 32">
  <path d="M11.136 6.272c0.128-0.192 0.288-0.352 0.48-0.48l1.344 1.344c-0.16 0.16-0.32 0.32-0.48 0.48l-1.344-1.344zM9.824 8.48c0.032-0.128 0.096-0.32 0.256-0.64l1.76 0.704c-0.128 0.224-0.192 0.448-0.256 0.672l-1.76-0.736zM13.824 4.48l0.704 1.76c-0.224 0.064-0.416 0.16-0.64 0.256l-0.736-1.76c0.32-0.16 0.544-0.224 0.672-0.256v0zM16.352 6.016c-0.032 0-0.096 0-0.16 0-0.096 0-0.16-0.032-0.192-0.032s-0.096 0.032-0.192 0.032c-0.064 0-0.128 0-0.16 0v-1.92c0.032 0 0.096 0 0.16 0 0.096 0 0.16 0 0.192 0s0.096 0 0.192 0c0.064 0 0.128 0 0.16 0v1.92zM17.472 6.24l0.704-1.76c0.128 0.032 0.352 0.096 0.672 0.256l-0.736 1.76c-0.224-0.096-0.416-0.192-0.64-0.256v0zM21.92 7.84c0.128 0.192 0.224 0.416 0.256 0.64l-1.76 0.736c-0.064-0.224-0.128-0.448-0.256-0.672l1.76-0.704zM16 1.344c1.28 0 2.464 0.224 3.616 0.736 1.152 0.48 2.144 1.152 2.976 1.984 0.864 0.832 1.504 1.824 2.016 2.976 0.48 1.152 0.736 2.368 0.736 3.616 0 1.28-0.256 2.496-0.736 3.648-0.512 1.12-1.152 2.144-2.016 2.976-0.832 0.832-1.824 1.472-2.976 1.984-1.152 0.48-2.336 0.736-3.616 0.736-1.248 0-2.464-0.256-3.616-0.736-1.152-0.512-2.144-1.152-2.976-1.984s-1.504-1.856-2.016-2.976c-0.48-1.152-0.736-2.368-0.736-3.648 0-1.248 0.256-2.464 0.736-3.616 0.512-1.152 1.184-2.144 2.016-2.976s1.824-1.504 2.976-1.984c1.152-0.512 2.368-0.736 3.616-0.736v0zM16 18.016c0.992 0 1.952-0.224 2.848-0.608s1.696-0.896 2.336-1.568c0.672-0.64 1.184-1.44 1.568-2.336s0.576-1.856 0.576-2.848c0-0.992-0.192-1.92-0.576-2.848-0.384-0.896-0.896-1.664-1.568-2.336-0.64-0.64-1.44-1.184-2.336-1.568s-1.856-0.576-2.848-0.576c-0.992 0-1.952 0.192-2.848 0.576s-1.696 0.928-2.336 1.568c-0.672 0.672-1.184 1.44-1.568 2.336-0.384 0.928-0.576 1.856-0.576 2.848s0.192 1.952 0.576 2.848c0.384 0.896 0.896 1.696 1.568 2.336 0.64 0.672 1.44 1.184 2.336 1.568s1.856 0.608 2.848 0.608v0zM20.384 5.792c0.192 0.128 0.352 0.288 0.48 0.48l-1.344 1.344c-0.16-0.16-0.288-0.32-0.48-0.48l1.344-1.344zM16.672 13.472c0.288 0.128 0.544 0.352 0.704 0.608 0.192 0.288 0.288 0.576 0.288 0.928 0 0.448-0.16 0.832-0.48 1.152-0.32 0.352-0.736 0.512-1.184 0.512s-0.864-0.16-1.184-0.512c-0.32-0.32-0.48-0.704-0.48-1.152 0-0.352 0.096-0.64 0.288-0.928 0.16-0.256 0.416-0.48 0.704-0.608v-4.8c0-0.192 0.064-0.352 0.192-0.48s0.288-0.192 0.48-0.192c0.192 0 0.352 0.064 0.48 0.192s0.192 0.288 0.192 0.48v4.8zM9.568 23.744c-0.416-0.512-0.192-0.832 0.448-0.704l3.936 0.992c0 0 0-1.28 0-1.92v-2.304c0-0.608 0.544-1.152 1.184-1.152h1.728c0.672 0 1.184 0.544 1.184 1.152v2.304c0 0.64 0 1.92 0 1.92l4-0.992c0.64-0.128 0.832 0.192 0.448 0.704l-5.76 6.56c-0.416 0.48-1.056 0.48-1.472 0l-5.696-6.56z"/>
</svg>
