<svg
  version="1.1"
  xmlns="http://www.w3.org/2000/svg"
  viewBox="0 0 32 32">
  <path d="M6.368 22.688c0.416-0.416 0.896-0.64 1.472-0.64s1.088 0.224 1.472 0.64c0.416 0.384 0.64 0.896 0.64 1.472s-0.224 1.056-0.64 1.472l-0.704 0.736c-0.416 0.416-0.928 0.64-1.504 0.64s-1.088-0.224-1.472-0.64c-0.416-0.384-0.64-0.896-0.64-1.472s0.224-1.088 0.64-1.504l0.736-0.704zM6.592 16c0 0.576-0.224 1.056-0.64 1.472s-0.896 0.608-1.472 0.608h-1.056c-0.576 0-1.056-0.192-1.472-0.608s-0.608-0.896-0.608-1.472c0-0.576 0.192-1.056 0.608-1.472s0.896-0.608 1.472-0.608h1.056c0.576 0 1.056 0.192 1.472 0.608s0.64 0.896 0.64 1.472v0zM16 6.56c-0.576 0-1.056-0.192-1.472-0.608s-0.608-0.896-0.608-1.472v-1.056c0-0.576 0.192-1.056 0.608-1.472s0.896-0.608 1.472-0.608c0.576 0 1.056 0.192 1.472 0.608s0.608 0.896 0.608 1.472v1.056c0 0.576-0.192 1.056-0.608 1.472s-0.896 0.608-1.472 0.608v0zM6.368 9.312l-0.736-0.704c-0.416-0.416-0.64-0.928-0.64-1.504s0.224-1.088 0.64-1.504c0.384-0.384 0.896-0.608 1.472-0.608s1.088 0.224 1.504 0.608l0.704 0.768c0.416 0.416 0.64 0.896 0.64 1.472s-0.224 1.088-0.64 1.472c-0.384 0.416-0.896 0.64-1.472 0.64s-1.056-0.224-1.472-0.64v0zM25.632 9.312c-0.416 0.416-0.896 0.64-1.472 0.64s-1.088-0.224-1.472-0.64c-0.416-0.384-0.64-0.896-0.64-1.472s0.224-1.056 0.64-1.472l0.704-0.768c0.416-0.384 0.928-0.608 1.504-0.608s1.056 0.224 1.504 0.608c0.384 0.448 0.608 0.928 0.608 1.504s-0.224 1.088-0.608 1.504l-0.768 0.704zM28.576 13.92c0.576 0 1.056 0.192 1.472 0.608s0.608 0.896 0.608 1.472c0 0.576-0.192 1.056-0.608 1.472s-0.896 0.608-1.472 0.608h-1.056c-0.576 0-1.056-0.192-1.472-0.608s-0.608-0.896-0.608-1.472c0-0.576 0.192-1.056 0.608-1.472s0.896-0.608 1.472-0.608h1.056zM25.632 22.688l0.768 0.704c0.384 0.416 0.608 0.928 0.608 1.504s-0.224 1.088-0.608 1.472c-0.416 0.416-0.928 0.64-1.504 0.64s-1.088-0.224-1.504-0.64l-0.704-0.736c-0.416-0.416-0.64-0.896-0.64-1.472s0.224-1.088 0.64-1.472c0.384-0.416 0.896-0.64 1.472-0.64s1.056 0.224 1.472 0.64v0zM16 25.408c0.576 0 1.056 0.224 1.472 0.64s0.608 0.896 0.608 1.472v1.056c0 0.576-0.192 1.056-0.608 1.472s-0.896 0.608-1.472 0.608c-0.576 0-1.056-0.192-1.472-0.608s-0.608-0.896-0.608-1.472v-1.056c0-0.576 0.192-1.056 0.608-1.472s0.896-0.64 1.472-0.64v0zM16 8.672c2.016 0 3.744 0.704 5.184 2.144s2.144 3.168 2.144 5.184c0 2.016-0.704 3.744-2.144 5.184s-3.168 2.144-5.184 2.144c-2.016 0-3.744-0.704-5.184-2.144s-2.144-3.168-2.144-5.184c0-2.016 0.704-3.744 2.144-5.184s3.168-2.144 5.184-2.144v0zM16 20.192c1.152 0 2.144-0.416 2.976-1.216 0.8-0.832 1.216-1.824 1.216-2.976s-0.416-2.144-1.216-2.976c-0.832-0.8-1.824-1.216-2.976-1.216s-2.144 0.416-2.976 1.216c-0.8 0.832-1.216 1.824-1.216 2.976s0.416 2.144 1.216 2.976c0.832 0.8 1.824 1.216 2.976 1.216v0z"/>
</svg>
