<svg
  version="1.1"
  xmlns="http://www.w3.org/2000/svg"
  viewBox="0 0 32 32">
  <path d="M16 21.344c2.944 0 5.344-2.4 5.344-5.344v-9.344c0-2.912-2.4-5.312-5.344-5.312s-5.344 2.4-5.344 5.312v9.344c0 2.944 2.4 5.344 5.344 5.344zM24 12c-0.736 0-1.344 0.608-1.344 1.344v2.656c0 3.68-2.976 6.656-6.656 6.656s-6.656-2.976-6.656-6.656v-2.656c0-0.736-0.608-1.344-1.344-1.344s-1.344 0.608-1.344 1.344v2.656c0 4.704 3.488 8.576 8 9.216v2.784h-1.312c-0.736 0-1.344 0.608-1.344 1.344s0.608 1.312 1.344 1.312h5.312c0.736 0 1.344-0.576 1.344-1.312s-0.608-1.344-1.344-1.344h-1.312v-2.784c4.512-0.64 8-4.512 8-9.216v-2.656c0-0.736-0.608-1.344-1.344-1.344z"/>
</svg>
