<svg
  version="1.1"
  xmlns="http://www.w3.org/2000/svg"
  viewBox="0 0 32 32">
  <path d="M7.456 28.384l4.96 2.56c1.056 0.64 2.528 0.384 3.328-0.416l12.672-12.544c0.928-0.928 1.056-2.528 0.384-3.456l-3.744-5.6 1.088-1.056 1.056 1.056 4.128-4.128-4.128-4.128-4.128 4.128 1.056 1.056-1.056 1.088-5.6-3.744c-1.056-0.672-2.528-0.544-3.456 0.256l-12.8 12.672c-0.8 0.8-0.672 2.656 0 3.744l2.112 4.512-1.056 1.088 4.128 4.128 1.056-1.216zM8.544 21.184l10.4-10.24 2.112 1.984-10.4 10.272-2.112-2.016zM12.672 25.344l10.4-10.272 2.144 1.984-10.4 10.272-2.144-1.984zM4.416 17.056l10.4-10.272 2.112 2.016-10.4 10.272-2.112-2.016z"/>
</svg>
