<svg
  version="1.1"
  xmlns="http://www.w3.org/2000/svg"
  viewBox="0 0 32 32">
  <path d="M26.656 5.344h-21.312c-1.472 0-2.688 1.184-2.688 2.656v16c0 1.472 1.216 2.656 2.688 2.656h21.312c1.472 0 2.688-1.184 2.688-2.656v-16c0-1.472-1.216-2.656-2.688-2.656zM10.656 14.656h-1.312v1.344h1.312v2.656h-1.312v1.344h-2.688v-1.344h-1.312v-2.656h1.312v-1.344h-1.312v-2.656h1.312v-1.344h2.688v1.344h1.312v2.656zM18.656 14.656h-1.312v1.344h1.312v2.656h-1.312v1.344h-2.688v-1.344h-1.312v-2.656h1.312v-1.344h-1.312v-2.656h1.312v-1.344h2.688v1.344h1.312v2.656zM28 24c0 0.8-0.672 1.344-1.344 1.344h-6.656v-18.688h6.656c0.672 0 1.344 0.672 1.344 1.344v16zM22.656 20h2.688v-1.344h-2.688v1.344zM22.656 12h2.688v-1.344h-2.688v1.344zM25.344 14.656h1.312v-2.656h-1.312v2.656zM25.344 18.656h1.312v-2.656h-1.312v2.656zM21.344 18.656h1.312v-2.656h-1.312v2.656zM22.656 16h2.688v-1.344h-2.688v1.344zM21.344 14.656h1.312v-2.656h-1.312v2.656zM9.344 12v2.656h-2.688v-2.656h2.688zM6.656 16h2.688v2.656h-2.688v-2.656zM17.344 12v2.656h-2.688v-2.656h2.688zM14.656 16h2.688v2.656h-2.688v-2.656z"/>
</svg>
