<svg
  version="1.1"
  xmlns="http://www.w3.org/2000/svg"
  viewBox="0 0 32 32">
  <path d="M25.44 6.592l3.904-3.936v10.496h-10.496l3.808-3.808c-0.832-0.864-1.856-1.536-3.008-2.016s-2.368-0.704-3.648-0.704c-1.696 0-3.264 0.416-4.704 1.248s-2.56 1.984-3.424 3.424c-0.832 1.44-1.248 3.008-1.248 4.704s0.416 3.264 1.248 4.704c0.864 1.44 1.984 2.56 3.424 3.424 1.44 0.832 3.008 1.248 4.704 1.248 1.888 0 3.584-0.512 5.152-1.536 1.536-1.024 2.688-2.368 3.424-4.032l3.616 1.536c-1.024 2.4-2.656 4.32-4.864 5.792s-4.64 2.208-7.328 2.208c-1.792 0-3.52-0.352-5.184-1.056-1.632-0.704-3.040-1.664-4.256-2.848-1.184-1.216-2.144-2.624-2.848-4.256-0.704-1.664-1.056-3.392-1.056-5.184s0.352-3.52 1.056-5.184c0.704-1.632 1.664-3.072 2.848-4.256 1.216-1.184 2.624-2.144 4.256-2.848 1.664-0.704 3.392-1.056 5.184-1.056 1.824 0 3.52 0.352 5.152 1.056 1.632 0.672 3.072 1.632 4.288 2.88v0z"/>
</svg>
