<svg
  version="1.1"
  xmlns="http://www.w3.org/2000/svg"
  viewBox="0 0 32 32">
  <path d="M2.944 4v0.032h-0.192v0.032l-0.32 0.064 0.448 0.48 0.448-0.352-0.16-0.256h-0.224zM27.328 4.096l-0.064 0.48 0.64 0.096 0.128-0.64-0.704 0.064zM28.32 4.768l0.64 0.128 0.128-0.64-0.672-0.128-0.096 0.64zM26.272 4.352v0.096l0.64 0.064v-0.256h0.032v-0.096l-0.672 0.192zM4.768 4.48l0.352 0.512 0.128-0.064v-0.032h0.064l0.032-0.064h0.064l0.064-0.128h0.064v-0.032l0.128-0.064-0.576-0.416-0.32 0.288zM29.312 4.992l0.608 0.16 0.16-0.64h0.032l-0.672-0.16-0.128 0.64zM1.6 4.768l0.384 0.512 0.512-0.448-0.416-0.48-0.48 0.416zM3.936 5.088l0.064 0.128h0.032l0.256 0.384 0.544-0.352-0.416-0.576-0.48 0.416zM30.432 4.704l-0.064 0.352h-0.032v0.128h-0.032l0.352 0.16-0.192-0.64h-0.032zM7.008 4.96l0.352 0.544 0.416-0.256-0.672-0.352-0.096 0.064zM1.344 5.12v0.416h0.032l0.032 0.224 0.288-0.192-0.288-0.448h-0.064zM26.624 5.792l0.64 0.032 0.064-0.64-0.672-0.032-0.032 0.64zM25.6 5.152v0.64h0.64l0.032-0.64h-0.672zM24.512 5.184l0.064 0.64 0.672-0.032-0.032-0.64-0.704 0.032zM27.68 5.888l0.64 0.032 0.064-0.64-0.672-0.064-0.032 0.672zM6.592 5.248v0.032l-0.448 0.288 0.032 0.096h0.032l0.288 0.48 0.576-0.384-0.064-0.128h-0.032l-0.288-0.416-0.096 0.032zM23.52 5.632l0.032 0.288 0.64-0.064-0.064-0.576-0.608 0.352zM28.704 5.984l0.608 0.128 0.128-0.64-0.672-0.128-0.064 0.64zM3.072 5.728l0.384 0.544 0.16-0.096v-0.032l0.384-0.256-0.416-0.544-0.512 0.384zM29.696 6.112l0.608 0.224 0.16-0.672-0.64-0.128-0.128 0.576zM5.312 6.272l0.384 0.48 0.128-0.064v-0.032l0.384-0.256-0.032-0.096h-0.032l-0.288-0.48-0.544 0.448zM8.544 6.112l0.384 0.544 0.416-0.352-0.544-0.416-0.256 0.224zM2.272 6.4l0.448 0.512 0.448-0.352-0.384-0.576-0.512 0.416zM7.712 6.816l0.352 0.448 0.512-0.448-0.384-0.448-0.48 0.448zM4.512 6.88l0.384 0.544 0.128-0.096v-0.032l0.384-0.256-0.384-0.544-0.512 0.384zM27.040 6.624v0.64h0.64v-0.64h-0.128v-0.032l-0.512 0.032zM28.096 7.264l0.64 0.032 0.032-0.64-0.64-0.032-0.032 0.64zM25.984 6.656l0.032 0.64 0.64-0.032-0.032-0.64-0.64 0.032zM24.896 6.752l0.128 0.672 0.608-0.096-0.032-0.64-0.704 0.064zM1.888 6.752l0.384 0.512 0.128-0.096-0.416-0.48-0.096 0.064zM29.12 7.36l0.288 0.064 0.416-0.64-0.672-0.064-0.032 0.64zM23.872 6.912l0.096 0.672 0.64-0.096-0.096-0.672-0.64 0.096zM22.848 7.136l0.128 0.672 0.64-0.128-0.128-0.672-0.64 0.128zM6.88 7.36l0.384 0.576 0.512-0.416h-0.032l-0.32-0.512-0.544 0.352zM9.984 7.456l0.352 0.512 0.48-0.288-0.416-0.512-0.416 0.288zM3.68 7.584l0.416 0.512 0.512-0.384-0.384-0.544-0.544 0.416zM21.792 7.456l0.192 0.576h0.032v0.032l0.608-0.16-0.16-0.64-0.672 0.192zM20.864 7.968l0.16 0.448 0.608-0.192-0.192-0.608-0.576 0.352zM6.048 8.064l0.384 0.512 0.544-0.416-0.48-0.48-0.448 0.384zM9.6 7.712l-0.448 0.352 0.064 0.16h0.032v0.064l0.064 0.032v0.032l0.064 0.032v0.064h0.032l0.096 0.16 0.544-0.384-0.064-0.128h-0.032l-0.288-0.384h-0.064zM2.912 8.256l0.384 0.544 0.544-0.416-0.48-0.512-0.448 0.384zM28.544 8.128v0.672h0.288l0.352-0.672h-0.64zM27.456 8.16l0.032 0.704 0.672-0.032-0.032-0.672h-0.672zM26.4 8.288l0.064 0.64h0.032v0.032l0.608-0.064-0.064-0.672-0.64 0.064zM20.544 8.32l-0.16 0.256h-0.032l-0.096 0.192 0.416-0.192-0.096-0.256h-0.032zM25.376 8.448l0.096 0.672 0.64-0.096-0.096-0.672-0.64 0.096zM8.32 8.768l0.384 0.512 0.512-0.384-0.064-0.128h-0.032l-0.256-0.416-0.544 0.416zM5.248 8.832l0.384 0.448 0.512-0.384-0.448-0.544-0.448 0.48zM24.32 8.672l0.128 0.672 0.64-0.16-0.096-0.64-0.672 0.128zM11.584 8.704l0.224 0.416h0.032l0.096 0.16 0.128-0.064-0.384-0.576-0.096 0.064zM23.296 8.992l0.192 0.64 0.608-0.192-0.16-0.608-0.64 0.16zM10.752 9.376l0.416 0.544 0.48-0.384-0.352-0.512-0.544 0.352zM7.52 9.44l0.448 0.512 0.48-0.416-0.448-0.512-0.48 0.416zM4.48 9.472l0.448 0.512 0.448-0.416-0.448-0.512-0.448 0.416zM22.304 9.344l0.224 0.608 0.576-0.224-0.16-0.576-0.64 0.192zM21.312 9.76l0.256 0.64 0.608-0.256-0.224-0.64-0.64 0.256zM9.952 10.048l0.384 0.544 0.512-0.416-0.416-0.512-0.48 0.384zM6.72 10.144l0.48 0.512 0.448-0.416-0.448-0.512-0.48 0.416zM3.68 10.208l0.416 0.48 0.512-0.384-0.448-0.544-0.48 0.448zM27.904 9.888l0.128 0.672 0.48-0.064 0.032-0.192h0.032v-0.064h0.032l0.032-0.096h-0.032l-0.032-0.352-0.672 0.096zM26.88 10.048l0.128 0.64 0.608-0.096-0.096-0.672-0.64 0.128zM20.384 10.272l0.288 0.544 0.544-0.256-0.032-0.128h-0.032l-0.192-0.48-0.576 0.32zM25.856 10.304l0.128 0.608 0.64-0.128-0.128-0.608-0.64 0.128zM9.12 10.784l0.448 0.512 0.48-0.416-0.448-0.512-0.48 0.416zM24.8 10.592l0.224 0.608 0.608-0.16-0.16-0.608-0.672 0.16zM5.952 10.848l0.416 0.48 0.512-0.384-0.416-0.512-0.512 0.416zM19.456 10.848l0.16 0.256h0.032v0.064l0.064 0.032v0.064h0.032l0.032 0.096 0.544-0.288-0.352-0.576-0.512 0.352zM12.224 10.912l0.384 0.512 0.544-0.384-0.448-0.544-0.48 0.416zM3.424 11.424l0.448-0.416-0.352-0.352-0.096 0.768zM24.16 10.816v0.032l-0.32 0.128 0.192 0.608 0.608-0.224-0.192-0.608-0.288 0.064zM18.56 11.424l0.064 0.128h0.032v0.064l0.064 0.032v0.064l0.096 0.064v0.064h0.032l0.096 0.128 0.16-0.096v-0.032h0.064l0.032-0.064h0.064l0.032-0.064h0.064v-0.032l0.128-0.064-0.416-0.576-0.512 0.384zM8.352 11.552l0.416 0.448 0.48-0.48-0.448-0.448-0.448 0.48zM22.88 11.424l0.224 0.576 0.576-0.224-0.224-0.64-0.576 0.288zM5.216 11.616l0.416 0.48 0.48-0.416-0.448-0.544-0.448 0.48zM11.456 11.68l0.384 0.416 0.512-0.416-0.448-0.512-0.448 0.512zM22.368 11.648v0.032l-0.48 0.192 0.064 0.128h0.032v0.064h0.032l0.128 0.288h0.032l0.032 0.096 0.128-0.032v-0.032l0.448-0.192-0.064-0.192h-0.032l-0.192-0.384-0.128 0.032zM18.176 11.776h-0.032v0.064l-0.064 0.032v0.064h-0.032l-0.16 0.384 0.256 0.256 0.48-0.416-0.416-0.48-0.032 0.096zM28.48 11.712l0.096 0.64h0.064l0.032-0.32h-0.032v-0.32h-0.16zM27.424 11.968l0.128 0.608 0.672-0.128-0.128-0.64-0.672 0.16zM7.616 12.224l0.448 0.544 0.448-0.48-0.48-0.48-0.416 0.416zM10.656 12.32l0.416 0.512 0.512-0.448-0.48-0.48-0.448 0.416zM4.48 12.352l0.512 0.48 0.384-0.416-0.448-0.512-0.448 0.448zM26.4 12.256l0.192 0.64 0.608-0.192-0.16-0.64-0.64 0.192zM21.408 12.16v0.032l-0.32 0.16v0.032l-0.096 0.032 0.32 0.608 0.288-0.16v-0.032l0.256-0.16-0.352-0.576-0.096 0.064zM13.76 12.48l0.416 0.512 0.192-0.128-0.32-0.64-0.288 0.256zM25.408 12.608l0.224 0.64 0.608-0.192-0.192-0.64-0.64 0.192zM6.88 13.088l0.416 0.384 0.48-0.416-0.48-0.512-0.416 0.544zM9.92 13.056l0.416 0.48 0.48-0.416-0.48-0.512-0.416 0.448zM20.128 13.024l0.096 0.224h0.032l0.224 0.352 0.512-0.416-0.256-0.384h-0.032l-0.032-0.128-0.544 0.352zM17.664 12.672l-0.032 0.128h-0.032v0.064h-0.032v0.064h-0.032l-0.064 0.192 0.096-0.064v-0.032l0.256-0.16-0.096-0.192h-0.064zM3.776 13.184l0.48 0.416 0.416-0.448-0.512-0.48-0.384 0.512zM12.992 13.216l0.416 0.48 0.416-0.384 0.096-0.032-0.416-0.48-0.512 0.416zM24.672 12.96v0.032h-0.064v0.032h-0.096v0.032l-0.096 0.032 0.256 0.576 0.608-0.224-0.224-0.608-0.384 0.128zM23.488 13.568l0.288 0.608 0.576-0.32-0.032-0.096h-0.032v-0.064h-0.032v-0.064h-0.032v-0.064h-0.032v-0.064h-0.032v-0.064h-0.032l-0.064-0.128-0.576 0.256zM19.264 13.696l0.448 0.544 0.448-0.48-0.384-0.448-0.512 0.384zM6.112 13.76l0.512 0.48 0.416-0.448-0.512-0.48-0.416 0.448zM9.152 13.792l0.416 0.512 0.512-0.448-0.512-0.48-0.416 0.416zM3.392 14.176h0.032l0.128 0.192 0.416-0.448-0.512-0.48-0.064 0.736zM12.224 13.92l0.48 0.512 0.096-0.16 0.352-0.288-0.448-0.48-0.48 0.416zM28.064 13.952l0.16 0.608h0.032v0.064l0.384-0.832-0.576 0.16zM23.040 13.824v0.032l-0.448 0.288 0.384 0.544 0.448-0.32-0.256-0.576-0.128 0.032zM18.464 14.4l0.448 0.512 0.48-0.448-0.448-0.48-0.48 0.416zM5.408 14.624l0.48 0.384 0.416-0.448-0.512-0.448-0.384 0.512zM27.040 14.368l0.224 0.608 0.576-0.224-0.192-0.608-0.608 0.224zM8.416 14.624l0.512 0.416 0.416-0.448-0.512-0.448-0.416 0.48zM11.68 14.528l-0.192 0.128 0.48 0.48 0.416-0.416-0.416-0.48-0.288 0.288zM22.176 14.4l-0.48 0.352 0.448 0.512 0.448-0.32-0.032-0.128h-0.032v-0.064l-0.064-0.032v-0.064l-0.096-0.064v-0.064h-0.032l-0.064-0.128h-0.096zM14.688 14.784l-0.128 0.064 0.48 0.48 0.384-0.352-0.416-0.544-0.32 0.352zM26.080 14.784l0.256 0.64 0.576-0.288-0.128-0.352h-0.032l-0.096-0.224-0.576 0.224zM17.664 15.104l0.416 0.512 0.48-0.512-0.416-0.416-0.48 0.416zM7.712 15.424l0.512 0.384 0.384-0.448-0.48-0.48-0.416 0.544zM4.704 15.328l0.448 0.48 0.448-0.544-0.48-0.384-0.416 0.448zM10.752 15.456l0.48 0.48 0.416-0.416-0.448-0.544-0.448 0.48zM25.216 15.232v0.032l-0.096 0.032 0.288 0.576 0.576-0.256-0.256-0.608-0.512 0.224zM20.864 15.424l0.384 0.512 0.512-0.416-0.416-0.512-0.48 0.416zM13.824 15.616l0.48 0.48 0.416-0.416-0.48-0.512-0.416 0.448zM16.928 15.84l0.416 0.48 0.48-0.448-0.448-0.448-0.448 0.416zM24.704 15.552l-0.512 0.32h0.8l-0.224-0.32h-0.064zM7.296 15.904h0.384l-0.256-0.224-0.128 0.224zM20.064 16.128l0.48 0.48 0.416-0.384-0.448-0.512-0.448 0.416zM10.048 16.224l0.448 0.448 0.448-0.512-0.48-0.384-0.416 0.448zM13.088 16.384l0.448 0.48 0.48-0.512-0.128-0.064v-0.064h-0.064l-0.256-0.288-0.48 0.448zM16.192 16.576l0.48 0.512 0.288-0.288 0.128-0.224-0.416-0.416-0.48 0.416zM19.328 16.864l0.448 0.48 0.448-0.448-0.48-0.48-0.416 0.448zM23.744 17.056l0.384-0.384-0.8-0.16 0.416 0.544zM9.344 17.024l0.544 0.448 0.384-0.448-0.544-0.48-0.384 0.48zM12.384 17.248l0.512 0.384 0.416-0.512-0.416-0.416-0.512 0.544zM22.528 17.152l0.416 0.544 0.48-0.384-0.384-0.512-0.512 0.352zM15.424 17.376l0.128 0.096 0.416 0.352 0.384-0.416-0.416-0.48-0.512 0.448zM7.040 17.088l-0.384 0.192 0.16 0.128 0.288-0.32h-0.064zM18.56 17.6l0.48 0.512 0.448-0.512-0.48-0.416-0.448 0.416zM8.672 17.888l0.512 0.416 0.384-0.544-0.544-0.384-0.352 0.512zM6.24 17.472l-0.16 0.032v0.032h-0.064v0.032h-0.064v0.032l-0.192 0.064v0.032l-0.096 0.064 0.512 0.48 0.384-0.48-0.32-0.32v0.032zM21.696 17.888l0.448 0.512 0.512-0.48-0.48-0.448-0.48 0.416zM11.68 17.952l0.512 0.48 0.384-0.48-0.512-0.448-0.384 0.448zM14.72 18.176l0.512 0.448 0.384-0.416-0.48-0.512-0.416 0.48zM26.048 18.368l0.544-0.352-0.096-0.192-0.8-0.032 0.352 0.576zM17.824 18.4l0.48 0.448 0.416-0.416-0.48-0.512-0.416 0.48zM24.832 18.464l0.064 0.128h0.032l0.288 0.384 0.544-0.352-0.416-0.576-0.512 0.416zM5.024 18.688l0.544 0.352 0.352-0.512-0.512-0.384-0.384 0.544zM20.96 18.656l0.48 0.448 0.416-0.448-0.448-0.448-0.448 0.448zM8 18.72l0.512 0.384 0.384-0.544-0.512-0.352-0.384 0.512zM11.008 18.784l0.512 0.416 0.384-0.512-0.512-0.384-0.384 0.48zM14.048 19.008l0.512 0.416 0.384-0.544-0.512-0.384-0.384 0.512zM17.12 19.2l0.48 0.448 0.416-0.48-0.128-0.192-0.384-0.256-0.384 0.48zM24 19.136l0.416 0.512 0.512-0.448-0.448-0.448-0.48 0.384zM20.256 19.424l0.448 0.48 0.448-0.48-0.512-0.448-0.384 0.448zM4.384 19.488l0.544 0.416 0.352-0.576-0.544-0.352-0.352 0.512zM7.36 19.552l0.096 0.064v0.032h0.064l0.064 0.096h0.064l0.064 0.096h0.064v0.032l0.128 0.064 0.352-0.576-0.512-0.352-0.384 0.544zM10.368 19.68l0.448 0.352 0.448-0.512-0.512-0.416-0.384 0.576zM13.376 19.776l0.544 0.416 0.352-0.512-0.416-0.384-0.48 0.48zM27.456 19.648l0.352 0.544 0.224-0.096-0.096-0.768-0.48 0.32zM23.264 19.872l0.416 0.48 0.48-0.448-0.448-0.448-0.448 0.416zM16.448 20.032l0.512 0.384 0.384-0.512-0.512-0.384-0.384 0.512zM19.52 20.224l0.512 0.448 0.384-0.512-0.48-0.384-0.416 0.448zM6.688 20.352l0.576 0.448 0.384-0.544-0.544-0.416-0.416 0.512zM4 20.096h-0.032l-0.096 0.352 0.448 0.32 0.352-0.576-0.544-0.352-0.128 0.256zM26.624 20.288l0.352 0.544 0.512-0.448-0.384-0.48-0.48 0.384zM9.696 20.416l0.544 0.48 0.256-0.416h0.032l0.096-0.16-0.448-0.352-0.48 0.448zM13.056 20.192h-0.032l-0.32 0.448 0.544 0.416 0.256-0.416h0.032l0.096-0.16-0.512-0.384-0.064 0.096zM22.528 20.672l0.448 0.448 0.448-0.448-0.448-0.48-0.448 0.48zM15.744 20.8l0.544 0.448 0.384-0.544-0.512-0.384-0.416 0.48zM25.824 20.992l0.448 0.48 0.448-0.416-0.448-0.512-0.448 0.448zM18.816 21.088l0.544 0.384 0.384-0.512-0.512-0.416-0.416 0.544zM6.080 21.216l0.544 0.416 0.384-0.576-0.544-0.384-0.384 0.544zM9.056 21.344l0.544 0.352 0.384-0.544-0.544-0.352-0.384 0.544zM12.352 21.088h-0.032l-0.256 0.384 0.512 0.384 0.416-0.544-0.576-0.352-0.064 0.128zM21.824 21.504l0.512 0.384 0.416-0.48-0.512-0.416-0.416 0.512zM15.072 21.632l0.448 0.32 0.096-0.288h0.032v-0.096h0.032l0.032-0.16h0.032l-0.288-0.256-0.384 0.48zM25.056 21.728l0.48 0.512 0.416-0.512-0.48-0.416-0.416 0.416zM18.144 21.888l0.512 0.416 0.416-0.576-0.544-0.352-0.384 0.512zM5.792 21.664h-0.032v0.064l-0.064 0.032v0.064l-0.064 0.032v0.064h-0.032l-0.064 0.128h-0.032l0.512 0.448 0.384-0.576-0.416-0.256v-0.032l-0.128-0.064-0.064 0.096zM8.448 22.176l0.544 0.384 0.064-0.096h0.032l0.256-0.48-0.128-0.064v-0.032l-0.384-0.256-0.384 0.544zM21.152 22.336l0.512 0.352 0.384-0.512-0.512-0.416-0.384 0.576zM11.744 21.888h-0.032l-0.256 0.48 0.128 0.064v0.032l0.384 0.256 0.384-0.512-0.544-0.416-0.064 0.096zM14.464 22.464l0.544 0.416 0.32-0.544-0.416-0.352-0.448 0.48zM24.32 22.592l0.48 0.384 0.448-0.48-0.544-0.448-0.384 0.544zM17.504 22.688l0.544 0.416 0.096-0.16h0.032l0.224-0.352-0.512-0.384-0.384 0.48zM5.024 22.848h-0.032l-0.032 0.096h-0.032v0.064l0.384 0.224v0.032l0.16 0.064 0.32-0.544-0.544-0.32-0.224 0.384zM8.16 22.624h-0.032l-0.256 0.384 0.512 0.448 0.064-0.128h0.032l0.288-0.448-0.576-0.352-0.032 0.096zM20.48 23.072l0.512 0.448 0.384-0.48-0.512-0.448-0.384 0.48zM10.88 23.136h-0.032l0.544 0.448 0.032-0.096h0.032l0.288-0.48-0.544-0.352-0.32 0.48zM13.856 23.424l0.544 0.32 0.32-0.512h0.032l-0.544-0.416-0.352 0.608zM23.616 23.328l0.512 0.448 0.384-0.544-0.48-0.384-0.416 0.48zM17.088 23.232l0.448 0.576 0.224-0.384-0.448-0.384-0.224 0.192zM4.768 23.808h0.032l0.032 0.416h0.096l0.032-0.096h0.032v-0.064l0.064-0.032v-0.064l0.064-0.032v-0.064h0.032v-0.064l0.064-0.032v-0.064h0.032l-0.448-0.288v-0.064l-0.064-0.032 0.032 0.48zM19.84 23.968l0.544 0.352 0.352-0.448-0.512-0.448-0.384 0.544zM7.616 23.424l-0.224 0.384h-0.032l-0.032 0.096h-0.032v0.064l0.384 0.224v0.032l0.16 0.064 0.352-0.512-0.448-0.288v-0.032h-0.032v-0.032h-0.096zM10.24 24.032l0.576 0.384 0.32-0.544-0.416-0.256v-0.032l-0.128-0.064-0.352 0.512zM22.944 24.16l0.544 0.416 0.384-0.48-0.512-0.416-0.416 0.48zM13.248 24.256l0.512 0.352 0.064-0.096h0.032l0.288-0.448-0.544-0.352-0.352 0.544zM19.264 24.768h-0.032l0.512 0.416 0.352-0.48-0.512-0.448-0.32 0.512zM7.008 24.384h-0.032v0.064l-0.064 0.032v0.064l-0.064 0.032v0.064h-0.032l-0.128 0.224 0.608 0.32 0.32-0.576-0.448-0.256v-0.032l-0.128-0.032-0.032 0.096zM9.984 24.48h-0.032l-0.288 0.512 0.416 0.224v0.032l0.16 0.064 0.224-0.384h0.032l0.064-0.16-0.544-0.384-0.032 0.096zM22.336 24.992l0.48 0.448 0.384-0.544-0.064-0.032v-0.032l-0.448-0.32-0.352 0.48zM12.736 24.992h-0.032l-0.032 0.096h-0.032v0.064l0.416 0.224v0.032l0.16 0.064 0.224-0.384h0.032l0.064-0.16-0.544-0.352-0.256 0.416zM18.592 25.6l0.512 0.416 0.384-0.448-0.512-0.448-0.384 0.48zM6.432 25.28h-0.032l-0.256 0.48 0.576 0.288 0.32-0.512h0.032v-0.032h-0.064l-0.032-0.064h-0.064v-0.032h-0.064l-0.032-0.064h-0.096l-0.032-0.064h-0.064v-0.032h-0.064v-0.032l-0.096-0.032-0.032 0.096zM9.312 25.504h-0.032l-0.192 0.352 0.576 0.352 0.352-0.576-0.608-0.32-0.096 0.192zM21.664 25.856l0.576 0.416 0.352-0.544-0.512-0.384-0.416 0.512zM12.384 25.472l-0.32 0.48 0.544 0.416 0.064-0.096h0.032l0.288-0.448-0.48-0.288v-0.032h-0.032v-0.032h-0.096zM5.632 26.624l0.544 0.352 0.32-0.544-0.128-0.064v-0.032l-0.448-0.224-0.288 0.512zM8.544 26.784l0.576 0.288 0.096-0.192h0.032v-0.064l0.064-0.032v-0.064h0.032v-0.064l0.064-0.032v-0.064h0.032l-0.576-0.352-0.32 0.576zM21.344 26.368h-0.032l-0.256 0.384 0.544 0.384 0.384-0.544-0.128-0.064v-0.032l-0.448-0.256-0.064 0.128zM11.776 26.496h-0.032v0.064l-0.064 0.032v0.064l-0.064 0.032v0.064h-0.032v0.064h-0.032l-0.032 0.128 0.096 0.032v0.032h0.064v0.032l0.384 0.224 0.224-0.416h0.032l0.064-0.16-0.544-0.32-0.064 0.128zM20.48 27.648l0.448 0.288v0.032h0.032v0.032h0.096l0.32-0.544-0.544-0.352-0.352 0.544zM8.288 27.2h-0.032v0.064h-0.032l-0.128 0.32h-0.032l-0.032 0.128 0.096 0.032v0.032h0.064v0.032l0.288 0.128v0.032l0.128 0.032 0.288-0.576-0.576-0.32-0.032 0.096zM10.976 27.776l0.192 0.16 0.672-0.288v-0.064l-0.096-0.032v-0.032l-0.32-0.192v-0.032l-0.128-0.064-0.32 0.544z"/>
</svg>
