<svg
  version="1.1"
  xmlns="http://www.w3.org/2000/svg"
  viewBox="0 0 32 32">
  <path d="M28.224 10.656h-24.448c-0.736 0-1.216 0.608-1.088 1.312l0.832 4.032c0.128 0.736 0.864 1.344 1.6 1.344h0.288l0.832 4c0.128 0.736 0.864 1.312 1.632 1.312h16.256c0.768 0 1.504-0.576 1.632-1.312l0.832-4h0.288c0.736 0 1.472-0.608 1.6-1.344l0.832-4.032c0.16-0.704-0.352-1.312-1.088-1.312v0zM27.2 15.744c-0.032 0.128-0.224 0.256-0.32 0.256h-21.76c-0.096 0-0.288-0.16-0.288-0.256l-0.768-3.744h23.904l-0.768 3.744zM24.96 18.656h-2.304v1.344h2.016l-0.192 1.088c-0.032 0.096-0.224 0.256-0.352 0.256h-16.256c-0.128 0-0.32-0.16-0.32-0.256l-0.224-1.088h2.016v-1.344h-2.304l-0.256-1.312h18.432l-0.256 1.312zM18.656 20h2.688v-1.344h-2.688v1.344zM14.656 20h2.688v-1.344h-2.688v1.344zM10.656 20h2.688v-1.344h-2.688v1.344z"/>
</svg>
