<svg
  version="1.1"
  xmlns="http://www.w3.org/2000/svg"
  viewBox="0 0 32 32">
  <path d="M20.064 10.208v5.024h1.312v2.528h-3.936v-10.048h2.624l-3.936-5.056-3.936 5.056h2.624v10.048h-3.936v-2.592c0.928-0.48 1.568-1.376 1.568-2.432 0-1.536-1.312-2.784-2.88-2.784-1.6 0-2.912 1.248-2.912 2.784 0 1.056 0.672 1.952 1.6 2.432v2.592c0 1.408 1.152 2.528 2.624 2.528h3.936v3.808c-0.928 0.48-1.568 1.408-1.568 2.464 0 1.536 1.28 2.784 2.88 2.784s2.912-1.248 2.912-2.784c0-1.056-0.672-1.984-1.6-2.464v-3.808h3.936c1.472 0 2.656-1.12 2.656-2.528v-2.528h1.312v-5.024h-5.28z"/>
</svg>
