<?xml version="1.0" standalone="no"?>
<!DOCTYPE svg PUBLIC "-//W3C//DTD SVG 1.1//EN" "http://www.w3.org/Graphics/SVG/1.1/DTD/svg11.dtd">
<svg xmlns="http://www.w3.org/2000/svg">
<metadata>Copyright (C) 2016 by original authors @ fontello.com</metadata>
<defs>
<font id="developer" horiz-adv-x="1000" >
<font-face font-family="developer" font-weight="400" font-stretch="normal" units-per-em="1000" ascent="1000" descent="0" />
<missing-glyph horiz-adv-x="1000" />
<glyph glyph-name="value" unicode="&#xe800;" d="M798 917l-596 0c-65 0-119-54-119-119l0-596c0-65 54-119 119-119l596 0c65
0 119 54 119 119l0 596c0 65-54 119-119 119l0 0z m-26-240l0-41-188
0-10-126c30 16 60 24 90 24 82 0 123-38 123-113
0-44-11-77-34-100-23-23-54-35-95-35-33 0-69 5-109 13l-19 4 5 36c45-9
83-13 113-13 31 0 54 8 69 24 16 16 24 38 24 66 0 28-7 48-22 60-14 12-34
18-60 18-14 0-29-2-44-6-15-4-27-7-35-11l-13-6-30 6 10 200 225 0z
m-560-41l0 41 239 0 0-59-148-332-43 13 145 322 0 15-193 0z" horiz-adv-x="1000" />

<glyph glyph-name="humidity" unicode="&#xe801;" d="M447 901c-7 10-18 16-30 16-12 0-23-6-30-16-75-107-262-387-262-519 0-165
131-299 292-299 161 0 291 134 291 299 1 132-187 412-261
519m-248-429l36-10c-33-125 40-253 164-286l-10-37c-144 39-229 188-190
333m583 439c-3 4-7 6-11 6-4 0-8-2-11-6-27-37-93-135-93-181 0-58 46-105
104-105 57 0 104 47 104 105 0 46-67 144-93 181" horiz-adv-x="1000" />

<glyph glyph-name="button" unicode="&#xe802;" d="M500 798c-165 0-298-134-298-298 0-164 133-298 298-298 164 0 298 134 298
298 0 164-134 298-298 298l0 0z m0 119c-231 0-417-187-417-417 0-230
186-417 417-417 230 0 417 187 417 417 0 230-187 417-417 417l0 0z
m0-759c-189 0-342 153-342 342 0 189 153 342 342 342 189 0 342-153
342-342 0-189-153-342-342-342l0 0z" horiz-adv-x="1000" />

<glyph glyph-name="led" unicode="&#xe803;" d="M306 542l59-59-236-236-59 59 236 236z m-59 118c16 16 43 16
59-1l353-353c17-16 17-43 1-59l0 0c-17-16-43-16-60 0l-353 353c-16 17-16
43 0 60l0 0z m234-293l59-59-236-236-59 59 236 236z m90 499c82 81 214 81
295 0l0 0c81-82 81-213 0-295l-206-206-295 295 206 206z" horiz-adv-x="1000" />

<glyph glyph-name="motion" unicode="&#xe804;" d="M622 838c0-44-35-80-79-80-44 0-79 36-79 80 0 43 35 79 79 79 44 0 79-36
79-79l0 0 0 0 0 0z m1-267c0 0-35 74-53 114-17 39-29 49-53 49l-37 0c-20
0-27-7-39-14l-101-86c-8-5-14-12-17-23l-22-145c-3-23 9-33 23-36 11-2 28 4
31 20 3 13 23 132 23 132l66 50c-11-50-22-105-25-124-7-32 9-56 22-75
11-18 151-252 170-277 20-26 38-38 65-23 23 13 19 42 7 63-13 22-154
266-154 266l25 109c0 0 18-25 27-39 4-7 56-54 77-63 18-8 40-11 49 5 9
16-2 35-16 41-15 7-68 56-68 56l0 0z m-210-137l-39-125c0
0-63-91-81-117-13-19-23-43-1-60 26-19 46 6 59 21 12 13 62 82 75 99 10 12
15 22 19 32 2 6 21 42 28 60l-60 90 0 0z m-238-135c-47 49-76 115-81 183-6
82 25 165 82 223 10 10 9 27-1 36-8 9-25 10-34 1-68-68-104-167-97-263
5-80 39-157 94-215 4-4 9-8 14-9 16-3 33 12 31 28 0 6-4 12-8 16l0 0 0 0z
m-34 182l0 0c5-56 30-111 68-151 9-8 24-7 32 2 11 8 12 25 2 35-38 40-59
98-55 155 4 46 24 92 55 125 9 9 8 26-2 34-8 9-22 10-31
2-51-52-77-128-69-202l0 0 0 0 0 0z m684-182c47 49 76 115 81 183 6 82-25
165-81 223-11 10-10 27 0 36 8 9 25 10 34 1 68-68 104-167
97-263-5-80-39-157-94-215-4-4-9-8-14-9-16-3-33 12-31 28 0 6 4 12 8 16l0
0 0 0z m35 182l0 0c-6-56-31-111-69-151-9-8-24-7-32 2-10 8-12 25-2 35 39
40 59 98 55 155-3 46-24 92-55 125-9 9-8 26 2 34 8 9 22 10 31 2 51-52
77-128 70-202l0 0 0 0 0 0z" horiz-adv-x="1000" />

<glyph glyph-name="valve" unicode="&#xe805;" d="M896 375c-13 0-21-8-21-21l0 0c0-12-8-21-21-21h-208c-13 0-21 9-21
21v250c0 13 8 21 21 21l0 0c12 0 21 8 21 21v42c0 12-9 20-21 20h-83c-13
0-21 9-21 21v42c0 12 8 21 21 21h41c13 0 21 8 21 21v125c0 12-8 20-21
20h-208c-13 0-21-8-21-20v-125c0-13 8-21 21-21h42c12 0 20-9
20-21v-42c0-12-8-21-20-21h-84c-12 0-21-8-21-20v-42c0-13 9-21 21-21l0
0c13 0 21-8 21-21v-250c0-12-8-21-21-21h-208c-13 0-21 9-21 21l0 0c0 13-8
21-21 21h-41c-13 0-21-8-21-21v-291c0-13 8-21 21-21h41c13 0 21 8 21 21l0
0c0 12 8 20 21 20h708c13 0 21-8 21-20l0 0c0-13 8-21 21-21h42c12 0 20 8
20 21v291c0 13-8 21-20 21h-42z" horiz-adv-x="1000" />

<glyph glyph-name="motor" unicode="&#xe806;" d="M233 113l155-80c33-20 79-12 104 13l396 392c29 29 33 79 12 108l-117 175
34 33 33-33 129 129-129 129-129-129 33-33-33-34-175 117c-33 21-79
17-108-8l-400-396c-25-25-21-83 0-117l66-141-33-34 129-129 33 38z m34
225l325 320 66-62-325-321-66 63z m129-130l325 321 67-62-325-321-67 62z
m-258 259l325 321 66-63-325-321-66 63z" horiz-adv-x="1000" />

<glyph glyph-name="digital-2state" unicode="&#xe807;" d="M798 917l-596 0c-65 0-119-54-119-119l0-596c0-65 54-119 119-119l596 0c65
0 119 54 119 119l0 596c0 65-54 119-119 119l0 0z m-500-234c32 0 58-6
78-18 42-25 63-87 63-187 0-70-12-120-35-149-23-29-58-43-105-43-47 0-82
14-105 43-24 28-36 79-36 153 0 73 12 125 35 155 23 31 58 46 105 46l0 0z
m1-40c-22 0-40-5-53-14-27-19-41-70-41-151 0-58 8-98 23-119 15-22 39-33
71-33 32 0 56 11 71 33 15 22 23 63 23 123 0 60-7 102-22 126-15 23-39
35-72 35l0 0z m140-345l165 407 39-15-165-406-39 14z m386 379l0-385-45 0
0 335-99-66-20 34 122 82 42 0z" horiz-adv-x="1000" />

<glyph glyph-name="extension" unicode="&#xe808;" d="M685 593c-16 0-32 4-46 14l-245-246c9-14 13-30 13-46 0-51-41-93-92-93-51
0-93 42-93 93 0 51 42 93 93 93 16 0 32-5 46-14l246 245c-10 14-14 30-14
46 0 51 41 93 92 93 51 0 93-42 93-93 0-51-42-92-93-92m139 324l-648 0c-17
0-33-5-47-13l1-1 139-139c13 9 30 14 46 14 51 0 92-42 92-93
0-51-41-92-92-92-51 0-93 41-93 92 0 16 5 33 14 47l-139 138 0
1c-9-14-14-30-14-47l0-648c0-51 42-93 93-93l648 0c17 0 33 5 47 14l-1
0-138 139c-14-9-31-14-47-14-51 0-92 42-92 93 0 51 41 93 92 93 51 0 93-42
93-93 0-16-5-32-14-46l139-139 1-1c8 14 13 30 13 47l0 648c0 51-42 93-93
93m-139-197c-18 0-34-16-34-35 0-18 16-34 34-34 19 0 35 16 35 34 0 19-16
35-35 35m-370-370c-19 0-35-17-35-35 0-19 16-35 35-35 18 0 35 16 35 35 0
18-17 35-35 35m336-35c0-19 16-35 34-35 19 0 35 16 35 35 0 18-16 35-35
35-18 0-34-17-34-35m-301 370c0 19-17 35-35 35-19 0-35-16-35-35 0-18
16-34 35-34 18 0 35 16 35 34" horiz-adv-x="1000" />

<glyph glyph-name="proximity" unicode="&#xe809;" d="M795 302c71 67 112 159 112 258 0 196-158 354-354 354-118
0-227-58-292-154l34-23c58 84 154 136 258 136 173 0 313-140 313-313
0-87-37-169-99-227l28-31 0 0z m-46-50c1-44-15-83-47-116-141-144-372
48-415 87 24 31 52 23 154-34 4-3 9-3 12 2 3 4 2 9-2 13l-317 324c-12
12-12 33 0 46 13 13 33 13 46 0l218-224 15 16-218 223-30 31c-13 13-13 34
0 46 12 13 32 13 45 0l30-31 196-200 23-23 15 15-23 23-196 201c-12 13-12
33 0 46 13 13 33 13 45 0l61-62 135-138 23-23 15 15-23 23-135 139c-13
13-13 33 0 46 12 13 32 13 45 0l151-154 45-46 8-8c1-1 123-118 124-237" horiz-adv-x="1000" />

<glyph glyph-name="slider" unicode="&#xe80a;" d="M863 583l0 0c-34 96-130 167-238 167-108 0-204-71-237-171 0 0 0 0 0
4l-346 0 0-166 346 0c0 0 0 0 0 4 33-100 125-171 237-171 108 0 200 71 238
167l0 0 95 0 0 166-95 0 0 0z m-238-250c-92 0-167 75-167 167 0 92 75 167
167 167 92 0 167-75 167-167 0-92-75-167-167-167l0 0z" horiz-adv-x="1000" />

<glyph glyph-name="add" unicode="&#xe80b;" d="M500 917c56 0 110-11 162-33 51-22 96-52 133-89 37-37 67-82 89-133 22-52
33-106 33-162
0-56-11-110-33-162-22-51-52-95-89-133-37-37-82-67-133-89-52-22-106-33-162-33-56
0-110 11-162 33-51 22-95 52-133 89-37 38-67 82-89 133-22 52-33 106-33
162 0 56 11 110 33 162 22 51 52 96 89 133 38 37 82 67 133 89 52 22 106
33 162 33l0 0z m208-476l0 118-149 0 0 149-118 0 0-149-149 0 0-118 149 0
0-149 118 0 0 149 149 0z" horiz-adv-x="1000" />

<glyph glyph-name="thermometer" unicode="&#xe80c;" d="M360 398c2 2 5 5 8 7 3 3 6 5 10 8l0 425c0 66 55 120 123 120 67 0 123-54
123-120l0-425c14-11 27-23 38-37 8-9 15-19 20-29 17-30 26-64 26-100
0-25-4-48-12-70
0-1-1-2-1-3-3-7-6-14-10-21-4-8-9-16-14-23-1-1-1-2-2-3-2-2-3-4-4-6-2-2-3-3-5-5-2-2-4-5-6-7-2-2-4-5-7-7-2-3-5-5-8-7-2-2-4-4-6-6-1
0-1-1-1-1-4-3-7-5-11-8-5-3-10-7-15-10-2-1-5-2-7-4-1
0-3-1-4-2-3-1-5-2-7-3-9-4-18-8-28-10-2-1-5-2-8-3-2
0-4-1-5-1-7-2-14-3-21-4-9-1-17-1-26-1-13 0-25 1-37 3-4 1-7 1-10 2-2 0-4
1-5 1-3 1-6 2-9 3-2 0-4 1-6 1-2 1-3 2-5 2-3 1-6 3-9 4-2 0-3 1-5 2-3 1-6
3-9 4-3 2-6 3-9 5-7 4-14 9-21 13-1 1-2 2-4 3-48 38-79 96-79 162 0 57 24
109 63 147 2 1 3 3 5 4z m77 440l0-234 127 0 0 234c0 34-28 62-63 62-35
0-64-28-64-62z" horiz-adv-x="1000" />

<glyph glyph-name="load" unicode="&#xe80d;" d="M348 804c4 6 9 11 15 15l42-42c-5-5-10-10-15-15l-42 42z m-41-69c1 4 3 10
8 20l55-22c-4-7-6-14-8-21l-55 23z m125 125l22-55c-7-2-13-5-20-8l-23
55c10 5 17 7 21 8l0 0z m79-48c-1 0-3 0-5 0-3 0-5 1-6 1-1 0-3-1-6-1-2 0-4
0-5 0l0 60c1 0 3 0 5 0 3 0 5 0 6 0 1 0 3 0 6 0 2 0 4 0 5 0l0-60z
m35-7l22 55c4-1 11-3 21-8l-23-55c-7 3-13 6-20 8l0 0z m139-50c4-6 7-13
8-20l-55-23c-2 7-4 14-8 21l55 22z m-185 203c40 0 77-7 113-23 36-15 67-36
93-62 27-26 47-57 63-93 15-36 23-74 23-113
0-40-8-78-23-114-16-35-36-67-63-93-26-26-57-46-93-62-36-15-73-23-113-23-39
0-77 8-113 23-36 16-67 36-93 62-26 26-47 58-63 93-15 36-23 74-23 114 0
39 8 77 23 113 16 36 37 67 63 93 26 26 57 47 93 62 36 16 74 23 113 23l0
0z m0-521c31 0 61 7 89 19 28 12 53 28 73 49 21 20 37 45 49 73 12 28 18
58 18 89 0 31-6 60-18 89-12 28-28 52-49 73-20 20-45 37-73 49-28 12-58
18-89 18-31
0-61-6-89-18-28-12-53-29-73-49-21-21-37-45-49-73-12-29-18-58-18-89 0-31
6-61 18-89 12-28 28-53 49-73 20-21 45-37 73-49 28-12 58-19 89-19l0 0z
m137 382c6-4 11-9 15-15l-42-42c-5 5-9 10-15 15l42 42z m-116-240c9-4
17-11 22-19 6-9 9-18 9-29 0-14-5-26-15-36-10-11-23-16-37-16-14 0-27 5-37
16-10 10-15 22-15 36 0 11 3 20 9 29 5 8 13 15 22 19l0 150c0 6 2 11 6 15
4 4 9 6 15 6 6 0 11-2 15-6 4-4 6-9 6-15l0-150z m-222-321c-13 16-6 26 14
22l123-31c0 0 0 40 0 60l0 72c0 19 17 36 37 36l54 0c21 0 37-17
37-36l0-72c0-20 0-60 0-60l125 31c20 4 26-6
14-22l-180-205c-13-15-33-15-46 0l-178 205z" horiz-adv-x="1000" />

<glyph glyph-name="pi" unicode="&#xe80e;" d="M779 557c-3-35-190 123-158 129 88 14 160-37 158-129m-206 370c2-7 4-13
6-14 10 11 19 22 32 33 0-6-3-13 5-18 7 10 17 18 30 25-7-10-1-14 2-18 10
8 19 17 37 23-5-6-12-11-4-18 10 6 20 12 44 17-5-6-17-12-10-18 13 5 27 8
43 10-8-6-14-12-8-17 14 5 32 10 51 5l-12-11c-1-2 27-1
46-2-7-9-14-18-18-34 2-2 11-1 20 0-9-19-25-24-28-32 5-4 13-3 21
0-6-13-20-22-31-33 3-2 8-3 19-2-10-10-22-20-36-28 2-3 11-3
19-3-13-12-29-19-45-27 8-5 14-4 19-4-11-9-29-13-46-19 3-5 6-6
13-8-18-10-44-5-52-10 2-5 7-9 13-11-29-2-110 1-125 61 30 33 85 71 179
119-73-25-140-57-195-102-66 30-21 106 11 136m35-283c0-28-40-51-103-51-62
1-103 29-103 57 0 22 50 61 103 60 46 1 104-34 103-66m-338 90c7 2 10 3 14
8-18 6-36 10-47 19 6 0 11-1 19 4-15 8-32 15-45 27 8 0 17 0 19 3-14 8-26
18-36 28 11-1 16 0 19 2-11 11-24 20-31 33 8-3 16-4 22 0-4 8-20 13-29 32
9-1 18-2 20 0-4 16-11 25-18 34 19 1 48 0 46 2l-11 11c18 5 37 0 50-5 6 5
0 11-7 17 15-2 29-5 42-10 7 6-4 12-10 18 24-5 35-11 45-17 7 7 0 12-5 18
18-6 28-15 37-23 4 4 9 8 3 18 13-7 22-15 29-25 8 5 5 12 5 18 14-11 22-22
33-33 2 1 3 6 5 14 32-30 77-106 12-136-56 45-122 77-196 102 95-48 150-86
180-119-16-60-96-63-126-61 6 2 11 6 13 11-7 5-34 0-52
10m109-46c32-5-155-164-158-128-3 92 70 143 158 128m-196-354c-46 36-61
140 24 187 50 13 17-205-24-187m177-186c-26-15-88-9-132 53-30 52-26 105-5
120 31 19 79-6 117-48 32-39 47-105 20-125m-51 227c-47 30-55 98-19 152 37
54 105 73 152 43 47-30 55-98
19-152-37-54-105-73-152-43m196-333c-56-3-112 45-111 61-1 24 69 43 114 42
46 2 107-14 107-36 1-21-56-68-110-67m116
237c0-56-50-102-113-102-63-1-114 45-114 101l0 1c0 56 50 102 113 102 62 1
114-45 114-101l0-1z m-71 145c-37 53-28 121 19 151 47 30 114 11 151-43
37-54 28-122-19-152-47-30-115-10-151 44m230-226c-49-66-115-68-139-50-26
24-6 97 29 137 40 44 83 73 113 50 20-19 32-93-3-137m13 326c85-47 70-151
25-187-42-18-75 200-25 187" horiz-adv-x="1000" />

<glyph glyph-name="generic-digital" unicode="&#xe80f;" d="M811 528c-9 35-28 69-52 96-23 27-57 40-71 40-14 0-24-4-30-17-5-11-2-25
4-34 8-12 21-14 32-23 31-24 44-55 49-91
11-63-22-108-67-142-16-12-28-30-13-50 12-15 23-17 39-13 28 7 59 42 77 66
33 45 48 111 32 168z m-240 14c-9-6-15-15-23-22-32 0-91 0-91 0-4 15-13
42-18 58-13 44-28 103-44 151-6 19-11 32-36 32-25
0-33-21-38-41-5-16-59-261-59-261 0 0-34 225-41 259-7 31-22 43-40 43-18
0-32-18-36-36-4-18-11-39-16-59-11-41-25-84-35-124
0-2-4-23-7-25-5-5-17-2-23-4-15-6-23-22-22-35 2-29 26-33 52-33 29-1 47 4
57 34 8 25 20 77 20 77 0 0 8-38 10-50 3-21 44-223 50-238 6-17 16-30
31-30 13 0 22 13 28 28 8 21 74 316 74 316 0 0 17-57 26-89 8-31 15-48
50-48 0 0 102 0 108 0 0 0 15-20 24-26 7-4 8-5 18-7 25-6 46 0 64 17 33 31
27 83-9 109-21 15-52 17-74 4z m322 142c-18 24-42 49-67 70-22 19-33 29-55
35-22 5-45-10-46-28-3-22 12-32 27-42 23-13 47-34 68-57 38-41 53-87
63-141 5-30
4-74-2-104-4-16-10-34-18-50-23-44-56-96-106-125-10-6-24-11-29-23-5-12-4-27
4-37 20-27 57-5 77 10 41 33 87 77 107 122 14 28 28 61 34 92 13 58 12
131-14 192-12 29-22 57-43 86z" horiz-adv-x="1000" />

<glyph glyph-name="generic-analog" unicode="&#xe810;" d="M916 325l0 183 0 358-784-783 407 0 177 0c39 0 72 1 99 11 48 15 83 61 95
105 9 33 6 84 6 126l0 0z m-501 335c-15-9-32-15-46-18-27-6-67
2-90-13-9-5-17-14-20-27-1-7 2-22-1-28-4-6-55 0-63 0-4 13-3 43 0 52 11 37
43 69 80 77 26 6 68-1 93 11 5 2 14 6 19 13 10 13 7 33 10 51 18 0 65 0 65
0 0 0-1-3 0-13 1-6 1-14 0-19-1-9-2-18-4-25-6-20-21-48-43-61z m-173
257c-32
0-64-13-67-14-18-9-42-22-58-43-11-14-20-32-25-47-7-22-9-48-9-79l0-602
784 785-625 0z m430-614l53-54-107-107-54 54 108 107 0 0z m134
134l53-54-107-107-54 54 108 107 0 0z m-81 80l54-53-242-242-53 54 241 241
0 0z" horiz-adv-x="1000" />

<glyph glyph-name="toggle" unicode="&#xe811;" d="M667 292c-115 0-209 93-209 208 0 115 94 208 209 208 115 0 208-93 208-208
0-115-93-208-208-208m0 500l-334 0c-160 0-291-132-291-292 0-160 131-292
291-292l334 0c160 0 291 132 291 292 0 160-131 292-291 292" horiz-adv-x="1000" />

<glyph glyph-name="alerts" unicode="&#xe812;" d="M500 917c56 0 110-11 162-33 51-22 96-52 133-89 37-37 67-82 89-133 22-52
33-106 33-162
0-56-11-110-33-162-22-51-52-95-89-133-37-37-82-67-133-89-52-22-106-33-162-33-56
0-110 11-162 33-51 22-95 52-133 89-37 38-67 82-89 133-22 52-33 106-33
162 0 56 11 110 33 162 22 51 52 96 89 133 38 37 82 67 133 89 52 22 106
33 162 33l0 0z m0-782c49 0 97 10 142 29 45 20 83 45 116 78 33 32 58 71
78 116 19 45 29 92 29 142 0 49-10 97-29 142-20 45-45 83-78 116-33 33-71
58-116 78-45 19-93 29-142 29-50
0-97-10-142-29-45-20-84-45-116-78-33-33-58-71-78-116-19-45-29-93-29-142
0-50 10-97 29-142 20-45 45-84 78-116 32-33 71-58 116-78 45-19 92-29
142-29l0 0z m-78 183l0 364 247-182-247-182z" horiz-adv-x="1000" />

<glyph glyph-name="line-chart" unicode="&#xe813;" d="M42 875l0-750 917 0 0 63-855 0 0 687-62 0z m816 0c-55 0-100-45-100-100
0-21 6-39 16-56l-144-115c-16 8-31 11-48 11-55 0-101-45-101-100 0-8 2-15
3-23l-167-86c-18 21-44 33-74 33-56 0-101-45-101-100 0-55 45-100 101-100
55 0 100 45 100 100 0 8-1 15-2 23l167 86c17-21 44-34 74-34 55 0 100 46
100 101 0 20-6 39-16 55l144 117c14-8 31-12 48-12 55 0 101 46 101 101 0
55-46 99-101 99m-615-586c-28 0-51 22-51 50 0 28 23 50 51 50 27 0 50-22
50-50 0-28-23-50-50-50m339 176c-28 0-50 22-50 50 0 27 22 50 50 50 27 0
50-23 50-50 0-28-23-50-50-50m276 259c-28 0-50 23-50 51 0 27 22 50 50 50
28 0 50-23 50-50 0-28-22-51-50-51" horiz-adv-x="1000" />

<glyph glyph-name="donut-chart" unicode="&#xe814;" d="M674 733l91 91c-162 133-407 124-560-29-152-153-162-398-29-560l91 91c-75
102-77 277 27 380 104 104 278 102 380 27l0 0z m61-409l89-89c134 161 134
369 0 530l-91-91c76-101 78-249 2-350l0 0z m-409-57l-91-91c161-134
369-134 530 0l-89 89c-101-75-249-74-350 2l0 0z" horiz-adv-x="1000" />

<glyph glyph-name="dashboard" unicode="&#xe815;" d="M500 917c56 0 110-11 162-33 51-22 96-52 133-89 37-37 67-82 89-133 22-52
33-106 33-162
0-56-11-110-33-162-22-51-52-95-89-133-37-37-82-67-133-89-52-22-106-33-162-33-56
0-110 11-162 33-51 22-95 52-133 89-37 38-67 82-89 133-22 52-33 106-33
162 0 56 11 110 33 162 22 51 52 96 89 133 38 37 82 67 133 89 52 22 106
33 162 33l0 0z m0-782c49 0 97 10 142 29 45 20 83 45 116 78 33 32 58 71
78 116 19 45 29 92 29 142 0 49-10 97-29 142-20 45-45 83-78 116-33 33-71
58-116 78-45 19-93 29-142 29-50
0-97-10-142-29-45-20-84-45-116-78-33-33-58-71-78-116-19-45-29-93-29-142
0-50 10-97 29-142 20-45 45-84 78-116 32-33 71-58 116-78 45-19 92-29
142-29l0 0z m-119 503c-7-6-13-12-18-19l-54 53c6 7 12 13 19 19l53-53 0 0z
m-44-56c-4-10-8-19-10-25l-69 28c2 5 5 14 11 26l68-29 0 0z m176 100c-1
0-3 0-6 0-3 0-5 0-7 0-2 0-4 0-7 0-3 0-5 0-7 0l0 75 14 0 13 0 0-75z
m-70-9c-5-2-13-5-25-10l-29 69c13 5 21 8 26 10l28-69 0 0z m230-116c-2 6-6
15-10 25l69 29c5-13 8-21 10-26l-69-28z m-35 62c-6 7-12 13-19 19l53
53c7-6 13-12 19-19l-53-53z m-56 44c-10 4-19 8-25 10l28 69c5-2 14-5
26-10l-29-69z m-17-306c0-18-6-34-19-46-12-13-28-19-46-19-18 0-34 6-46
19-13 12-19 28-19 46 0 13 4 25 11 36 7 10 16 18 28 23l0 188c0 7 3 13 8
19 5 5 11 7 18 7 7 0 13-2 18-7 6-6 8-12 8-19l0-188c12-5 21-13 28-23 8-11
11-23 11-36l0 0z m-65 456c43 0 83-9 122-25 38-16 71-39 99-67 28-28 51-61
67-99 16-39 25-79 25-122
0-43-9-83-25-122-16-38-39-71-67-99-28-28-61-50-99-67-39-16-79-24-122-24-43
0-83 8-122 24-38 17-71 39-99 67-28 28-50 61-67 99-16 39-24 79-24 122 0
43 8 83 24 122 17 38 39 71 67 99 28 28 61 51 99 67 39 16 79 25 122 25l0
0z m0-599c39 0 76 7 111 22 36 15 66 36 92 61 26 26 46 56 61 92 15 35 23
72 23 111 0 39-8 76-23 111-15 36-35 66-61 92-26 26-56 46-92 61-35 15-72
23-111 23-39
0-76-8-111-23-36-15-66-35-92-61-25-26-46-56-61-92-15-35-22-72-22-111
0-39 7-76 22-111 15-36 36-66 61-92 26-25 56-46 92-61 35-15 72-22 111-22l0 0z" horiz-adv-x="1000" />

<glyph glyph-name="gauge" unicode="&#xe816;" d="M282 696c7 8 14 15 22 22l60-61c-7-6-15-13-21-21l-61 60z m-58-98c1 5 5 14
11 29l79-33c-5-9-9-19-11-29l-79 33z m178 178l33-79c-10-2-20-6-29-11l-32
79c14 6 23 10 28 11l0 0z m114-68c-2 0-5 0-8 0-3 0-6 0-8 0-2 0-4 0-8 0-3
0-6 0-8 0l0 85c2 0 5 0 8 0 4 1 6 1 8 1 2 0 5 0 8-1 3 0 6 0 8 0l0-85z
m49-11l33 79c5-1 14-5 29-11l-33-79c-9 5-19 9-29 11l0 0z m200-70c5-10
9-19 11-29l-79-33c-2 10-6 20-11 29l79 33z m-265 290c56 0 110-11 162-33
51-22 96-52 133-89 37-37 67-82 89-133 22-52 33-106 33-162
0-56-11-110-33-162-22-51-52-95-89-133-37-37-82-67-133-89-52-22-106-33-162-33-56
0-110 11-162 33-51 22-95 52-133 89-37 38-67 82-89 133-22 52-33 106-33
162 0 56 11 110 33 162 22 51 52 96 89 133 38 37 82 67 133 89 52 22 106
33 162 33l0 0z m0-745c44 0 87 9 127 27 40 17 75 40 105 70 29 29 52 64 70
104 17 41 26 83 26 127 0 44-9 87-26 127-18 40-41 75-70 105-30 29-65
52-105 70-40 17-83 26-127 26-44
0-86-9-127-26-40-18-75-41-104-70-30-30-53-65-70-105-18-40-27-83-27-127
0-44 9-86 27-127 17-40 40-75 70-104 29-30 64-53 104-70 41-18 83-27
127-27l0 0z m196 546c8-7 15-14 22-22l-61-60c-6 8-13 15-21 21l60 61z
m-166-344c13-5 24-14 32-27 8-12 13-25 13-40
0-21-8-38-22-53-15-14-32-22-53-22-21 0-38 8-53 22-14 15-21 32-21 53 0 15
4 28 12 40 8 13 19 22 32 27l0 215c0 9 3 16 9 22 6 5 13 8 21 8 8 0 16-3
21-8 6-6 9-13 9-22l0-215z" horiz-adv-x="1000" />

<glyph glyph-name="gpio" unicode="&#xe817;" d="M865 917c14 0 26-5 36-16 11-10 16-22
16-36l0-730c0-14-5-26-16-36-10-11-22-16-36-16l-730 0c-14 0-26 5-36 16-11
10-16 22-16 36l0 730c0 14 5 26 16 36 10 11 22 16 36 16l730 0z
m-391-782l0 339-339 0 0-339 339 0z m0 391l0 339-339 0 0-339 339 0z
m391-391l0 339-339 0 0-339 339 0z m0 391l0 339-339 0 0-339 339 0z
m-469-312l-182 0 0 182 182 0 0-182z m0 390l-182 0 0 183 182 0 0-183z
m391 0l-183 0 0 183 183 0 0-183z m0-390l-183 0 0 182 183 0 0-182z" horiz-adv-x="1000" />

<glyph glyph-name="lighting" unicode="&#xe818;" d="M303 571l268-268-160-160-149
0c-1-2-3-4-5-7-3-2-8-7-15-14-7-7-14-13-21-18-6-5-14-10-23-14-10-4-18-7-26-7-24
0-45 9-63 26-17 18-26 39-26 63 0 8 2 16 6 25 5 9 10 17 15 25 6 7 12 14
18 20 6 6 11 11 15 15l6 5 0 149 160 160z
m540-77c-32-32-70-54-114-66-14-3-39-11-77-22-37-11-59-18-64-20-2-1-13-10-33-25l-51
51 194 110c4 3 7 6 8 10 1 4 1 8-1 12-3 5-8 8-14 8-2
0-5-1-8-2l-202-115-51 50 116 201c2 4 3 7 1 11-1 4-3 7-7 9-3 2-5 3-7 3-6
0-11-3-14-8l-112-192-50 50c1 3 5 8 11 16 7 9 11 14 12 17 1 2 3 8 7 18 3
10 6 21 11 34 4 13 7 26 11 38 4 12 7 23 10 33 3 10 5 15 5 16 11 43 33 81
65 113 24 24 51 42 82 54 30 13 62 19 95 19 32 0 64-6 95-19 31-12 58-30
82-54 32-31 54-69 65-111 12-43 12-85 0-128-11-43-33-80-65-111l0 0z" horiz-adv-x="1000" />

<glyph glyph-name="lock" unicode="&#xe819;" d="M841 841c33-33 55-71 67-114 12-44 12-87
0-131-11-43-33-81-65-114-33-33-73-56-120-69-47-13-92-14-134-2l-59-60-119
0 0-89-90 0 0-90-89 0 0-89-149 0 0 179 328 327c-12 42-11 87 2 134 13 47
36 87 69 120 33 32 71 54 114 65 44 12 87 12 131 0 43-12 81-34 114-67l0
0z m-133-200c19 0 34 7 48 20 13 13 19 29 19 47 0 19-6 34-19 48-14 13-29
19-48 19-18 0-34-6-47-19-13-14-20-29-20-48 0-18 7-34 20-47 13-13 29-20
47-20l0 0z" horiz-adv-x="1000" />

<glyph glyph-name="luminosity" unicode="&#xe81a;" d="M199 291c13 13 28 20 46 20 18 0 34-7 46-20 13-12 20-28 20-46
0-18-7-33-20-46l-22-23c-13-13-29-20-47-20-18 0-34 7-46 20-13 12-20 28-20
46 0 18 7 34 20 47l23 22z m7 209c0-18-7-33-20-46-13-13-28-19-46-19l-33
0c-18 0-33 6-46 19-13 13-19 28-19 46 0 18 6 33 19 46 13 13 28 19 46
19l33 0c18 0 33-6 46-19 13-13 20-28 20-46l0 0z m294 295c-18 0-33 6-46
19-13 13-19 28-19 46l0 33c0 18 6 33 19 46 13 13 28 19 46 19 18 0 33-6
46-19 13-13 19-28 19-46l0-33c0-18-6-33-19-46-13-13-28-19-46-19l0 0z
m-301-86l-23 22c-13 13-20 29-20 47 0 18 7 34 20 47 12 12 28 19 46 19 18
0 34-7 47-19l22-24c13-13 20-28 20-46
0-18-7-34-20-46-12-13-28-20-46-20-18 0-33 7-46 20l0 0z m602
0c-13-13-28-20-46-20-18 0-34 7-46 20-13 12-20 28-20 46 0 18 7 33 20
46l22 24c13 12 29 19 47 19 18 0 33-7 47-19 12-14 19-29 19-47
0-18-7-34-19-47l-24-22z m92-144c18 0 33-6 46-19 13-13 19-28 19-46
0-18-6-33-19-46-13-13-28-19-46-19l-33 0c-18 0-33 6-46 19-13 13-19 28-19
46 0 18 6 33 19 46 13 13 28 19 46 19l33 0z m-92-274l24-22c12-13 19-29
19-47 0-18-7-34-19-46-13-13-29-20-47-20-18 0-34 7-47 20l-22 23c-13 13-20
28-20 46 0 18 7 34 20 46 12 13 28 20 46 20 18 0 33-7 46-20l0 0z
m-301-85c18 0 33-7 46-20 13-13 19-28
19-46l0-33c0-18-6-33-19-46-13-13-28-19-46-19-18 0-33 6-46 19-13 13-19
28-19 46l0 33c0 18 6 33 19 46 13 13 28 20 46 20l0 0z m0 523c63 0 117-22
162-67 45-45 67-99 67-162 0-63-22-117-67-162-45-45-99-67-162-67-63 0-117
22-162 67-45 45-67 99-67 162 0 63 22 117 67 162 45 45 99 67 162 67l0 0z
m0-360c36 0 67 13 93 38 25 26 38 57 38 93 0 36-13 67-38 93-26 25-57
38-93 38-36 0-67-13-93-38-25-26-38-57-38-93 0-36 13-67 38-93 26-25 57-38
93-38l0 0z" horiz-adv-x="1000" />

<glyph glyph-name="map" unicode="&#xe81b;" d="M619 905l0-715-238-94 0 714 238 95z m-536-685l0 697 268-120 0-714-268
137z m834-137l-268 120 0 714 268-120 0-714z" horiz-adv-x="1000" />

<glyph glyph-name="notify" unicode="&#xe81c;" d="M768 500c0-14 2-27 5-40 4-13 8-24 13-33 4-10 11-21 21-33 10-13 18-23
25-30 7-8 17-19 31-33 4-4 7-7 9-10l-744 0c32 34 53 57 63 70 27 36 41 73
41 109l0 119c1 40 9 78 26 114 16 36 40 67 71 93 31 26 67 44 107 54 5 12
13 21 24 27 12 7 25 10 40 10 15 0 28-4 39-10 11-7 19-17 24-29 40-10
76-28 107-53 31-26 55-57 72-93 17-35 26-73 26-113l0-119z m-685-208l834 0
0-60-834 0 0 60z m417-209c-32 0-61 12-86 35-26 22-42 51-50 85l270
0c-7-34-23-63-48-85-25-23-54-35-86-35l0 0z" horiz-adv-x="1000" />

<glyph glyph-name="scheduling" unicode="&#xe81d;" d="M208 542l84 0 0 83-84 0 0-83z m125 0l84 0 0 83-84 0 0-83z m125 0l84 0 0
83-84 0 0-83z m125 0l84 0 0 83-84 0 0-83z m125 0l84 0 0 83-84 0 0-83z
m-500-125l84 0 0 83-84 0 0-83z m125 0l84 0 0 83-84 0 0-83z m125 0l84 0 0
83-84 0 0-83z m125 0l84 0 0 83-84 0 0-83z m125 0l84 0 0 83-84 0 0-83z
m-500-125l84 0 0 83-84 0 0-83z m125 0l84 0 0 83-84 0 0-83z m125 0l84 0 0
83-84 0 0-83z m125 0l84 0 0 83-84 0 0-83z m125 0l84 0 0 83-84 0 0-83z
m-500-125l84 0 0 83-84 0 0-83z m125 0l84 0 0 83-84 0 0-83z m125 0l84 0 0
83-84 0 0-83z m125 0l84 0 0 83-84 0 0-83z m125 0l84 0 0 83-84 0 0-83z
m-333 688c0 11-9 20-21 20l-41 0c-12 0-21-9-21-20l0-126c0-11 9-21
21-21l41 0c12 0 21 9 21 21l0 126z m333 0c0 11-9 20-21 20l-41 0c-12
0-21-9-21-20l0-126c0-11 9-21 21-21l41 0c12 0 21 9 21 21l0 126z
m167-730c0-23-18-42-41-42l-668 0c-22 0-41 19-41 42l0 625c0 23 18 42 42
42l83 0 0 83c0 23 19 42 42 42l83 0c23 0 42-19 42-42l0-83 166 0 0 83c0 23
19 42 42 42l83 0c23 0 42-19 42-42l0-83 83 0c23 0 42-19 42-42l0-625z" horiz-adv-x="1000" />

<glyph glyph-name="settings" unicode="&#xe81e;" d="M870 613c14-1 25-7 33-17 9-10 14-21
14-35l0-122c0-14-5-25-14-35-8-10-19-16-33-17l-76-9 48-60c8-10 12-22
11-35 0-13-5-25-15-34l-87-87c-10-10-22-16-37-16-12 0-23 4-32 12l-60
48-9-76c-1-14-7-25-17-33-10-9-21-14-35-14l-122 0c-14 0-25 5-35 14-10
8-16 19-17 33l-9 76-60-48c-9-8-20-12-32-12-14 0-27 6-37 16l-87 87c-10
9-15 21-15 34-1 13 3 25 11 35l48 60-76 9c-14 1-25 7-33 17-9 10-14 21-14
35l0 122c0 14 5 25 14 35 8 10 19 16 33 18l76 8-48 60c-8 10-12 22-11 35 0
13 5 25 15 34l87 87c10 10 23 16 37 16 12 0 23-4 33-12l59-48 9 76c1 14 7
25 17 33 10 9 21 14 35 14l122 0c14 0 25-5 35-14 10-8 16-19 18-33l8-76 60
48c9 8 20 12 32 12 15 0 27-6 37-16l87-87c10-9 15-21 15-34
1-13-3-25-11-35l-48-60 76-9z m-5-174l0 122-112 13c-5 19-12 36-21 53l70
87-88 88-87-70c-17 9-34 16-53 21l-13 112-122
0-13-112c-17-5-35-12-53-21l-87 70-87-88 70-87c-10-17-17-35-22-53l-112-13
0-122 112-13c5-17 12-35 22-53l-70-87 87-87 87 70c18-10 36-17
53-22l13-112 122 0 13 112c19 5 36 13 53 22l87-70 88 87-70 87c9 18 16 36
21 53l112 13z m-365 204c40 0 73-14 101-42 28-28 42-61 42-101
0-40-14-73-42-101-28-28-61-42-101-42-40 0-73 14-101 42-28 28-42 61-42
101 0 40 14 73 42 101 28 28 61 42 101 42l0 0z m0-260c32 0 60 11 83 34 23
23 34 51 34 83 0 32-11 60-34 83-23 23-51 34-83 34-32
0-60-11-83-34-23-23-34-51-34-83 0-32 11-60 34-83 23-23 51-34 83-34l0 0z" horiz-adv-x="1000" />

<glyph glyph-name="battery" unicode="&#xe81f;" d="M196 376l122 124 361 0-303-304-180 180z m660 330l31-29c15-16 23-36
23-60-1-25-8-45-23-60l-450-450c-16-16-36-24-61-24-25 0-45 8-61 24l-209
210c-15 15-23 35-23 60 0 24 8 45 23 60l450 450c16 15 36 22 60 22 24 0
44-7 61-22l29-31 61 61 150-150-61-61z m-12-107c4 3 6 9 6 17 0 9-2 14-6
18l-210 210c-4 4-10 6-18 6-8 0-14-2-18-6l-450-450c-4-3-6-9-6-18 0-8 2-14
6-17l211-211c3-3 9-5 17-5 9 0 14 2 18 5l450 451z" horiz-adv-x="1000" />

<glyph glyph-name="chartlet" unicode="&#xe820;" d="M805 172l112 0 0-89-181 0-78 260-78-260-141 0-84 393-84-393-188 0 0 89
113 0 155 745 162-737 143 481 149-489z" horiz-adv-x="1000" />

<glyph glyph-name="cog" unicode="&#xe821;" d="M917 430l-128-15c-6-22-14-42-24-60l79-100-99-99-100
80c-20-11-40-19-60-25l-15-128-140 0-14 128c-21 6-41 14-61 25l-100-80-99
99 80 100c-11 20-19 40-25 61l-128 14 0 140 128 15c6 21 14 41 25 60l-80
100 99 99 100-79c20 10 40 18 61 24l14 128 140 0 15-128c20-6 40-14
60-24l100 79 99-99-79-100c10-18 18-38 24-60l128-15 0-140z m-283 70c0
37-13 68-39 95-27 26-58 39-95 39-37 0-68-13-95-39-26-27-39-58-39-95 0-37
13-68 39-95 27-26 58-39 95-39 37 0 68 13 95 39 26 27 39 58 39 95l0 0z" horiz-adv-x="1000" />

<glyph glyph-name="android" unicode="&#xe822;" d="M415 739c5 0 10 2 14 6 3 4 5 8 5 13 0 6-2 10-5 14-4 4-9 6-14 6-6
0-10-2-14-6-4-4-5-8-5-14 0-5 1-9 5-13 4-4 8-6 14-6l0 0z m212 0c5 0 10 2
14 6 3 4 5 8 5 13 0 6-2 10-5 14-4 4-9 6-14 6-5 0-10-2-14-6-4-4-6-8-6-14
0-5 2-9 6-13 4-4 9-6 14-6l0 0z m-408-92c14 0 26-5 36-15 10-10 15-22
15-36l0-216c0-14-5-26-15-36-10-10-22-15-36-15-15 0-27 5-37 15-10 10-15
22-15 36l0 216c0 14 5 26 15 36 10 10 22 15 37 15l0 0z
m533-10l0-333c0-16-6-29-16-39-11-11-24-16-39-16l-38 0
0-114c0-14-5-27-15-37-10-10-22-15-37-15-14 0-26 5-36 15-10 10-15 23-15
37l0 114-70 0 0-114c0-14-5-27-15-37-10-10-22-15-37-15-14 0-26 5-36 15-10
10-15 23-15 37l0 114-38 0c-15 0-28 5-39 16-11 10-16 23-16 39l0 333 462
0z m-117 203c36-18 65-44 86-77 22-33 32-69 32-108l-465 0c0 39 11 75 32
108 22 33 50 59 87 77l-36 66c-2 4-2 7 2 10 5 2 8 1 11-3l36-66c32 14 65
21 101 21 35 0 69-7 101-21l36 66c3 4 6 5 10 3 4-3 5-6 3-10l-36-66z
m240-244l0-216c0-14-5-26-15-36-10-10-22-15-37-15-14 0-26 5-36 15-10
10-15 22-15 36l0 216c0 14 5 26 15 36 10 10 22 15 36 15 15 0 27-5 37-15
10-10 15-22 15-36l0 0z" horiz-adv-x="1000" />

<glyph glyph-name="list" unicode="&#xe829;" d="M83 208c0 46 38 84 83 84l668 0c46 0 83-37 83-84 0-46-38-83-83-83l-668
0c-45 0-83 37-83 83z m0 292c0 46 38 83 83 83l668 0c46 0 83-37 83-83
0-46-38-83-83-83l-668 0c-45 0-83 37-83 83z m0 292c0 46 38 83 83 83l668
0c46 0 83-37 83-83 0-46-38-84-83-84l-668 0c-45 0-83 37-83 84z" horiz-adv-x="1000" />

<glyph glyph-name="mobile" unicode="&#xe82c;" d="M552 167c0 14-5 26-15 37-10 10-23 15-37 15-14
0-27-5-37-15-10-11-15-23-15-37 0-15 5-27 15-37 10-10 23-15 37-15 14 0 27
5 37 15 10 10 15 22 15 37l0 0z m136 104l0 458c0 6-3 11-7 15-4 4-9 6-14
6l-334 0c-5 0-10-2-14-6-4-4-6-9-6-15l0-458c0-6 2-11 6-15 4-4 9-6
14-6l334 0c5 0 10 2 14 6 4 4 7 9 7 15l0 0z m-125 552c0 7-4 10-11 10l-104
0c-7 0-10-3-10-10 0-7 3-10 10-10l104 0c7 0 11 3 11 10l0 0z m187
10l0-666c0-23-8-42-25-59-16-16-36-25-58-25l-334 0c-22 0-42 9-58 25-17
17-25 36-25 59l0 666c0 23 8 42 25 59 16 16 36 25 58 25l334 0c22 0 42-9
58-25 17-17 25-36 25-59l0 0z" horiz-adv-x="1000" />

<glyph glyph-name="time" unicode="&#xe831;" d="M575 500c0-21-8-38-22-53-15-14-32-21-53-21-15 0-29 4-41 12-12 8-21 19-27
32l-170 0c-8 0-15 3-21 9-6 6-9 13-9 21 0 8 3 16 9 21 6 6 13 9 21 9l170
0c8 18 21 31 38 38l0 200c0 8 3 15 9 21 6 6 13 8 21 8 8 0 16-2 21-8 6-6
9-13 9-21l0-200c13-6 24-15 32-27 8-12 13-26 13-41l0 0z m-75 417c56 0
110-11 162-33 51-22 96-52 133-89 37-37 67-82 89-133 22-52 33-106 33-162
0-56-11-110-33-162-22-51-52-95-89-133-37-37-82-67-133-89-52-22-106-33-162-33-56
0-110 11-162 33-51 22-95 52-133 89-37 38-67 82-89 133-22 52-33 106-33
162 0 56 11 110 33 162 22 51 52 96 89 133 38 37 82 67 133 89 52 22 106
33 162 33l0 0z m0-745c44 0 87 9 127 27 40 17 75 40 105 70 29 29 52 64 70
104 17 41 26 83 26 127 0 44-9 87-26 127-18 40-41 75-70 105-30 29-65
52-105 70-40 17-83 26-127 26-44
0-86-9-127-26-40-18-75-41-104-70-30-30-53-65-70-105-18-40-27-83-27-127
0-44 9-86 27-127 17-40 40-75 70-104 29-30 64-53 104-70 41-18 83-27
127-27l0 0z" horiz-adv-x="1000" />

<glyph glyph-name="sigfox" unicode="&#xe834;" d="M92 875l0-1-6 0 0-1-10-2 14-15 14 11-5 8-7 0z m762-3l-2-15 20-3 4
20-22-2z m31-21l20-4 4 20-21 4-3-20z m-64 13l0-3 20-2 0 8 1 0 0 3-21-6z
m-672-4l11-16 4 2 0 1 2 0 1 2 2 0 2 4 2 0 0 1 4 2-18 13-10-9z
m767-16l19-5 5 20 1 0-21 5-4-20z m-866 7l12-16 16 14-13 15-15-13z
m73-10l2-4 1 0 8-12 17 11-13 18-15-13z m828 12l-2-11-1 0 0-4-1 0 11-5-6
20-1 0z m-732-8l11-17 13 8-21 11-3-2z m-177-5l0-13 1 0 1-7 9 6-9 14-2 0z
m790-21l20-1 2 20-21 1-1-20z m-32 20l0-20 20 0 1 20-21 0z m-34-1l2-20 21
1-1 20-22-1z m99-22l20-1 2 20-21 2-1-21z m-659 20l0-1-14-9 1-3 1 0 9-15
18 12-2 4-1 0-9 13-3-1z m529-12l1-9 20 2-2 18-19-11z m162-11l19-4 4
20-21 4-2-20z m-801 8l12-17 5 3 0 1 12 8-13 17-16-12z m832-12l19-7 5
21-20 4-4-18z m-762-5l12-15 4 2 0 1 12 8-1 3-1 0-9 15-17-14z m101
5l12-17 13 11-17 13-8-7z m-196-9l14-16 14 11-12 18-16-13z m170-13l11-14
16 14-12 14-15-14z m-100-2l12-17 4 3 0 1 12 8-12 17-16-12z m704 8l0-20
20 0 0 20-4 0 0 1-16-1z m33-20l20-1 1 20-20 1-1-20z m-66 19l1-20 20 1-1
20-20-1z m-34-3l4-21 19 3-1 20-22-2z m-719 0l12-16 4 3-13 15-3-2z
m851-19l9-2 13 20-21 2-1-20z m-164 14l3-21 20 3-3 21-20-3z m-32-7l4-21
20 4-4 21-20-4z m-499-7l12-18 16 13-1 0-10 16-17-11z m97-3l11-16 15 9-13
16-13-9z m-197-4l13-16 16 12-12 17-17-13z m566 4l6-18 1 0 0-1 19 5-5
20-21-6z m-29-16l5-14 19 6-6 19-18-11z m-463-3l12-16 17 13-15 15-14-12z
m111 11l-14-11 2-5 1 0 0-2 2-1 0-1 2-1 0-2 1 0 3-5 17 12-2 4-1 0-9 12-2
0z m-209-17l12-17 17 13-15 16-14-12z m801 4l0-21 9 0 11 21-20 0z
m-34-1l1-22 21 1-1 21-21 0z m-33-4l2-20 1 0 0-1 19 2-2 21-20-2z
m-183-1l-5-8-1 0-3-6 13 6-3 8-1 0z m151-4l3-21 20 3-3 21-20-3z
m-533-10l12-16 16 12-2 4-1 0-8 13-17-13z m-96-2l12-14 16 12-14 17-14-15z
m596 5l4-21 20 5-3 20-21-4z m-398-1l7-13 1 0 3-5 4 2-12 18-3-2z
m366-9l6-20 19 6-5 19-20-5z m-392-12l13-17 15 12-11 16-17-11z
m-101-2l14-16 15 13-14 16-15-13z m-95-1l14-16 14 13-14 16-14-13z m557
4l7-19 18 7-5 18-20-6z m-31-13l8-20 19 8-7 20-20-8z m-355-9l12-17 16
13-13 16-15-12z m-101-3l15-16 14 13-14 16-15-13z m-95-2l13-15 16 12-14
17-15-14z m757 10l4-21 15 2 1 6 1 0 0 2 1 0 1 3-1 0-1 11-21-3z
m-32-5l4-20 19 3-3 21-20-4z m-203-7l9-17 17 8-1 4-1 0-6 15-18-10z
m171-1l4-19 20 4-4 19-20-4z m-523-15l14-16 15 13-14 16-15-13z m490
6l7-19 19 5-5 19-21-5z m-589-8l13-15 16 12-13 16-16-13z m422 0l5-8 1 0
0-2 2-1 0-2 1 0 1-3 17 9-11 18-16-11z m-226-2l12-16 17 12-14 17-15-13z
m-275-16l14 13-11 11-3-24z m648 19l0-1-10-4 6-19 19 7-6 19-9-2z
m-175-19l2-4 1 0 0-2 2-1 0-2 3-2 0-2 1 0 3-4 5 3 0 1 2 0 1 2 2 0 1 2 2 0
0 1 4 2-13 18-16-12z m-319-4l13-14 15 15-14 14-14-15z m454 4l7-18 18 7-7
20-18-9z m-552-6l13-15 15 13-14 17-14-15z m195-2l12-13 16 13-14
16-14-16z m341 1l0-1-15-6 2-4 1 0 0-2 1 0 4-9 1 0 1-3 4 1 0 1 14 6-2 6-1
0-6 12-4-1z m-131-4l-1 0 0-2-2-1 0-2-1 0-5-12 8-8 15 13-13 15-1-3z m322
2l3-20 2 0 1 10-1 0 0 10-5 0z m-33-8l4-19 21 4-4 20-21-5z m-619-8l14-17
14 15-15 15-13-13z m95-3l13-16 16 14-15 15-14-13z m-193-1l16-15 12 13-14
16-14-14z m685 3l6-20 19 6-5 20-20-6z m-156 3l0-1-10-5 0-1-3-1 10-19 9 5
0 1 8 5-11 18-3-2z m-239-10l13-16 6 4-10 20-9-8z m364-4l7-20 19 6-6
20-20-6z m-579-15l13-12 15 13-15 16-13-17z m95 1l13-15 15 13-15
16-13-14z m319 1l3-7 1 0 7-11 16 13-8 12-1 0-1 4-17-11z m-77 11l-1-4-1 0
0-2-1 0 0-2-1 0-2-6 3 2 0 1 8 5-3 6-2 0z m-434-16l15-13 13 14-16
15-12-16z m288-1l13-15 13 12 3 1-13 15-16-13z m365 8l0-1-2 0 0-1-3 0
0-1-3-1 8-18 19 7-7 19-12-4z m-37-19l9-19 18 10-1 3-1 0 0 2-1 0 0 2-1 0
0 2-1 0 0 2-1 0 0 2-1 0-2 4-18-8z m-132-4l14-17 14 15-12 14-16-12z
m-411-2l16-15 13 14-16 15-13-14z m95-1l13-16 16 14-16 15-13-13z
m-180-12l1 0 4-6 13 14-16 15-2-23z m276 8l15-16 3 5 11 9-14 15-15-13z
m495-1l5-19 1 0 0-2 12 26-18-5z m-157 4l0-1-14-9 12-17 14 10-8 18-4-1z
m-143-18l14-16 15 14-14 15-15-13z m-408-7l15-12 13 14-16 14-12-16z m676
8l7-19 18 7-6 19-19-7z m-582-8l16-13 13 14-16 14-13-15z m102 3l-6-4
15-15 13 13-13 15-9-9z m328 4l-15-11 14-16 14 10-1 4-1 0 0 2-2 1 0 2-3 2
0 2-1 0-2 4-3 0z m-234-12l-4-2 15-15 12 11-13 17-10-11z m356 0l8-20 18
9-4 11-1 0-3 7-18-7z m-263-10l13-16 15 16-13 13-15-13z m-311-10l16-12 12
14-15 15-13-17z m-94 3l14-15 14 17-15 12-13-14z m189-4l15-15 13 13-14
17-14-15z m452 7l0-1-3-1 9-18 18 8-8 19-16-7z m-136-6l12-16 16 13-13
16-15-13z m-220-6l15-15 13 13-15 16-13-14z m97-7l13-15 15 14-14
14-14-13z m243 9l-16-10 25 0-7 10-2 0z m-544-11l12 0-8 7-4-7z
m399-7l15-15 13 12-14 16-14-13z m-313-3l14-14 14 16-15 12-13-14z
m95-5l14-15 15 16-4 2 0 2-2 0-8 9-15-14z m97-6l15-16 9 9 4 7-13
13-15-13z m98-9l14-15 14 14-15 15-13-14z m138-6l12 12-25 5 13-17z m-450
1l17-14 12 14-17 15-12-15z m95-7l16-12 13 16-13 13-16-17z m317 3l13-17
15 12-12 16-16-11z m-222-7l4-3 13-11 12 13-13 15-16-14z m-262 9l-12-6
5-4 9 10-2 0z m360-16l15-16 14 16-15 13-14-13z m-309-9l16-13 12 17-17
12-11-16z m-76 13l-5-1 0-1-2 0 0-1-2 0 0-1-6-2 0-1-3-2 16-15 12 15-10 10
0-1z m483-13l14-16 16 15-15 14-15-13z m-313-2l16-15 12 15-16 14-12-14z
m95-7l16-14 12 13-15 16-13-15z m354-6l17 11-3 6-25 1 11-18z
m-257-1l15-14 13 13-15 16-13-15z m219-2l2-4 1 0 9-12 17 11-13 18-16-13z
m-619-7l17-11 11 16-16 12-12-17z m498 1l15-14 13 14-14 14-14-14z
m-405-2l16-12 12 17-16 11-12-16z m94-2l16-13 12 16-16 12-12-15z
m95-7l16-13 12 17-16 12-12-16z m96-6l15-14 13 15-4 6-12 8-12-15z m215
2l13-16 16 14-14 14-15-12z m-117-9l14-15 14 15-16 14-12-14z
m-496-2l17-13 11 18-17 11-11-16z m93-2l3-2 0-1 2 0 2-3 2 0 2-3 2 0 0-1
4-2 11 18-16 11-12-17z m94-4l14-11 14 16-16 13-12-18z m94-3l17-13 11
16-13 12-15-15z m440 4l11-17 7 3-3 24-15-10z m-131-7l13-15 15 14-14
14-14-13z m-213-5l16-12 12 16-16 12-12-16z m96-6l16-14 12 16-15
12-13-14z m-401-4l18-14 12 17-17 13-13-16z m-84 8l-1 0-3-11 14-10 11
18-17 11-4-8z m707-6l11-17 16 14-12 15-15-12z m-529-4l17-15 8 13 1 0 3
5-14 11-15-14z m105 7l-1 0-10-14 17-13 8 13 1 0 3 5-16 12-2-3z
m296-15l14-14 14 14-14 15-14-15z m-212-4l17-14 12 17-16 12-13-15z
m315-6l14-15 14 13-14 16-14-14z m-219-3l17-12 12 16-16 13-13-17z
m-398-4l17-13 12 18-17 12-12-17z m93-4l17-11 12 17-17 11-12-17z m103
8l-1 0-8-12 16-12 13 17-18 11-2-4z m296-13l16-12 13 15-16 13-13-16z
m-211-4l14-10 3 9 1 0 0 3 1 0 1 5 1 0-9 8-12-15z m312-3l15-16 13 16-15
13-13-13z m-216-5l16-13 13 18-17 11-12-16z m-386 7l-1 0 0-2-2-1 0-2-2-1
0-2-1 0-2-4-1 0 16-14 12 18-13 8 0 1-4 2-2-3z m83-16l17-12 2 3 1 0 8
15-4 2 0 1-12 8-12-17z m397-5l16-11 12 16-16 13-12-18z m-294 14l-1
0-8-15 4-2 0-1 12-8 12 16-17 13-2-3z m85-18l17-13 10 17-13 11-14-15z
m308-4l15-12 14 15-17 14-12-17z m-213-3l17-13 3 5 1 0 7 11-16 12-12-15z
m-390-5l-1 0-1-3-1 0 0-2 12-7 0-1 5-2 10 17-17 10-7-12z m98 7l-1 0-8-12
16-14 2 4 1 0 9 14-18 11-1-3z m385-14l16-14 12 15-16 14-12-15z
m-300-2l-1 0 17-14 1 3 1 0 9 15-17 11-10-15z m93-9l17-10 10 16 1 0-17
13-11-19z m305 3l16-14 12 17-15 12-13-15z m-204 3l14-18 7 12-14 12-7-6z
m-385-18l1 0 1-13 3 0 1 3 1 0 0 2 2 1 0 2 2 1 0 2 1 0 0 2 2 1 0 2 1 0-14
9 0 2-2 1 1-15z m471-5l17-11 11 14-16 14-12-17z m-382 17l-7-12-1 0-1-3-1
0 0-2 12-7 0-1 5-2 11 16-14 9 0 1-1 0 0 1-3 0z m82-19l18-12 10 17-13 8 0
1-4 2-11-16z m397-4l17-13 12 15-16 13-13-15z m-303-3l16-11 2 3 1 0 9
14-17 11-11-17z m188-16l-1 0 16-13 11 15-16 14-10-16z m-383 12l-1 0
0-2-2-1 0-2-2-1 0-2-1 0-4-7 19-10 10 18-14 8 0 1-4 1-1-3z m93-3l-1
0-9-16 13-7 0-1 5-2 7 12 1 0 2 5-17 12-1-3z m386-16l15-14 12 17-2 1 0
1-14 10-11-15z m-300 0l-1 0-1-3-1 0 0-2 13-7 0-1 5-2 7 12 1 0 2 5-17
11-8-13z m183-19l16-13 12 14-16 14-12-15z m-380 10l-1 0-8-15 18-9 10 16
1 0 0 1-2 0-1 2-2 0 0 1-2 0-1 2-3 0-1 2-2 0 0 1-2 0 0 1-3 1-1-3z
m90-7l-1 0-6-11 18-11 11 18-19 10-3-6z m386-11l18-13 11 17-16 12-13-16z
m-290 12l-10-15 17-13 2 3 1 0 9 14-15 9 0 1-1 0 0 1-3 0z m-211-36l17-11
10 17-4 2 0 1-14 7-9-16z m91-5l18-9 3 6 1 0 0 2 2 1 0 2 1 0 0 2 2 1 0 2
1 0-18 11-10-18z m400 13l-1 0-8-12 17-12 12 17-4 2 0 1-14 8-2-4z
m-299-4l-1 0 0-2-2-1 0-2-2-1 0-2-1 0 0-2-1 0-1-4 3-1 0-1 2 0 0-1 12-7 7
13 1 0 2 5-17 10-2-4z m272-36l14-9 0-1 1 0 0-1 3 0 10 17-17 11-11-17z
m-381 14l-1 0 0-2-1 0-4-10-1 0-1-4 3-1 0-1 2 0 0-1 9-4 0-1 4-1 9 18-18
10-1-3z m84-18l6-5 21 9 0 2-3 1 0 1-10 6 0 1-4 2-10-17z" horiz-adv-x="1000" />

<glyph glyph-name="arduino" unicode="&#xe835;" d="M265 634c-81 0-147-60-147-134 0-74 66-135 147-135l2 0c44-2 78 10 111 39
29 25 52 60 77 99-22 32-43 62-69 85-35 32-74 46-121 46m279-131c25-39
48-74 77-99 33-29 67-41 111-39l2 0c81 0 147 61 147 135 0 74-66 134-147
134-47 0-86-14-121-46-26-23-47-53-69-85m178-211c-58 0-108 19-152 58-27
23-50 53-71 83-20-30-43-60-70-83-47-42-101-61-165-58-123 1-222 94-222
208 0 114 100 207 223 207 67 0 123-21 173-65 23-21 43-46 61-71 19 25 39
50 62 71 49 44 106 65 173 65 123 0 223-93 223-207 0-114-99-207-222-208-4
0-8 0-13 0m22 153l-43 0 0 40-41 0 0 41 41 0 0 40 43 0 0-40 42 0 0-41-42
0 0-40z m-405 39l-136 0 0 43 136 0 0-43z" horiz-adv-x="1000" />

<glyph glyph-name="lora" unicode="&#xe836;" d="M511 593c-25 0-44-9-57-28-12-16-18-39-18-67 0-28 6-51 18-67 13-18 32-28
57-28 50 0 75 33 75 99 0 26-6 48-18 64-13 18-32 27-57 27m0 70c50 0 91-15
121-44 31-29 46-69 46-121 0-52-15-92-46-121-30-29-71-43-121-43-50 0-90
14-121 43-31 29-46 69-46 121 0 52 15 92 46 121 31 29 71 44 121 44m-3
62c46 0 89-13 125-36l18 25c-41 27-90 42-143 42-50
0-97-14-137-38l18-26c34 21 75 33 119 33m-193 72l24-34c49 31 107 49 169
49 65 0 125-19 175-52l24 34c-57 38-125 60-199 60-71 0-137-21-193-57m193
104c84 0 162-25 227-68l30 42c-73 50-162 78-257 78-92
0-179-27-251-74l30-42c64 40 140 64 221 64m6-631c-46 0-89 13-125
37l-18-26c41-27 90-42 143-42 50 0 98 14 138 39l-18
25c-35-21-76-33-120-33m194-72l-24 34c-50-31-108-49-170-49-65 0-125
19-175 53l-24-35c57-37 125-60 199-60 71 0 138 21 194 57m-194-104c-84
0-162 25-227 68l-30-42c74-50 162-78 257-78 93 0 179 27 251 74l-30
43c-64-41-140-65-221-65" horiz-adv-x="1000" />

<glyph glyph-name="fan" unicode="&#xe838;" d="M888 659c2-4 3-9 6-15 2-6 6-19 11-38 4-20 8-40 10-59 2-20 2-44
0-72-2-28-7-55-14-82-8-26-21-54-39-83-18-30-41-58-69-83-1
0-2-1-3-3-2-1-4-2-8-4-4-2-8-4-11-4-4 0-8 1-13 4-4 3-8 8-11 14-2 3-4 7-6
12-2 5-8 14-16 29-8 15-17 29-26 43-9 14-21 30-35 49-13 18-27 35-41
50-13-19-29-35-48-46-19-10-40-17-63-19-4-102-37-192-101-269-4 1-9 2-16
3-6 1-19 4-38 10-20 5-38 12-57 20-18 8-39 20-62 36-24 16-45 33-64 53-18
20-36 45-53 75-16 31-28 65-36 101-1 1-1 2-1 4-1 2-1 5 0 10 0 4 1 8 2 11
2 4 5 7 10 9 4 3 10 4 18 3 4 0 9-1 16-1 6 0 19-1 39-1 19 0 39 1 58 2 19
2 41 5 66 9 26 4 49 9 71 15-14 33-16 67-6 100-88 55-149 129-184 223 2 3
6 7 10 12 4 5 13 15 28 29 14 13 30 26 46 38 16 12 36 24 62 36 25 13 51
22 77 28 27 7 57 9 92 9 35-1 70-8 106-19 1 0 2-1 4-1 2-1 5-2 8-5 4-2 7-5
9-8 2-3 3-7 3-12
0-6-3-11-7-18-1-2-4-6-7-11-3-4-9-14-18-30-9-15-17-30-25-45-8-16-16-34-25-56-10-22-17-44-23-64
33-3 62-16 87-39 92 50 187 67 287 50l0 0z m-358-210c14 8 23 20 27 36 5
16 3 31-5 45-9 14-21 23-37 28-15 4-30 2-45-6-14-8-23-21-27-36-5-16-3-31
5-45 9-15 21-24 37-28 16-4 31-3 45 6l0 0z" horiz-adv-x="1000" />

<glyph glyph-name="odometer" unicode="&#xe839;" d="M833 833h-666c-46 0-84-37-84-83v-500c0-46 38-83 84-83h666c46 0 84 37 84
83v500c0 46-38 83-84 83z
m-500-291h-41v-42h41v-83h-41v-42h-84v42h-41v83h41v42h-41v83h41v42h84v-42h41v-83z
m250
0h-41v-42h41v-83h-41v-42h-84v42h-41v83h41v42h-41v83h41v42h84v-42h41v-83z
m292-292c0-25-21-42-42-42h-208v584h208c21 0 42-21 42-42v-500z m-167
125h84v42h-84v-42z m0 250h84v42h-84v-42z m84-83h41v83h-41v-83z
m0-125h41v83h-41v-83z m-125 0h41v83h-41v-83z m41 83h84v42h-84v-42z m-41
42h41v83h-41v-83z m-375 83v-83h-84v83h84z m-84-125h84v-83h-84v83z m334
125v-83h-84v83h84z m-84-125h84v-83h-84v83z" horiz-adv-x="1000" />

<glyph glyph-name="share" unicode="&#xe83a;" d="M656 374c17 4 30 10 40 20l12 9
0-268c0-14-5-26-15-36-10-11-22-16-37-16l-521 0c-14 0-26 5-36 16-11 10-16
22-16 36l0 521c0 15 5 27 16 37 10 10 22 15 36 15l216
0c-15-16-29-34-42-52l-174 0 0-521 521 0 0 239z m242 334c12-9 19-22 19-39
0-16-7-30-19-41l-235-194c-9-8-20-12-33-12-7 0-14 1-22 4-9 5-17 11-22
20-5 8-8 18-8 28l0
62c-16-10-29-24-38-42-9-18-14-39-14-61l0-89c0-15-5-27-15-37-10-10-23-15-37-15l-130
0c-15 0-27 5-37 15-10 10-15 22-15 37l0 89c0 56 12 109 37 159 25 50 60 91
104 125 43 33 92 54 145 64l0 84c0 10 3 19 8 27 6 9 13 15 22 20 9 3 16 5
22 5 14 0 25-4 34-12l234-197z m-268-234l235 195-235 196
0-131c-39-1-76-9-112-26-35-17-66-38-91-65-26-27-46-59-61-96-15-36-22-74-22-114l0-89
130 0 0 89c0 47 15 87 44 120 29 32 66 49 112 51l0-130z m-52-260l0
170c4-2 6-4 7-4 3-1 9-3 19-6l0-186-416 0 0 416 91
0c-1-2-4-7-7-13-3-6-5-10-6-13l-52 0 0-364 364 0z" horiz-adv-x="1000" />

<glyph glyph-name="bolt" unicode="&#xe83b;" d="M715 504c31 34 16 62-34 62l-119 0 133 356c16 42 4 48-27
13l-402-449c-31-35-16-63 35-63l119 0-133-346c-16-42-4-47 28-13l400 440z" horiz-adv-x="1000" />

<glyph glyph-name="signal" unicode="&#xe83c;" d="M83 83l0 268 120 0 0-268-120 0z m179 0l0 417 119 0 0-417-119 0z m179 0l0
566 118 0 0-566-118 0z m178 0l0 685 119 0 0-685-119 0z m178 834l120 0
0-834-120 0 0 834z" horiz-adv-x="1000" />

<glyph glyph-name="pending" unicode="&#xe83d;" d="M667 685l-146-145 0-172 146-99 0-19-334 0 0 19 146 99 0 172-146 145 0 23
334 0 0-23z m-35-171c-2-3-4-5-5-8-1-2-2-4-2-5 0-4 2-9 7-16 8-10 17-21
27-33 26-30 46-57 58-80 22-38 33-79 33-123l0-41 0 0c23 0 42-18 42-41l0
0c0-23-19-42-42-42l-500 0c-23 0-42 18-42 42l0-5c0 23 19 44 42 46l0 0 0
41c0 43 11 84 32 123 13 23 33 50 59 80 10 12 19 23 27 33 2 3 4 6 5 9 1 2
2 4 2 5 0 4-2 8-7 15-7 10-16 21-27 34-26 30-46 57-59 80-21 39-32 80-32
123l0 41 0 0c-23 0-42 18-42 41l0 0c0 23 19 42 42 42l500 0c23 0 42-18
42-42l0 0c0-23-19-41-42-41l0 0
0-41c0-43-11-85-33-123-12-23-32-50-58-80-11-13-20-24-27-34z m-41 17c4 10
9 19 15 26 5 7 14 17 25 30 9 10 15 17 19 22 4 5 9 12 16 22 7 10 13 19 18
27 16 30 24 61 24 93l0 41-416 0 0-41c0-32 8-63 24-93 5-8 11-17 18-27
7-10 12-17 16-22 4-5 11-12 19-22 12-13 20-23 25-30 6-7 11-16 15-26 5-11
8-21 8-31
0-8-1-15-4-22-2-7-5-14-11-22-5-8-10-15-14-20-4-5-10-13-19-23-8-10-15-17-19-22-4-5-9-13-16-22-7-10-13-19-18-28-16-29-24-60-24-92l0-41
416 0 0 41c0 32-8 63-24 92-5 9-11 18-18 28-7 9-12 17-16 22-4 5-10 12-19
22-9 10-15 18-19 23-4 5-9 12-14 20-6 8-9 15-11 22-2 7-3 14-3 22 0 10 2
20 7 31z" horiz-adv-x="1000" />

<glyph glyph-name="remote-access" unicode="&#xe83e;" d="M477 269l231 231-231 232-60-65 125-125-459 0 0-84 459 0-125-125 60-64z
m-301 648c-51 0-93-42-93-93l0-199 86 0-2 208 666 0 0-666-666 0 0 208-84
0 0-199c0-51 42-93 93-93l648 0c51 0 93 42 93 93l0 648c0 51-42 93-93
93l-648 0z" horiz-adv-x="1000" />

<glyph glyph-name="community" unicode="&#xe83f;" d="M411 500l-149-149 0 149c-49 0-91 18-126 53-35 35-53 77-53 126l0 59c0 49
18 91 53 126 35 35 77 53 126 53l208 0c49 0 91-18 126-53 35-35 53-77
53-126l0-59c0-49-18-91-53-126-35-35-77-53-126-53l-59 0z m327 149c49 0
91-18 126-53 35-35 53-77
53-126l0-59c0-49-18-92-53-126-34-35-77-53-126-53l0-149-149 149-59 0c-41
0-77 13-108 37-32 25-54 56-64 94l78 78 34 0c61 0 113 20 158 60 45 40 71
89 78 148l32 0z" horiz-adv-x="1000" />

<glyph glyph-name="padlock" unicode="&#xe840;" d="M750 667l-42 0 0 83c0 115-93 208-208 208-115 0-208-93-208-208l0-83-42
0c-46 0-83-38-83-84l0-416c0-46 37-84 83-84l500 0c46 0 83 38 83 84l0
416c0 46-37 84-83 84l0 0z m-250-375c-46 0-83 37-83 83 0 46 37 83 83 83
46 0 83-37 83-83 0-46-37-83-83-83l0 0z m129 375l-258 0 0 83c0 71 58 129
129 129 71 0 129-58 129-129l0-83 0 0z" horiz-adv-x="1000" />

<glyph glyph-name="wifi" unicode="&#xe841;" d="M42 638l83-85c207 213 543 213 750 0l83 85c-253 260-663 260-916 0l0 0z
m333-343l125-128 125 128c-69 71-181 71-250 0l0 0z m-167 172l84-86c115
118 301 118 416 0l84 86c-161 165-422 165-584 0l0 0z" horiz-adv-x="1000" />

<glyph glyph-name="refresh" unicode="&#xe842;" d="M795 794l122 123 0-328-328 0 119 119c-26 27-58 48-94 63-36 15-74 22-114
22-53 0-102-13-147-39-45-26-80-62-107-107-26-45-39-94-39-147 0-53 13-102
39-147 27-45 62-80 107-107 45-26 94-39 147-39 59 0 112 16 161 48 48 32
84 74 107 126l113-48c-32-75-83-135-152-181-69-46-145-69-229-69-56 0-110
11-162 33-51 22-95 52-133 89-37 38-67 82-89 133-22 52-33 106-33 162 0 56
11 110 33 162 22 51 52 96 89 133 38 37 82 67 133 89 52 22 106 33 162 33
57 0 110-11 161-33 51-21 96-51 134-90l0 0z" horiz-adv-x="1000" />

<glyph glyph-name="tools" unicode="&#xe843;" d="M689 462c-27 0-54 5-81 15l-366-366c-18-19-40-28-65-28-26 0-48 9-66 28-19
18-28 40-28 66 0 25 9 47 28 65l366 367c-16 40-19 82-10 126 9 45 29 83 61
115 22 22 47 39 75 50 27 11 56 17 86 17 28 0 55-5 81-15l-143-143 14-118
118-14 143 143c15-40 19-82
10-127-9-44-30-82-62-114-22-22-46-39-74-50-28-11-57-17-87-17l0 0z
m107-119l120-157-103-103-156 121-49 126-41 42 54 54c4-1 10-2 17-3l32-32
126-48z m-510 210l-169 169c-22 22-34 49-34 81 0 31 12 58 34 80 22 23 49
34 80 34 32 0 59-11 81-34l104-104 41-41c-8-39-7-78 3-117l-99-99c-24
18-38 28-41 31l0 0z" horiz-adv-x="1000" />

<glyph glyph-name="joystick" unicode="&#xe844;" d="M500 292l0 0c117 0 208 91 208 208s-91 208-208 208-208-91-208-208 91-208
208-208l0 0z m0-42l0 0c-137 0-250 113-250 250s113 250 250 250 250-112
250-250-112-250-250-250l0 0z m0 417c92 0 167-75
167-167s-75-167-167-167-167 75-167 167 75 167 167 167z m0
250l83-84h-166l83 84z m0-834l-83 84h166l-83-84z m-417 417l84 83v-166l-84
83z m834 0l-84-83v166l84-83z" horiz-adv-x="1000" />

<glyph glyph-name="folder" unicode="&#xe845;" d="M369 774c-7 10-3 18 9 18l370 0c12 0 26-8 32-18l60-90c6-10
2-17-10-17l-370 0c-11 0-25 7-32 17l-59 90z m-286 59l153 0c23 0 52-15
65-34l93-140c12-19 42-34 64-34l417 0c23 0 42-18
42-41l0-376c0-23-19-41-42-41l-750 0c-23 0-42 18-42 41l0 625z" horiz-adv-x="1000" />

<glyph glyph-name="knob" unicode="&#xe846;" d="M795 205c162 163 162 427 0 590-163 162-427 162-590 0-162-163-162-427
0-590 17-16 43-16 59 0 17 17 17 43 0 59-130 131-130 342 0 472 131 130
342 130 472 0 130-130 130-341 0-472-17-16-17-42 0-59 16-16 42-16 59 0l0
0z m-251 499c94-20 164-104 164-204 0-115-93-208-208-208-115 0-208 93-208
208 0 100 70 184 164 204l44 88 44-88z" horiz-adv-x="1000" />

<glyph glyph-name="lcd" unicode="&#xe847;" d="M798 917l-596 0c-65 0-119-54-119-119l0-596c0-65 54-119 119-119l596 0c65
0 119 54 119 119l0 596c0 65-54 119-119 119z m-423-500l0-42-125 0 0 42
125 0z m-125 250l0-292-42 0 0 292 42 0z m208-250l84 0 0-42-84 0 0 42z m0
250l84 0 0-42-84 0 0 42z m84-42l41 0 0-42-41 0 0 42z m0-167l41 0 0-41-41
0 0 41z m-125 167l41 0 0-208-41 0 0 208z m250-208l83 0 0-42-83 0 0 42z
m0 250l83 0 0-42-83 0 0 42z m83-42l42 0 0-208-42 0 0 208z m-125 42l42 0
0-292-42 0 0 292z" horiz-adv-x="1000" />

<glyph glyph-name="rotary-knob" unicode="&#xe848;" d="M500 167l0 0c184 0 333 149 333 333 0 184-149 333-333 333-184
0-333-149-333-333 0-184 149-333 333-333l0 0z m0-84l0 0c-230 0-417
187-417 417 0 230 187 417 417 417 230 0 417-187 417-417
0-230-187-417-417-417l0 0z m44 621c94-20 164-104 164-204
0-115-93-208-208-208-115 0-208 93-208 208 0 100 70 184 164 204l44 88 44-88z" horiz-adv-x="1000" />

<glyph glyph-name="lighting-special" unicode="&#xe849;" d="M705 208c-9-24-32-41-59-41-27 0-50 17-59 41l-379 0 0 42 379 0c9 24 32 42
59 42 27 0 50-18 59-42l87 0 0-42-87 0z m93 709l-596 0c-65
0-119-54-119-119l0-596c0-65 54-119 119-119l596 0c65 0 119 54 119 119l0
596c0 65-54 119-119 119z
m-92-338c-19-19-42-32-69-39-8-2-23-6-46-13-22-7-35-11-38-12-2-1-8-6-20-15l-31
30 117 67c2 1 4 3 5 6 0 2 0 4-1 7-2 3-5 5-8 5-2 0-3-1-5-2l-122-69-30 30
70 121c1 2 1 4 0 7 0 2-2 4-4 5-2 1-3 2-4 2-4 0-7-2-9-5l-67-115-30 30c1 1
3 5 7 10 4 5 6 8 7 10 1 1 2 4 4 10 2 6 4 13 7 21 2 8 4 15 6 23 3 7 5 13
7 19 1 6 2 9 2 10 7 26 20 49 39 68 15 14 31 25 50 32 18 8 37 11 56 11 20
0 39-3 58-11 18-7 34-18 49-32 19-19 32-41 39-67 7-26 7-51
0-77-7-25-20-47-39-67z m-324 47l161-161-96-96-90
0c-1-1-2-2-3-4-1-2-4-4-9-8-4-4-8-8-12-11-4-3-9-6-14-9-6-2-11-4-15-4-15
0-28 6-38 16-11 10-16 23-16 38 0 4 1 9 4 15 2 5 5 10 9 14 3 5 7 9 10 13
4 3 7 6 9 8l4 4 0 89 96 96z" horiz-adv-x="1000" />

<glyph glyph-name="gallery" unicode="&#xe84a;" d="M833 917l-500 0c-20 0-41-17-41-42v-42h-42c-21 0-42-16-42-41v-42h-41c-21
0-42-21-42-42v-541c0-25 21-42 42-42h500c25 0 41 21 41 42v41h42c25 0 42
21 42 42v42h41c25 0 42 21 42 41v542c0 25-21 42-42 42z
m-166-750h-500v541h500v-541z m83 83h-42v458c0 25-20 42-41
42h-417v42h500v-542z m83 83h-41v459c0 25-21 41-42 41l-417 0v42h500v-542z
m-625-83h417v417h-417v-417z" horiz-adv-x="1000" />

<glyph glyph-name="tabs" unicode="&#xe84b;" d="M917 417l0 125c0 23-19 41-42 41l-167 0 0-41 167 0 0-125-167 0 0 125-41 0
0-125-167 0 0 125 167 0 0 41-167 0 0 42c0 23-19 42-42 42l-291 0c-23
0-42-19-42-42l0-208-42 0 0-42 42 0 333 0 42 0 167 0 41 0 209 0 41 0 0
42-41 0z" horiz-adv-x="1000" />

<glyph glyph-name="text" unicode="&#xe84c;" d="M798 917c21 0 41-6 59-16 19-11 33-25 44-44 10-18 16-38
16-59l0-596c0-21-6-41-16-59-11-18-25-33-44-44-18-10-38-16-59-16l-596
0c-21 0-41 6-59 16-18 11-33 26-44 44-10 18-16 38-16 59l0 596c0 21 6 41
16 59 11 19 26 33 44 44 18 10 38 16 59 16l596 0z m-590-709l334 0 0
84-334 0 0-84z m0 167l584 0 0 83-584 0 0-83z m0 167l584 0 0 83-584 0
0-83z m0 166l584 0 0 84-584 0 0-84z" horiz-adv-x="1000" />

<glyph glyph-name="burn" unicode="&#xe84d;" d="M371 84c10-4 21 6 15 13-35 42-90 114-38 206 87 152 252 97 301-6 40-87
4-135-40-198-6-9 5-17 15-13 80 32 198 96 208 225 4 39-2 94-30 163-36
87-80 128-106 146-8 5-20 1-19-7 8-95-38-119-64-65-10 22-16 59-16 105 0
75-28 153-91 217-16 16-35 32-56 45-8 5-19 0-19-8 5-51
1-199-165-375-150-163-91-288-71-322 40-65 122-103 176-126l0 0z m0 0" horiz-adv-x="1000" />

<glyph glyph-name="eat" unicode="&#xe84e;" d="M438 917c-12 0-21-10-21-21v-116-51c0-11-10-21-21-21s-21 10-21 21v63
104c0 11-9 21-21 21s-21-10-21-21v-104-63c0-11-9-21-20-21s-21 10-21 21v51
116c0 11-10 21-21 21s-21-10-21-21v-146-83c0-14 4-27 10-38 13-26 40-45
71-45l-39-438c0-35 28-63 62-63s63 28 63 63l-40 438c32 0 58 19 72 45 6 11
9 24 9 38v83 146c0 11-9 21-20 21z m208 0h-42c-34 0-62-28-62-63v-333c0-27
17-50 41-59v-316c0-35 28-63 63-63s62 28 62 63v375 333c0 35-28 63-62 63z" horiz-adv-x="1000" />

<glyph glyph-name="heart" unicode="&#xe84f;" d="M500 125l-58 57c-217 187-359 314-359 469 0 126 100 224 229 224 71 0
142-33 188-86 46 53 117 86 188 86 129 0 229-98 229-224
0-155-142-282-359-469l-58-57z m0 0" horiz-adv-x="1000" />

<glyph glyph-name="run" unicode="&#xe850;" d="M550 643c11-13 15-18 24-29 11-14 21-29 33-43 11-14 26-19 43-15 38 9 76
19 114 29 24 6 32 16 26 39-5 22-22 25-48 19-26-7-52-13-77-20-7-2-10 0-14
5-18 26-36 51-54 77-12 19-28 30-49 35-31 6-61 14-91 20-10 2-20 2-30
0-44-11-87-22-131-33-17-5-24-19-31-33-12-23-24-47-35-70-7-13-14-26-21-40-9-21
4-38 21-42 23-4 35 20 46 39 12 22 35 68 39 76 4 8 27 13 34 14 21 5 50 13
72 19 0-4-33-110-51-168-6-18-11-36-4-55 8-23 26-34 46-43 47-21 94-42
140-63 6-3 9-7 8-14 0-57 0-116 0-175 0-25 14-45 37-47 24-2 39 17 41 41 3
46 5 93 8 139 2 24 3 48 4 72 2 26-8 42-31 52-35 16-69 32-104 48-7 3-8
8-6 15 9 30 39 146 41 151z
m-181-211c-7-24-16-47-22-71-3-9-5-14-14-18-46-19-90-35-139-51-19-7-31-32-26-50
4-17 22-34 51-24 35 11 145 41 167 48 17 5 28 16 33 34 9 27 18 54 27 80 2
8-1 10-6 12-14 6-29 11-42 18-10 6-19 14-29 22z m92 388c10-41 54-67 94-56
40 10 66 54 56 94-10 40-54 67-94 57-40-11-67-55-56-95z" horiz-adv-x="1000" />

<glyph glyph-name="sleep" unicode="&#xe851;" d="M375 563c0-35-28-63-62-63s-63 28-63 63 28 62 63 62 62-28 62-62z m479
104c-34 0-62-28-62-63v-146h-584v271c0 35-28 63-62
63s-63-28-63-63v-458c0-35 28-63 63-63s62 28 62 63v62h584v-62c0-35 28-63
62-63s63 28 63 63v333c0 35-28 63-63 63z m-104-104c0 34-28 62-62
62h-209c-34 0-62-28-62-62v0c0-35 28-63 62-63h209c34 0 62 28 62 63l0 0z" horiz-adv-x="1000" />

<glyph glyph-name="steps" unicode="&#xe852;" d="M407 539c-3 51-15 149-48 218-75 155-160 174-210 152-51-22-138-183 45-459
6-10 17-16 29-9 43 29 115 59 163 65 18 2 22 12 21 33z m8-62l-178-93c0 0
25-62 49-105 37-71 97-102 157-70 71 38 67 96 29 168-23 43-57 100-57 100z
m428-75c14 1 18 13 16 24-55 324-231 388-284 372-52-16-103-86-51-249
23-73 82-154 115-194 14-16 24-20 38-11 40 27 115 51 166 58z m66-161c-13
46-37 109-37 109l-196-46c0 0 15-64 27-111 21-78 58-123 138-106 67 15 89
76 68 154z" horiz-adv-x="1000" />

<glyph glyph-name="scale" unicode="&#xe853;" d="M798 917l-596 0c-65 0-119-54-119-119l0-596c0-65 54-119 119-119l596 0c65
0 119 54 119 119l0 596c0 65-54 119-119 119z m-136-417l-324 0-130 162c0 0
98 130 292 130 194 0 292-130 292-130l-130-162z m-77 42l44 194-128-194 84 0z" horiz-adv-x="1000" />

<glyph glyph-name="accelerometer" unicode="&#xe854;" d="M208 458l584 0 0 84-584 0 0-84z m750 42l-166 83 0-166 166 83z m-916
0l166-83 0 166-166-83z m416-292l84 0 0 584-84 0 0-584z m42 750l-83-166
166 0-83 166z m-83-750l83-166 83 166-166 0z m-153 115l59-59 413 413-59
59-413-413z m560 501l-177-59 118-118 59 177z m-589-471l-59-177 177
59-118 118z" horiz-adv-x="1000" />

<glyph glyph-name="bug" unicode="&#xe855;" d="M833 667l-117 0c-18 32-44 60-76 81l68 68-58 59-91-90c-19 4-39 7-59 7-20
0-40-3-59-7l-91 90-58-59 67-68c-31-21-56-49-75-81l-117 0 0-84 87
0c-2-13-4-27-4-41l0-42-83 0 0-83 83 0 0-42c0-14 2-28 4-42l-87 0 0-83 117
0c43-75 124-125 216-125 93 0 173 50 216 125l117 0 0 83-87 0c2 14 4 28 4
42l0 42 83 0 0 83-83 0 0 42c0 14-2 28-4 41l87 0 0 84 0 0z m-250-334l-166
0 0 84 166 0 0-84 0 0z m0 167l-166 0 0 83 166 0 0-83 0 0z" horiz-adv-x="1000" />

<glyph glyph-name="car" unicode="&#xe856;" d="M788 791c-8 25-31 42-59 42l-458 0c-28 0-51-17-59-42l-87-249 0-334c0-23
19-41 42-41l41 0c23 0 42 18 42 41l0 42 500 0 0-42c0-23 19-41 42-41l41
0c23 0 42 18 42 41l0 334-87 249 0 0z m-517-416c-35 0-63 28-63 63 0 34 28
62 63 62 34 0 62-28 62-62 0-35-28-63-62-63l0 0z m458 0c-34 0-62 28-62 63
0 34 28 62 62 62 35 0 63-28 63-62 0-35-28-63-63-63l0 0z m-521 208l63 188
458 0 63-188-584 0 0 0z" horiz-adv-x="1000" />

<glyph glyph-name="distance" unicode="&#xe857;" d="M667 375l29 0c7 0 12 6 12 12 0 1 0 224 0 224 0 7-5 12-12 14l-29 0 0
41c-8 69-64 126-125 126l-333 0c-69 0-126-57-126-126l0-333c0-69 57-126
126-125l440 0c6-1 18 7 18 16l0 68 250 0 0-64c1-7 6-12 13-12l16 0c7 0 12
5 12 12l0 105-291 0 0 42z m-292-42c-92 0-167 75-167 167 0 92 75 167 167
167 92 0 167-75 167-167 0-92-75-167-167-167l0 0z m0 292c-69
0-125-56-125-125 0-69 56-125 125-125 69 0 125 56 125 125 0 69-56 125-125
125l0 0z" horiz-adv-x="1000" />

<glyph glyph-name="door" unicode="&#xe858;" d="M500 144l166-61 42 0 0 750-208-56 0-633z m30 274c-7 0-12 10-12 23 0 12 5
22 12 22 7 0 12-10 12-22 0-13-5-23-12-23l0 0z m-322 125l42 33 0 299 500
0 0-792c0 0 42 1 42 1l0 791c0 23-19 42-42 42l-500 0c-23
0-42-19-42-42l0-332z m227 140c0-36-29-66-66-66-36 0-66 30-66 66 0 37 30
67 66 67 37 0 66-30 66-67l0 0 0 0 0 0z m1-224c0 0-29 62-44 96-14 33-25
41-45 41l-31 0c-16 0-22-6-32-12l-84-72c-7-4-12-10-15-19l-18-122c-2-20
8-28 20-31 9-2 23 3 26 17 2 11 19 111 19 111l55
42c-9-42-19-88-22-104-5-27 9-48 19-64 10-14 126-211 142-233 17-21 32-32
54-19 19 11 16 35 6 53-11 19-128 224-128 224l21 92c0 0 14-21 21-33 4-6
48-45 65-53 15-7 33-10 41 4 8 13-2 29-13 35-13 5-57 47-57 47l0 0z
m-175-115l-33-105c0 0-52-78-67-99-11-17-19-36-1-51 22-16 39 5 50 18 10
11 51 69 62 84 8 9 12 18 15 26 2 6 18 36 24 51l-50 76 0 0z" horiz-adv-x="1000" />

<glyph glyph-name="parking" unicode="&#xe859;" d="M798 917l-596 0c-65 0-119-54-119-119l0-596c0-65 54-119 119-119l596 0c65
0 119 54 119 119l0 596c0 65-54 119-119 119z m-261-512l-75 0 0-132-92 0 0
454 167 0c107 0 161-53 161-158 0-53-14-93-41-121-27-29-67-43-120-43z
m-74 79l74 0c45 0 68 28 68 85 0 28-5 48-16 61-11 12-29 18-52 18l-74 0 0-164z" horiz-adv-x="1000" />

<glyph glyph-name="smoke" unicode="&#xe85a;" d="M882 917l-764 0c-23 0-38-19-34-41l26-126c4-23 27-42 50-42l7 0 2 0
26-125c4-23 27-41 51-41l508 0c24 0 47 18 51 41l26 125 2 0 7 0c23 0 46 19
50 42l26 126c5 22-11 41-34 41l0 0z m-32-159c-1-4-7-8-10-8l-7 0-2 0-34
0-594 0-34 0-2 0-7 0c-3 0-9 5-9 8l-24 117 747 0-24-117z m-70-91l-72 0
0-42 63 0-6-34c-1-3-7-8-11-8l-508 0c-4 0-10 5-10 8l-7 34 63 0 0 42-72
0-8 41 576 0-8-41z m-197-42l84 0 0 42-84 0 0-42z m-125 0l84 0 0 42-84 0
0-42z m-125 0l84 0 0 42-84 0 0-42z m118-542l32 34c-53 57-53 149 0 205 18
19 27 42 27 68 0 26-9 50-27 68l-32-34c8-8 13-20 13-33
0-13-5-24-13-33-72-76-72-200 0-275z m39 144c0-22 9-44 27-60l32 30c-8
8-13 18-13 30 0 11 5 21 13 29 71 67 71 177 0 244l-32-30c53-51 53-132
0-183-18-14-27-36-27-60z" horiz-adv-x="1000" />

<glyph glyph-name="avnet" unicode="&#xe85b;" d="M256 792l-8-18 391 0-8 18-375 0z m-21-44l-8-18 433 0-8 18-417 0z
m-20-44l-9-18 475 0-9 18-457 0z m-29-62l515 0-8 17-499 0-8-17z
m-13-27l-8-18 21 0 6-13 282 0-6 13 254 0 7-13 215 0 14 31-785 0z
m-20-44l-9-18 63 0 6-14 282 1-6 13 254 0 6-14 174 0 15 32-785 0z
m-29-62l103 0 7-14 282 0-6 14 253 0 7-14 132 0 15 32-785 0-8-18z
m-20-44l144 0 6-14 282 0-6 14 254 0 6-14 91 0 15 32-785 0-7-18z
m-13-26l-8-18 185 0 7-14 282 0-6 14 253 0 7-13 51 0 14 31-785 0z
m-21-44l-8-18 227 0 6-14 283 0-7 14 254 0 6-13 10 0 14 31-785 0z
m-20-44l-8-17 267 0 7-15 504 0 15 32-785 0z m272-44l15-32 462 0 15
32-492 0z m21-45l14-31 421 0 15 31-450 0z m35-75l380 0 15 31-410 0 15-31z" horiz-adv-x="1000" />

<glyph glyph-name="wave-top" unicode="&#xe85c;" d="M917 724c-278 234-556-233-834 0l0 84c278-234 556 233 834 0l0-84z
m0-166c-278 233-556-234-834 0l0 83c278-233 556 233 834 0l0-83z" horiz-adv-x="1000" />

<glyph glyph-name="wave-bottom" unicode="&#xe85d;" d="M917 224c-278 234-556-233-834 0l0 84c278-234 556 233 834 0l0-84z m0
167c-278 233-556-233-834 0l0 83c278-233 556 234 834 0l0-83z" horiz-adv-x="1000" />

<glyph glyph-name="video" unicode="&#xe85e;" d="M708 563l0 145c0 23-18 42-41 42l-500 0c-23 0-42-19-42-42l0-416c0-23
19-42 42-42l500 0c23 0 41 19 41 42l0 146 167-167 0 458-167-166 0 0z" horiz-adv-x="1000" />

<glyph glyph-name="wave" unicode="&#xe85f;" d="M917 224c-278 234-556-233-834 0l0 84c278-234 556 233 834 0l0-84z m0
167c-278 233-556-233-834 0l0 83c278-233 556 234 834 0l0-83z m0 333c-278
234-556-233-834 0l0 84c278-234 556 233 834 0l0-84z m0-166c-278
233-556-234-834 0l0 83c278-233 556 233 834 0l0-83z" horiz-adv-x="1000" />

<glyph glyph-name="adjustmensts" unicode="&#xe860;" d="M83 292l0-84 250 0 0 84-250 0 0 0z m0 500l0-84 417 0 0 84-417 0 0 0z
m417-584l417 0 0 84-417 0 0 83-83 0 0-250 83 0 0 83z m-250 417l0-83-167
0 0-84 167 0 0-83 83 0 0 250-83 0 0 0z m667-167l0 84-500 0 0-84 416 0 84
0z m-250 167l0 83 250 0 0 84-250 0 0 83-84 0 0-250 84 0z" horiz-adv-x="1000" />

<glyph glyph-name="camera" unicode="&#xe861;" d="M806 750c30 1 56-10 78-33 22-22 33-49
33-81l0-354c0-32-11-59-33-81-22-23-48-34-78-34l-612 0c-30 0-56 11-78
34-22 22-33 49-33 81l0 354c0 32 11 59 33 81 22 23 48 34 78 33l98 0c0 0
37 57 52 67 15 11 30 16 45 16l222 0c15 0 30-5 45-16 15-10 52-67 52-67l98
0z m-306-500c57 0 106 20 147 61 41 41 61 90 61 147 0 58-20 107-61 148-41
40-90 61-147 61-57 0-106-21-147-61-41-41-61-90-61-148 0-57 20-106 61-147
41-41 90-61 147-61z m0 375c46 0 85-16 118-49 32-32 49-72 49-118
0-46-17-85-49-117-33-33-72-49-118-49-46 0-85 16-118 49-32 32-49 71-49
117 0 46 17 86 49 118 33 33 72 49 118 49z" horiz-adv-x="1000" />

<glyph glyph-name="person" unicode="&#xe862;" d="M622 796c0-44-35-79-79-79-44 0-79 35-79 79 0 44 35 79 79 79 44 0 79-35
79-79l0 0 0 0 0 0z m1-267c0 0-35 74-53 115-17 38-29 48-53 48l-37 0c-20
0-27-7-39-14l-101-85c-8-5-14-13-17-24l-22-145c-3-23 9-33 23-35 11-3 28 3
31 19 3 14 23 132 23 132l66 51c-11-51-22-106-25-125-7-32 9-56 22-75
11-17 151-252 170-277 20-25 38-38 65-23 23 13 19 42 7 64-13 21-154
265-154 265l25 109c0 0 18-25 27-39 4-7 56-54 77-63 18-8 40-11 49 5 9
16-2 35-16 41-15 7-68 56-68 56l0 0z m-210-136l-39-125c0
0-63-92-81-118-13-19-23-43-1-60 26-19 46 6 59 21 12 14 62 82 75 100 10
11 15 21 19 31 2 7 21 43 28 60l-60 91 0 0z" horiz-adv-x="1000" />

<glyph glyph-name="frequency" unicode="&#xe863;" d="M604 83l-187 584-104-250-208 0c-12 0-22 9-22 21l0 41c0 12 9 21 21 21l146
0 167 417 187-584 84 167 208 0c11 0 21-9 21-21l0-41c0-12-9-21-21-21l-146
0-146-334z" horiz-adv-x="1000" />

<glyph glyph-name="pin" unicode="&#xe864;" d="M460 106c0 0-252 319-252 494 0 175 131 317 292 317 161 0 292-142 292-317
0-175-252-495-252-495-22-29-58-29-80 1z" horiz-adv-x="1000" />

<glyph glyph-name="plug" unicode="&#xe865;" d="M318 630l-32-188-93-93 46-47-156-156 63-63 156 156 47-46 93 93 188 32
109 109-312 312-109-109z m530-125l-47 46 109 110c9 8 9 22 0 31l-31 31c-9
9-23 9-31 0l-109-109-125 125 109 109c9 8 9 22 0 31l-31 31c-9 9-23 9-31
0l-110-109 0 0-46 47c-9 8-23 8-32 0l-31-31c-8-9-8-23 0-32l16-15 312-312
15-16c9-8 23-8 32 0l31 31c8 9 8 23 0 32z" horiz-adv-x="1000" />

<glyph glyph-name="gyroscope" unicode="&#xe866;" d="M690 177c65 40 70 122 38 225-22-18-47-35-74-52 13-53
12-91-8-103-20-11-54 7-93 44-10 10-20 20-30 32-17 20-35 42-52 68-8 11-16
23-23 35-7 10-14 21-20 32-7 12-13 23-18 34-7 12-14 25-19 37-13 28-24
55-33 79-5 15-9 29-12 42-13 53-12 91 8 103 20 11 54-7 93-44 29 14 56 27
82 38-73 79-148 116-215 79 55 31 118 49 186 49 138 0 258-74 323-185-40
65-122 71-224
38-14-4-28-9-42-15-26-10-52-22-80-36-12-6-25-13-38-20-7-4-15-8-22-13-8-4-15-8-23-13
8-23 18-49 32-78 10 6 21 13 32 19 12 7 23 13 34 19 12 6 25 13 37 18 28
14 55 25 79 33 15 5 29 9 42 12 53 13 91 12 103-8
11-20-7-54-45-94-9-9-19-19-31-29-20-17-42-35-68-52-11-8-23-16-35-23-10-7-21-14-32-20-11-7-23-13-34-18
19-27 37-49 53-67 7 4 15 8 22 13 8 4 15 9 23 13 12 7 24 15 36 23 26 17
50 34 71 51 12 9 23 19 34 28 79 73 116 148 79 215 31-55 49-118 49-186
0-138-74-258-185-323m-513 133c40-65 122-70 224-38-17 22-34 47-51
74-53-13-91-12-103 8-11 20 7 54 45 94-15 28-28 55-39
81-79-73-116-147-79-214-31 54-49 118-49 185 0 138 74 258 185
323-65-40-70-122-38-224 4-14 9-28 15-42 10-26 22-52 36-80 6-12 13-25
20-38 4-7 8-15 13-22 4-8 8-15 13-22 7-13 15-25 23-37 16-26 34-50 51-71
9-12 19-23 29-34 72-79 147-116 214-79-55-31-118-49-186-49-138 0-258
74-323 185m323 648c-253 0-458-205-458-458 0-253 205-458 458-458 253 0
458 205 458 458 0 253-205 458-458 458m91-450c26 19 48 37 66 53-4 7-8
15-13 22-4 8-8 15-13 22-23-7-50-17-79-31 7-10 14-21 20-32 7-11 13-23 19-34" horiz-adv-x="1000" />

<glyph glyph-name="magnetometer" unicode="&#xe867;" d="M749 500l50 50 75-75-50-50-75 75z m-249 250l-75 74 50 50 75-75-50-49z
m-299-549c-110 110-110 289 0 399l199 199 75-74-192-192c-69-69-69-181
0-250 33-33 78-51 125-51 47 0 91 18 124 51l193 192
74-74-199-200c-53-53-124-82-200-82-75 0-146 29-199 82l0 0z m740 316l-100
100c-11 11-26 17-42 17-15 0-31-6-42-17l-279-279c-19-19-44-29-70-29-27
0-52 10-70 29-39 38-39 101 0 140l279 279c11 12 17 27 17 42 0 16-6 31-17
42l-100 100c-11 11-26 17-42 17-16 0-30-6-42-17l-286-287c-140-140-140-367
0-507 67-68 158-105 254-105 95 0 186 37 253 105l287 286c11 11 17 27 17
42 0 16-6 31-17 42l0 0z" horiz-adv-x="1000" />

<glyph glyph-name="dashboards" unicode="&#xe868;" d="M375 500l583 0 0 250c0 46-37 83-83 83l-500 0 0-333z m-42-333l0 666-208
0c-46 0-83-37-83-83l0-526c0-32 26-57 57-57l234 0z m542 0c46 0 83 37 83
83l0 208-291 0 0-291 208 0z m-500 0l250 0 0 291-250 0 0-291z" horiz-adv-x="1000" />

<glyph glyph-name="hand" unicode="&#xe869;" d="M833 337c0-44-15-83-48-116-141-144-372 48-415 87 25 31 53 23 154-34 5-3
9-3 12 2 4 4 2 9-2 13l-316 324c-13 12-13 33 0 46 12 13 33 13 45
0l219-224 15 16-219 223-30 31c-13 13-13 34 0 46 12 13 33 13 45 0l30-31
196-200 23-23 15 15-23 23-196 201c-12 13-12 33 0 46 13 13 33 13 46
0l60-62 136-138 22-23 15 15-22 23-136 139c-12 13-12 33 0 46 13 13 33 13
45 0l151-154 45-46 8-8c1-1 123-118 125-237" horiz-adv-x="1000" />

<glyph glyph-name="base-station" unicode="&#xe86a;" d="M261 135l-16-30c-11-20-36-28-56-17-21 11-28 37-17 57l250 465c-28 23-47
59-47 98 0 69 56 125 125 125 69 0 125-56 125-125 0-39-18-75-47-98l45-84
205-381c11-20 4-46-17-57-20-11-45-3-56 17l-16 30-239 112-239-112z m32
59l64 119 96-44-160-75z m350 119l64-119-160 75 96 44z m-19 36l-8 14-116
85-116-85-8-14 124-58 124 58z m-52 96l-21 40-17-12 38-28z m-103 75l34
63c-1 0-2 0-3 0-1 0-2 0-2 0l34-63-32-23-31 23z m-20-35l-21-40 38 28-17
12z m198 120l26-17c26 38 42 84 42 132 0 47-14 90-39 127l-26-16c21-33
34-70 34-111 0-42-14-82-37-115z m109 294l-34-22c30-46 48-99 48-157
0-59-19-115-52-161l34-23c38 53 60 116 60 184 0 66-21 127-56 179z
m104-179c0-77-26-149-69-209l43-28c49 68 78 149 78 237 0 86-28 165-74
232l-43-28c41-59 65-129 65-204z m-548-5c0 42 13 82 36 115l-25
17c-27-38-43-84-43-132 0-47 15-90 39-127l26 16c-21 33-33 70-33 111z
m-73-179l35 22c-31 46-49 99-49 157 0 59 19 115 52 161l-34
23c-38-53-60-116-60-184 0-66 21-127 56-179z m-104 179c0 77 26 149 69
209l-43 28c-49-68-78-150-78-237 0-86 28-165 75-232l42 28c-41 59-65
129-65 204z" horiz-adv-x="1000" />

<glyph glyph-name="bluetooth" unicode="&#xe86b;" d="M750 679l-243 238-43 0 0-317-196 192-60-59 239-233-239-233 60-59 196 192
0-317 43 0 243 238-183 179 183 179 0 0z m-201 78l80-78-80-79 0 157 0 0z
m80-436l-80-78 0 157 80-79 0 0z" horiz-adv-x="1000" />

<glyph glyph-name="usb" unicode="&#xe86c;" d="M627 681l0-157 41 0 0-79-123 0 0 314 82 0-123 158-123-158 82 0 0-314-123
0 0 81c29 15 49 43 49 76 0 48-41 87-90 87-50 0-91-39-91-87 0-33 21-61
50-76l0-81c0-44 36-79 82-79l123 0 0-119c-29-15-49-44-49-77 0-48 40-87
90-87 50 0 91 39 91 87 0 33-21 62-50 77l0 119 123 0c46 0 83 35 83 79l0
79 41 0 0 157-165 0 0 0z" horiz-adv-x="1000" />

<glyph glyph-name="cayenne" unicode="&#xe86d;" d="M445 499c0 52 42 94 94 94 52 0 94-42 94-94 0-52-42-94-94-94-52 0-94
42-94 94m-362 1c0 253 204 458 453 458 136 0 264-61 351-169 46-57
38-141-18-187-57-46-139-38-185 19-38 46-90 72-148 72-105
0-190-87-190-193 0-106 85-193 190-193 58 0 110 26 148 72 46 57 128 66
185 19 56-46 64-130 18-187-87-107-215-169-351-169-250 0-453 205-453 458" horiz-adv-x="1000" />

<glyph glyph-name="co2" unicode="&#xe86e;" d="M782 333l-107 0 0 30 36 35c12 13 21 23 26 30 5 7 7 14 7 22 0 8-2 13-6
16-4 3-10 5-17 5-11 0-24-1-37-3l-6-1-2 27c17 5 34 7 51 7 35 0 53-15
53-47 0-12-3-23-8-32-6-9-15-20-29-33l-29-26 68 0 0-30z m-161
69c-16-21-43-31-82-31-38 0-66 10-82 31-15 21-23 54-23 99 0 45 8 79 23
101 16 22 44 33 82 33 39 0 66-11 82-33 16-22 24-56 24-101
0-45-8-78-24-99l0 0z m-326 31c7-11 20-17 41-17 21 0 43 2 66
6l1-43c-27-6-51-8-72-8-21 0-38 2-51 7-12 6-22 14-30 26-7 11-12 25-15
40-3 16-4 35-4 59 0 49 7 83 21 103 14 19 39 29 77 29 21 0 46-4
74-11l-1-41c-25 4-46 6-62 6-16
0-28-2-35-7-7-4-12-12-16-25-3-12-5-33-5-62 0-30 4-50 11-62l0 0z m663
67c0 62-34 116-84 145 1 7 1 14 1 22 0 138-112 250-250 250-73
0-138-31-184-81-29 24-67 39-108 39-92 0-166-75-166-167 0-5 0-11
1-17-74-32-126-105-126-191 0-89 56-165 135-195 30-104 126-180 240-180 73
0 138 31 184 81 29-24 66-39 107-39 92 0 167 74 167 166 0 8 0 15-1 22 50
29 84 83 84 145l0 0z m-419 90c-20 0-33-7-41-21-7-14-11-37-11-68 0-31
4-53 11-66 7-13 21-19 41-19 21 0 34 6 42 19 7 13 11 35 11 66 0 31-4
54-11 68-8 14-22 21-42 21" horiz-adv-x="1000" />

<glyph glyph-name="data-stream" unicode="&#xe86f;" d="M375 167l167 666 83 0-167-666-83 0z m-25 141l-192 192 192 192-58
58-250-250 250-250 58 58z m300 0l192 192-192 192 58 58
250-250-250-250-58 58 0 0z" horiz-adv-x="1000" />

<glyph glyph-name="gateway" unicode="&#xe870;" d="M708 458l0 167-83 0 0-167-458 0c-46 0-84-37-84-83l0-167c0-46 38-83
83-83l668 0c46 0 83 37 83 83l0 167c0 46-38 83-84 83l-125 0z m-166-208l0
83 83 0 0-83-83 0z m-167 0l0 83 83 0 0-83-83 0z m-167 0l0 83 84 0
0-83-84 0z m652 491l37 37c-65 65-149 97-232 97-83
0-167-32-231-97l37-37c55 51 125 78 194 78 70 0 139-27 195-78z
m-42-37c-42 41-97 65-153 65-55 0-111-24-153-65l37-37c33 32 74 46 116 46
42 0 83-14 116-46l37 37 0 0z" horiz-adv-x="1000" />

<glyph glyph-name="swap" unicode="&#xe871;" d="M667 291l0 292-84 0 0-292-125 0 167-166 167 166-125 0 0 0z m-292
584l-167-166 125 0 0-292 84 0 0 292 125 0-167 166 0 0z" horiz-adv-x="1000" />

<glyph glyph-name="loriot" unicode="&#xe872;" d="M250 625l83 0 0-125-83 0 0 125z m125 0l83 0 0-125-83 0 0 125z
m-125-250l83 0 0-125-83 0 0 125z m292 458l83 0 0-125-83 0 0 125z
m250-166l83 0 0-125-83 0 0 125z m41-375l84 0 0-125-84 0 0 125z m-166
208l83 0 0-125-83 0 0 125z m-584-42l84 0 0-125-84 0 0 125z" horiz-adv-x="1000" />

<glyph glyph-name="smoke-detector-base" unicode="&#xe873;" d="M882 667l-764 0c-23 0-38-19-34-41l26-126c4-23 27-42 50-42l7 0 2 0
26-125c4-23 27-41 51-41l508 0c24 0 47 18 51 41l26 125 2 0 7 0c23 0 46 19
50 42l26 126c5 22-11 41-34 41l0 0z m-32-159c-1-4-7-8-10-8l-7 0-2 0-34
0-594 0-34 0-2 0-7 0c-3 0-9 5-9 8l-24 117 747 0-24-117z m-70-91l-72 0
0-42 63 0-6-34c-1-3-7-8-11-8l-508 0c-4 0-10 5-10 8l-7 34 63 0 0 42-72
0-8 41 576 0-8-41z m-197-42l84 0 0 42-84 0 0-42z m-125 0l84 0 0 42-84 0
0-42z m-125 0l84 0 0 42-84 0 0-42z" horiz-adv-x="1000" />

<glyph glyph-name="acceleration" unicode="&#xe874;" d="M667 750l0-125-84 0 0-250 84 0 0-125 250 250-250 250z m-292-375l167 0 0
250-167 0 0-250z m-292 0l84 0 0 250-84 0 0-250z m125 0l125 0 0 250-125 0
0-250z" horiz-adv-x="1000" />

<glyph glyph-name="gravity" unicode="&#xe875;" d="M792 625l-167-125 167-125 0 250z m0-83l0-84 166 0 0 84-166 0z
m-584-167l167 125-167 125 0-250z m0 83l0 84-166 0 0-84 166 0z
m417-250l-125 167-125-167 250 0z m-83 0l-84 0 0-166 84 0 0 166z m-167
584l125-167 125 167-250 0z m83 0l84 0 0 166-84 0 0-166z m42-417c69 0 125
56 125 125 0 69-56 125-125 125-69 0-125-56-125-125 0-69 56-125 125-125z" horiz-adv-x="1000" />

<glyph glyph-name="rotation" unicode="&#xe876;" d="M704 313l59-58c37 48 60 104 67 162l-84 0c-6-37-20-72-42-104l0 0z
m-162-100l0-85c58 7 114 30 162 67l-60 60c-31-22-66-37-102-42l0 0z m288
287c-7 58-30 114-67 162l-59-59c22-31 36-67 42-103l84 0z m-182 227l-190
190 0-128c-164-21-291-161-291-331 0-170 127-310 291-330l0 84c-118 20-208
123-208 246 0 124 90 227 208 247l0-163 190 185z" horiz-adv-x="1000" />

<glyph glyph-name="box" unicode="&#xe877;" d="M532 165l321 175 0 318-321-116 0-377z m-32 433l350 127-350 128-350-128
350-127z m417
126l0-384c0-12-3-23-9-33-6-10-14-18-25-23l-352-193c-10-5-20-8-31-8-11
0-21 3-30 8l-353 193c-10 5-19 13-25 23-6 10-9 21-9 33l0 384c0 14 4 26 12
37 8 11 18 19 30 24l353 128c7 2 15 4 22 4 7 0 15-2 22-4l353-128c12-5
23-13 30-24 8-11 12-23 12-37l0 0z" horiz-adv-x="1000" />

<glyph glyph-name="mic" unicode="&#xe878;" d="M500 333c92 0 167 75 167 167l0 292c0 91-75 166-167 166-92
0-167-75-167-166l0-292c0-92 75-167 167-167z m250 292c-23
0-42-19-42-42l0-83c0-115-93-208-208-208-115 0-208 93-208 208l0 83c0
23-19 42-42 42-23 0-42-19-42-42l0-83c0-147 109-268 250-288l0-87-41 0c-23
0-42-19-42-42 0-23 19-41 42-41l166 0c23 0 42 18 42 41 0 23-19 42-42
42l-41 0 0 87c141 20 250 141 250 288l0 83c0 23-19 42-42 42z" horiz-adv-x="1000" />

<glyph glyph-name="tank" unicode="&#xe879;" d="M759 800c-58 12-117 23-177 29 1 1 1 3 1 4l0 42c0 23-18 42-41 42l-84
0c-23 0-41-19-41-42l0-42c0-1 0-3
1-4-60-6-119-17-177-29-42-9-74-49-74-92l0-500c0-42 32-83 74-91 85-18
172-34 259-34 87 0 174 16 259 34 42 8 74 49 74 91l0 500c0 43-32 83-74
92z m33-592c0-22-19-46-41-51-83-16-167-32-251-32-84 0-168 16-250 32-23
5-42 29-42 51l0 500c0 23 19 46 42 51 82 17 166 33 250 33 84 0 168-16
251-33 22-5 41-28 41-51l0-500z m-63 318c-151 33-307 33-458
0-12-3-21-15-21-26l0-283c0-11 9-23 21-25 151-34 307-34 458 0 12 2 21 14
21 25l0 283c0 11-9 23-21 26z" horiz-adv-x="1000" />

<glyph glyph-name="tank-alt" unicode="&#xe87a;" d="M811 792l-21 0-207 0 0 41c-1 23-20 42-41 42l-84 0c-24
0-43-19-41-42l0-41-210 0-22 0-12-17c-119-165-119-385 0-549l12-18 22 0 43
0 0-75c-2-4 3-8 9-8l41 0c6 0 12 3 14 7l40 76 292 0 36-76c2-4 8-7 14-7l42
0c6 0 10 4 12 8l0 75 40 0 21 0 13 18c119 164 119 384 0 549l-13 17z
m-19-542l-584 0 0 500 584 0 0-500z m-542 42l500 0 0 166-500 0 0-166z" horiz-adv-x="1000" />

<glyph glyph-name="gauge-arc" unicode="&#xe87b;" d="M907 250c-28 0-50 22-50 50 0 193-160 350-357 350-197 0-356-157-356-350
0-28-23-50-51-50-28 0-51 22-51 50 0 248 205 450 458 450 253 0 458-202
458-450 0-28-22-50-51-50" horiz-adv-x="1000" />

<glyph glyph-name="gauge-needle" unicode="&#xe87c;" d="M500 42l0 0c-46 0-83 37-83 83l83 833 83-833c0-46-37-83-83-83" horiz-adv-x="1000" />

<glyph glyph-name="emoji" unicode="&#xe87d;" d="M500 917c-230 0-417-187-417-417 0-230 187-417 417-417 230 0 417 187 417
417 0 230-187 417-417 417z m0-750c-184 0-333 149-333 333 0 184 149 333
333 333 184 0 333-149 333-333 0-184-149-333-333-333z m146 375c34 0 62 28
62 62 0 35-28 63-62 63-35 0-63-28-63-63 0-34 28-62 63-62z m-292 0c35 0
63 28 63 62 0 35-28 63-63 63-34 0-62-28-62-63 0-34 28-62 62-62z
m146-271c97 0 180 61 213 146l-426 0c33-85 116-146 213-146z" horiz-adv-x="1000" />
</font>
</defs>
</svg>
