<svg
  version="1.1"
  xmlns="http://www.w3.org/2000/svg"
  viewBox="0 0 32 32">
  <path d="M16 2.656c1.792 0 3.52 0.352 5.184 1.056 1.632 0.704 3.072 1.664 4.256 2.848s2.144 2.624 2.848 4.256c0.704 1.664 1.056 3.392 1.056 5.184s-0.352 3.52-1.056 5.184c-0.704 1.632-1.664 3.040-2.848 4.256-1.184 1.184-2.624 2.144-4.256 2.848-1.664 0.704-3.392 1.056-5.184 1.056s-3.52-0.352-5.184-1.056c-1.632-0.704-3.040-1.664-4.256-2.848-1.184-1.216-2.144-2.624-2.848-4.256-0.704-1.664-1.056-3.392-1.056-5.184s0.352-3.52 1.056-5.184c0.704-1.632 1.664-3.072 2.848-4.256 1.216-1.184 2.624-2.144 4.256-2.848 1.664-0.704 3.392-1.056 5.184-1.056v0zM22.656 17.888v-3.776h-4.768v-4.768h-3.776v4.768h-4.768v3.776h4.768v4.768h3.776v-4.768h4.768z"/>
</svg>
