<svg
  version="1.1"
  xmlns="http://www.w3.org/2000/svg"
  viewBox="0 0 32 32">
  <path d="M13.28 8.352c0.16 0 0.32-0.064 0.448-0.192 0.096-0.128 0.16-0.256 0.16-0.416 0-0.192-0.064-0.32-0.16-0.448-0.128-0.128-0.288-0.192-0.448-0.192-0.192 0-0.32 0.064-0.448 0.192s-0.16 0.256-0.16 0.448c0 0.16 0.032 0.288 0.16 0.416s0.256 0.192 0.448 0.192v0zM20.064 8.352c0.16 0 0.32-0.064 0.448-0.192 0.096-0.128 0.16-0.256 0.16-0.416 0-0.192-0.064-0.32-0.16-0.448-0.128-0.128-0.288-0.192-0.448-0.192s-0.32 0.064-0.448 0.192c-0.128 0.128-0.192 0.256-0.192 0.448 0 0.16 0.064 0.288 0.192 0.416s0.288 0.192 0.448 0.192v0zM7.008 11.296c0.448 0 0.832 0.16 1.152 0.48s0.48 0.704 0.48 1.152v6.912c0 0.448-0.16 0.832-0.48 1.152s-0.704 0.48-1.152 0.48c-0.48 0-0.864-0.16-1.184-0.48s-0.48-0.704-0.48-1.152v-6.912c0-0.448 0.16-0.832 0.48-1.152s0.704-0.48 1.184-0.48v0zM24.064 11.616v10.656c0 0.512-0.192 0.928-0.512 1.248-0.352 0.352-0.768 0.512-1.248 0.512h-1.216v3.648c0 0.448-0.16 0.864-0.48 1.184s-0.704 0.48-1.184 0.48c-0.448 0-0.832-0.16-1.152-0.48s-0.48-0.736-0.48-1.184v-3.648h-2.24v3.648c0 0.448-0.16 0.864-0.48 1.184s-0.704 0.48-1.184 0.48c-0.448 0-0.832-0.16-1.152-0.48s-0.48-0.736-0.48-1.184v-3.648h-1.216c-0.48 0-0.896-0.16-1.248-0.512-0.352-0.32-0.512-0.736-0.512-1.248v-10.656h14.784zM20.32 5.12c1.152 0.576 2.080 1.408 2.752 2.464 0.704 1.056 1.024 2.208 1.024 3.456h-14.88c0-1.248 0.352-2.4 1.024-3.456 0.704-1.056 1.6-1.888 2.784-2.464l-1.152-2.112c-0.064-0.128-0.064-0.224 0.064-0.32 0.16-0.064 0.256-0.032 0.352 0.096l1.152 2.112c1.024-0.448 2.080-0.672 3.232-0.672 1.12 0 2.208 0.224 3.232 0.672l1.152-2.112c0.096-0.128 0.192-0.16 0.32-0.096 0.128 0.096 0.16 0.192 0.096 0.32l-1.152 2.112zM28 12.928v6.912c0 0.448-0.16 0.832-0.48 1.152s-0.704 0.48-1.184 0.48c-0.448 0-0.832-0.16-1.152-0.48s-0.48-0.704-0.48-1.152v-6.912c0-0.448 0.16-0.832 0.48-1.152s0.704-0.48 1.152-0.48c0.48 0 0.864 0.16 1.184 0.48s0.48 0.704 0.48 1.152v0z"/>
</svg>
