<svg
  version="1.1"
  xmlns="http://www.w3.org/2000/svg"
  viewBox="0 0 32 32">
  <path d="M8.48 11.712c-2.592 0-4.704 1.92-4.704 4.288s2.112 4.32 4.704 4.32h0.064c1.408 0.064 2.496-0.32 3.552-1.248 0.928-0.8 1.664-1.92 2.464-3.168-0.704-1.024-1.376-1.984-2.208-2.72-1.12-1.024-2.368-1.472-3.872-1.472M17.408 15.904c0.8 1.248 1.536 2.368 2.464 3.168 1.056 0.928 2.144 1.312 3.552 1.248h0.064c2.592 0 4.704-1.952 4.704-4.32s-2.112-4.288-4.704-4.288c-1.504 0-2.752 0.448-3.872 1.472-0.832 0.736-1.504 1.696-2.208 2.72M23.104 22.656c-1.856 0-3.456-0.608-4.864-1.856-0.864-0.736-1.6-1.696-2.272-2.656-0.64 0.96-1.376 1.92-2.24 2.656-1.504 1.344-3.232 1.952-5.28 1.856-3.936-0.032-7.104-3.008-7.104-6.656s3.2-6.624 7.136-6.624c2.144 0 3.936 0.672 5.536 2.080 0.736 0.672 1.376 1.472 1.952 2.272 0.608-0.8 1.248-1.6 1.984-2.272 1.568-1.408 3.392-2.080 5.536-2.080 3.936 0 7.136 2.976 7.136 6.624s-3.168 6.624-7.104 6.656c-0.128 0-0.256 0-0.416 0M23.808 17.76h-1.376v-1.28h-1.312v-1.312h1.312v-1.28h1.376v1.28h1.344v1.312h-1.344v1.28zM10.848 16.512h-4.352v-1.376h4.352v1.376z"/>
</svg>
