<svg
  version="1.1"
  xmlns="http://www.w3.org/2000/svg"
  viewBox="0 0 32 32">
  <path d="M8.352 27.68l-0.512 0.96c-0.352 0.64-1.152 0.896-1.792 0.544-0.672-0.352-0.896-1.184-0.544-1.824l8-14.88c-0.896-0.736-1.504-1.888-1.504-3.136 0-2.208 1.792-4 4-4s4 1.792 4 4c0 1.248-0.576 2.4-1.504 3.136l1.44 2.688 6.56 12.192c0.352 0.64 0.128 1.472-0.544 1.824-0.64 0.352-1.44 0.096-1.792-0.544l-0.512-0.96-7.648-3.584-7.648 3.584zM9.376 25.792l2.048-3.808 3.072 1.408-5.12 2.4zM20.576 21.984l2.048 3.808-5.12-2.4 3.072-1.408zM19.968 20.832l-0.256-0.448-3.712-2.72-3.712 2.72-0.256 0.448 3.968 1.856 3.968-1.856zM18.304 17.76l-0.672-1.28-0.544 0.384 1.216 0.896zM15.008 15.36l1.088-2.016c-0.032 0-0.064 0-0.096 0s-0.064 0-0.064 0l1.088 2.016-1.024 0.736-0.992-0.736zM14.368 16.48l-0.672 1.28 1.216-0.896-0.544-0.384zM20.704 12.64l0.832 0.544c0.832-1.216 1.344-2.688 1.344-4.224 0-1.504-0.448-2.88-1.248-4.064l-0.832 0.512c0.672 1.056 1.088 2.24 1.088 3.552 0 1.344-0.448 2.624-1.184 3.68zM24.192 3.232l-1.088 0.704c0.96 1.472 1.536 3.168 1.536 5.024 0 1.888-0.608 3.68-1.664 5.152l1.088 0.736c1.216-1.696 1.92-3.712 1.92-5.888 0-2.112-0.672-4.064-1.792-5.728zM27.52 8.96c0 2.464-0.832 4.768-2.208 6.688l1.376 0.896c1.568-2.176 2.496-4.768 2.496-7.584 0-2.752-0.896-5.28-2.368-7.424l-1.376 0.896c1.312 1.888 2.080 4.128 2.080 6.528zM9.984 9.12c0-1.344 0.416-2.624 1.152-3.68l-0.8-0.544c-0.864 1.216-1.376 2.688-1.376 4.224 0 1.504 0.48 2.88 1.248 4.064l0.832-0.512c-0.672-1.056-1.056-2.24-1.056-3.552zM7.648 14.848l1.12-0.704c-0.992-1.472-1.568-3.168-1.568-5.024 0-1.888 0.608-3.68 1.664-5.152l-1.088-0.736c-1.216 1.696-1.92 3.712-1.92 5.888 0 2.112 0.672 4.064 1.792 5.728zM4.32 9.12c0-2.464 0.832-4.768 2.208-6.688l-1.376-0.896c-1.568 2.176-2.496 4.8-2.496 7.584 0 2.752 0.896 5.28 2.4 7.424l1.344-0.896c-1.312-1.888-2.080-4.128-2.080-6.528z"/>
</svg>
