<svg
  version="1.1"
  xmlns="http://www.w3.org/2000/svg"
  viewBox="0 0 32 32">
  <path d="M11.872 29.312c0.32 0.128 0.672-0.192 0.48-0.416-1.12-1.344-2.88-3.648-1.216-6.592 2.784-4.864 8.064-3.104 9.632 0.192 1.28 2.784 0.128 4.32-1.28 6.336-0.192 0.288 0.16 0.544 0.48 0.416 2.56-1.024 6.336-3.072 6.656-7.2 0.128-1.248-0.064-3.008-0.96-5.216-1.152-2.784-2.56-4.096-3.392-4.672-0.256-0.16-0.64-0.032-0.608 0.224 0.256 3.040-1.216 3.808-2.048 2.080-0.32-0.704-0.512-1.888-0.512-3.36 0-2.4-0.896-4.896-2.912-6.944-0.512-0.512-1.12-1.024-1.792-1.44-0.256-0.16-0.608 0-0.608 0.256 0.16 1.632 0.032 6.368-5.28 12-4.8 5.216-2.912 9.216-2.272 10.304 1.28 2.080 3.904 3.296 5.632 4.032v0zM11.872 29.312"/>
</svg>
