<svg
  version="1.1"
  xmlns="http://www.w3.org/2000/svg"
  viewBox="0 0 32 32">
  <path d="M13.152 16l-4.768 4.768v-4.768c-1.568 0-2.912-0.576-4.032-1.696s-1.696-2.464-1.696-4.032v-1.888c0-1.568 0.576-2.912 1.696-4.032s2.464-1.696 4.032-1.696h6.656c1.568 0 2.912 0.576 4.032 1.696s1.696 2.464 1.696 4.032v1.888c0 1.568-0.576 2.912-1.696 4.032s-2.464 1.696-4.032 1.696h-1.888zM23.616 11.232c1.568 0 2.912 0.576 4.032 1.696s1.696 2.464 1.696 4.032v1.888c0 1.568-0.576 2.944-1.696 4.032-1.088 1.12-2.464 1.696-4.032 1.696v4.768l-4.768-4.768h-1.888c-1.312 0-2.464-0.416-3.456-1.184-1.024-0.8-1.728-1.792-2.048-3.008l2.496-2.496h1.088c1.952 0 3.616-0.64 5.056-1.92s2.272-2.848 2.496-4.736h1.024z"/>
</svg>
