<svg
  version="1.1"
  xmlns="http://www.w3.org/2000/svg"
  viewBox="0 0 32 32">
  <path d="M16 2.656c1.792 0 3.52 0.352 5.184 1.056 1.632 0.704 3.072 1.664 4.256 2.848s2.144 2.624 2.848 4.256c0.704 1.664 1.056 3.392 1.056 5.184s-0.352 3.52-1.056 5.184c-0.704 1.632-1.664 3.040-2.848 4.256-1.184 1.184-2.624 2.144-4.256 2.848-1.664 0.704-3.392 1.056-5.184 1.056s-3.52-0.352-5.184-1.056c-1.632-0.704-3.040-1.664-4.256-2.848-1.184-1.216-2.144-2.624-2.848-4.256-0.704-1.664-1.056-3.392-1.056-5.184s0.352-3.52 1.056-5.184c0.704-1.632 1.664-3.072 2.848-4.256 1.216-1.184 2.624-2.144 4.256-2.848 1.664-0.704 3.392-1.056 5.184-1.056v0zM16 27.68c1.568 0 3.104-0.32 4.544-0.928 1.44-0.64 2.656-1.44 3.712-2.496 1.056-1.024 1.856-2.272 2.496-3.712 0.608-1.44 0.928-2.944 0.928-4.544 0-1.568-0.32-3.104-0.928-4.544-0.64-1.44-1.44-2.656-2.496-3.712s-2.272-1.856-3.712-2.496c-1.44-0.608-2.976-0.928-4.544-0.928-1.6 0-3.104 0.32-4.544 0.928-1.44 0.64-2.688 1.44-3.712 2.496-1.056 1.056-1.856 2.272-2.496 3.712-0.608 1.44-0.928 2.976-0.928 4.544 0 1.6 0.32 3.104 0.928 4.544 0.64 1.44 1.44 2.688 2.496 3.712 1.024 1.056 2.272 1.856 3.712 2.496 1.44 0.608 2.944 0.928 4.544 0.928v0zM12.192 11.584c-0.224 0.192-0.416 0.384-0.576 0.608l-1.728-1.696c0.192-0.224 0.384-0.416 0.608-0.608l1.696 1.696zM10.784 13.376c-0.128 0.32-0.256 0.608-0.32 0.8l-2.208-0.896c0.064-0.16 0.16-0.448 0.352-0.832l2.176 0.928zM16.416 10.176c-0.032 0-0.096 0-0.192 0s-0.16 0-0.224 0c-0.064 0-0.128 0-0.224 0s-0.16 0-0.224 0v-2.4h0.864v2.4zM14.176 10.464c-0.16 0.064-0.416 0.16-0.8 0.32l-0.928-2.208c0.416-0.16 0.672-0.256 0.832-0.32l0.896 2.208zM21.536 14.176c-0.064-0.192-0.192-0.48-0.32-0.8l2.208-0.928c0.16 0.416 0.256 0.672 0.32 0.832l-2.208 0.896zM20.416 12.192c-0.192-0.224-0.384-0.416-0.608-0.608l1.696-1.696c0.224 0.192 0.416 0.384 0.608 0.608l-1.696 1.696zM18.624 10.784c-0.32-0.128-0.608-0.256-0.8-0.32l0.896-2.208c0.16 0.064 0.448 0.16 0.832 0.32l-0.928 2.208zM18.080 20.576c0 0.576-0.192 1.088-0.608 1.472-0.384 0.416-0.896 0.608-1.472 0.608s-1.088-0.192-1.472-0.608c-0.416-0.384-0.608-0.896-0.608-1.472 0-0.416 0.128-0.8 0.352-1.152 0.224-0.32 0.512-0.576 0.896-0.736v-6.016c0-0.224 0.096-0.416 0.256-0.608 0.16-0.16 0.352-0.224 0.576-0.224s0.416 0.064 0.576 0.224c0.192 0.192 0.256 0.384 0.256 0.608v6.016c0.384 0.16 0.672 0.416 0.896 0.736 0.256 0.352 0.352 0.736 0.352 1.152v0zM16 5.984c1.376 0 2.656 0.288 3.904 0.8 1.216 0.512 2.272 1.248 3.168 2.144s1.632 1.952 2.144 3.168c0.512 1.248 0.8 2.528 0.8 3.904s-0.288 2.656-0.8 3.904c-0.512 1.216-1.248 2.272-2.144 3.168s-1.952 1.6-3.168 2.144c-1.248 0.512-2.528 0.768-3.904 0.768s-2.656-0.256-3.904-0.768c-1.216-0.544-2.272-1.248-3.168-2.144s-1.6-1.952-2.144-3.168c-0.512-1.248-0.768-2.528-0.768-3.904s0.256-2.656 0.768-3.904c0.544-1.216 1.248-2.272 2.144-3.168s1.952-1.632 3.168-2.144c1.248-0.512 2.528-0.8 3.904-0.8v0zM16 25.152c1.248 0 2.432-0.224 3.552-0.704 1.152-0.48 2.112-1.152 2.944-1.952 0.832-0.832 1.472-1.792 1.952-2.944 0.48-1.12 0.736-2.304 0.736-3.552s-0.256-2.432-0.736-3.552c-0.48-1.152-1.12-2.112-1.952-2.944s-1.792-1.472-2.944-1.952c-1.12-0.48-2.304-0.736-3.552-0.736s-2.432 0.256-3.552 0.736c-1.152 0.48-2.112 1.12-2.944 1.952-0.8 0.832-1.472 1.792-1.952 2.944-0.48 1.12-0.704 2.304-0.704 3.552s0.224 2.432 0.704 3.552c0.48 1.152 1.152 2.112 1.952 2.944 0.832 0.8 1.792 1.472 2.944 1.952 1.12 0.48 2.304 0.704 3.552 0.704v0z"/>
</svg>
