<svg
  version="1.1"
  xmlns="http://www.w3.org/2000/svg"
  viewBox="0 0 32 32">
  <path d="M16 2.656c-7.36 0-13.344 5.984-13.344 13.344s5.984 13.344 13.344 13.344c7.36 0 13.344-5.984 13.344-13.344s-5.984-13.344-13.344-13.344zM16 26.656c-5.888 0-10.656-4.768-10.656-10.656s4.768-10.656 10.656-10.656c5.888 0 10.656 4.768 10.656 10.656s-4.768 10.656-10.656 10.656zM20.672 14.656c1.088 0 1.984-0.896 1.984-1.984 0-1.12-0.896-2.016-1.984-2.016-1.12 0-2.016 0.896-2.016 2.016 0 1.088 0.896 1.984 2.016 1.984zM11.328 14.656c1.12 0 2.016-0.896 2.016-1.984 0-1.12-0.896-2.016-2.016-2.016-1.088 0-1.984 0.896-1.984 2.016 0 1.088 0.896 1.984 1.984 1.984zM16 23.328c3.104 0 5.76-1.952 6.816-4.672h-13.632c1.056 2.72 3.712 4.672 6.816 4.672z"/>
</svg>
