<svg
  version="1.1"
  xmlns="http://www.w3.org/2000/svg"
  viewBox="0 0 32 32">
  <path d="M28.416 10.912c0.064 0.128 0.096 0.288 0.192 0.48 0.064 0.192 0.192 0.608 0.352 1.216 0.128 0.64 0.256 1.28 0.32 1.888 0.064 0.64 0.064 1.408 0 2.304s-0.224 1.76-0.448 2.624c-0.256 0.832-0.672 1.728-1.248 2.656-0.576 0.96-1.312 1.856-2.208 2.656-0.032 0-0.064 0.032-0.096 0.096-0.064 0.032-0.128 0.064-0.256 0.128s-0.256 0.128-0.352 0.128c-0.128 0-0.256-0.032-0.416-0.128-0.128-0.096-0.256-0.256-0.352-0.448-0.064-0.096-0.128-0.224-0.192-0.384s-0.256-0.448-0.512-0.928c-0.256-0.48-0.544-0.928-0.832-1.376s-0.672-0.96-1.12-1.568c-0.416-0.576-0.864-1.12-1.312-1.6-0.416 0.608-0.928 1.12-1.536 1.472-0.608 0.32-1.28 0.544-2.016 0.608-0.128 3.264-1.184 6.144-3.232 8.608-0.128-0.032-0.288-0.064-0.512-0.096-0.192-0.032-0.608-0.128-1.216-0.32-0.64-0.16-1.216-0.384-1.824-0.64-0.576-0.256-1.248-0.64-1.984-1.152-0.768-0.512-1.44-1.056-2.048-1.696-0.576-0.64-1.152-1.44-1.696-2.4-0.512-0.992-0.896-2.080-1.152-3.232-0.032-0.032-0.032-0.064-0.032-0.128-0.032-0.064-0.032-0.16 0-0.32 0-0.128 0.032-0.256 0.064-0.352 0.064-0.128 0.16-0.224 0.32-0.288 0.128-0.096 0.32-0.128 0.576-0.096 0.128 0 0.288 0.032 0.512 0.032 0.192 0 0.608 0.032 1.248 0.032 0.608 0 1.248-0.032 1.856-0.064 0.608-0.064 1.312-0.16 2.112-0.288 0.832-0.128 1.568-0.288 2.272-0.48-0.448-1.056-0.512-2.144-0.192-3.2-2.816-1.76-4.768-4.128-5.888-7.136 0.064-0.096 0.192-0.224 0.32-0.384s0.416-0.48 0.896-0.928c0.448-0.416 0.96-0.832 1.472-1.216s1.152-0.768 1.984-1.152c0.8-0.416 1.632-0.704 2.464-0.896 0.864-0.224 1.824-0.288 2.944-0.288 1.12 0.032 2.24 0.256 3.392 0.608 0.032 0 0.064 0.032 0.128 0.032 0.064 0.032 0.16 0.064 0.256 0.16 0.128 0.064 0.224 0.16 0.288 0.256s0.096 0.224 0.096 0.384c0 0.192-0.096 0.352-0.224 0.576-0.032 0.064-0.128 0.192-0.224 0.352-0.096 0.128-0.288 0.448-0.576 0.96-0.288 0.48-0.544 0.96-0.8 1.44-0.256 0.512-0.512 1.088-0.8 1.792-0.32 0.704-0.544 1.408-0.736 2.048 1.056 0.096 1.984 0.512 2.784 1.248 2.944-1.6 5.984-2.144 9.184-1.6v0zM16.96 17.632c0.448-0.256 0.736-0.64 0.864-1.152 0.16-0.512 0.096-0.992-0.16-1.44-0.288-0.448-0.672-0.736-1.184-0.896-0.48-0.128-0.96-0.064-1.44 0.192-0.448 0.256-0.736 0.672-0.864 1.152-0.16 0.512-0.096 0.992 0.16 1.44 0.288 0.48 0.672 0.768 1.184 0.896s0.992 0.096 1.44-0.192v0z"/>
</svg>
