<svg
  version="1.1"
  xmlns="http://www.w3.org/2000/svg"
  viewBox="0 0 32 32">
  <path d="M11.808 7.232c-0.224-0.32-0.096-0.576 0.288-0.576h11.84c0.384 0 0.832 0.256 1.024 0.576l1.92 2.88c0.192 0.32 0.064 0.544-0.32 0.544h-11.84c-0.352 0-0.8-0.224-1.024-0.544l-1.888-2.88zM2.656 5.344h4.896c0.736 0 1.664 0.48 2.080 1.088l2.976 4.48c0.384 0.608 1.344 1.088 2.048 1.088h13.344c0.736 0 1.344 0.576 1.344 1.312v12.032c0 0.736-0.608 1.312-1.344 1.312h-24c-0.736 0-1.344-0.576-1.344-1.312v-20z"/>
</svg>
