<svg
  version="1.1"
  xmlns="http://www.w3.org/2000/svg"
  viewBox="0 0 32 32">
  <path d="M25.952 15.104c-0.288-1.12-0.896-2.208-1.664-3.072-0.736-0.864-1.824-1.28-2.272-1.28s-0.768 0.128-0.96 0.544c-0.16 0.352-0.064 0.8 0.128 1.088 0.256 0.384 0.672 0.448 1.024 0.736 0.992 0.768 1.408 1.76 1.568 2.912 0.352 2.016-0.704 3.456-2.144 4.544-0.512 0.384-0.896 0.96-0.416 1.6 0.384 0.48 0.736 0.544 1.248 0.416 0.896-0.224 1.888-1.344 2.464-2.112 1.056-1.44 1.536-3.552 1.024-5.376zM18.272 14.656c-0.288 0.192-0.48 0.48-0.736 0.704-1.024 0-2.912 0-2.912 0-0.128-0.48-0.416-1.344-0.576-1.856-0.416-1.408-0.896-3.296-1.408-4.832-0.192-0.608-0.352-1.024-1.152-1.024s-1.056 0.672-1.216 1.312c-0.16 0.512-1.888 8.352-1.888 8.352s-1.088-7.2-1.312-8.288c-0.224-0.992-0.704-1.376-1.28-1.376s-1.024 0.576-1.152 1.152c-0.128 0.576-0.352 1.248-0.512 1.888-0.352 1.312-0.8 2.688-1.12 3.968 0 0.064-0.128 0.736-0.224 0.8-0.16 0.16-0.544 0.064-0.736 0.128-0.48 0.192-0.736 0.704-0.704 1.12 0.064 0.928 0.832 1.056 1.664 1.056 0.928 0.032 1.504-0.128 1.824-1.088 0.256-0.8 0.64-2.464 0.64-2.464s0.256 1.216 0.32 1.6c0.096 0.672 1.408 7.136 1.6 7.616 0.192 0.544 0.512 0.96 0.992 0.96 0.416 0 0.704-0.416 0.896-0.896 0.256-0.672 2.368-10.112 2.368-10.112s0.544 1.824 0.832 2.848c0.256 0.992 0.48 1.536 1.6 1.536 0 0 3.264 0 3.456 0 0 0 0.48 0.64 0.768 0.832 0.224 0.128 0.256 0.16 0.576 0.224 0.8 0.192 1.472 0 2.048-0.544 1.056-0.992 0.864-2.656-0.288-3.488-0.672-0.48-1.664-0.544-2.368-0.128zM28.576 10.112c-0.576-0.768-1.344-1.568-2.144-2.24-0.704-0.608-1.056-0.928-1.76-1.12-0.704-0.16-1.44 0.32-1.472 0.896-0.096 0.704 0.384 1.024 0.864 1.344 0.736 0.416 1.504 1.088 2.176 1.824 1.216 1.312 1.696 2.784 2.016 4.512 0.16 0.96 0.128 2.368-0.064 3.328-0.128 0.512-0.32 1.088-0.576 1.6-0.736 1.408-1.792 3.072-3.392 4-0.32 0.192-0.768 0.352-0.928 0.736s-0.128 0.864 0.128 1.184c0.64 0.864 1.824 0.16 2.464-0.32 1.312-1.056 2.784-2.464 3.424-3.904 0.448-0.896 0.896-1.952 1.088-2.944 0.416-1.856 0.384-4.192-0.448-6.144-0.384-0.928-0.704-1.824-1.376-2.752z"/>
</svg>
