<svg
  version="1.1"
  xmlns="http://www.w3.org/2000/svg"
  viewBox="0 0 32 32">
  <path d="M22.080 26.336c2.080-1.28 2.24-3.904 1.216-7.2-0.704 0.576-1.504 1.12-2.368 1.664 0.416 1.696 0.384 2.912-0.256 3.296-0.64 0.352-1.728-0.224-2.976-1.408-0.32-0.32-0.64-0.64-0.96-1.024-0.544-0.64-1.12-1.344-1.664-2.176-0.256-0.352-0.512-0.736-0.736-1.12-0.224-0.32-0.448-0.672-0.64-1.024-0.224-0.384-0.416-0.736-0.576-1.088-0.224-0.384-0.448-0.8-0.608-1.184-0.416-0.896-0.768-1.76-1.056-2.528-0.16-0.48-0.288-0.928-0.384-1.344-0.416-1.696-0.384-2.912 0.256-3.296 0.64-0.352 1.728 0.224 2.976 1.408 0.928-0.448 1.792-0.864 2.624-1.216-2.336-2.528-4.736-3.712-6.88-2.528 1.76-0.992 3.776-1.568 5.952-1.568 4.416 0 8.256 2.368 10.336 5.92-1.28-2.080-3.904-2.272-7.168-1.216-0.448 0.128-0.896 0.288-1.344 0.48-0.832 0.32-1.664 0.704-2.56 1.152-0.384 0.192-0.8 0.416-1.216 0.64-0.224 0.128-0.48 0.256-0.704 0.416-0.256 0.128-0.48 0.256-0.736 0.416 0.256 0.736 0.576 1.568 1.024 2.496 0.32-0.192 0.672-0.416 1.024-0.608 0.384-0.224 0.736-0.416 1.088-0.608 0.384-0.192 0.8-0.416 1.184-0.576 0.896-0.448 1.76-0.8 2.528-1.056 0.48-0.16 0.928-0.288 1.344-0.384 1.696-0.416 2.912-0.384 3.296 0.256 0.352 0.64-0.224 1.728-1.44 3.008-0.288 0.288-0.608 0.608-0.992 0.928-0.64 0.544-1.344 1.12-2.176 1.664-0.352 0.256-0.736 0.512-1.12 0.736-0.32 0.224-0.672 0.448-1.024 0.64-0.352 0.224-0.736 0.416-1.088 0.576 0.608 0.864 1.184 1.568 1.696 2.144 0.224-0.128 0.48-0.256 0.704-0.416 0.256-0.128 0.48-0.288 0.736-0.416 0.384-0.224 0.768-0.48 1.152-0.736 0.832-0.544 1.6-1.088 2.272-1.632 0.384-0.288 0.736-0.608 1.088-0.896 2.528-2.336 3.712-4.736 2.528-6.88 0.992 1.76 1.568 3.776 1.568 5.952 0 4.416-2.368 8.256-5.92 10.336M5.664 22.080c1.28 2.080 3.904 2.24 7.168 1.216-0.544-0.704-1.088-1.504-1.632-2.368-1.696 0.416-2.912 0.384-3.296-0.256-0.352-0.64 0.224-1.728 1.44-3.008-0.48-0.896-0.896-1.76-1.248-2.592-2.528 2.336-3.712 4.704-2.528 6.848-0.992-1.728-1.568-3.776-1.568-5.92 0-4.416 2.368-8.256 5.92-10.336-2.080 1.28-2.24 3.904-1.216 7.168 0.128 0.448 0.288 0.896 0.48 1.344 0.32 0.832 0.704 1.664 1.152 2.56 0.192 0.384 0.416 0.8 0.64 1.216 0.128 0.224 0.256 0.48 0.416 0.704 0.128 0.256 0.256 0.48 0.416 0.704 0.224 0.416 0.48 0.8 0.736 1.184 0.512 0.832 1.088 1.6 1.632 2.272 0.288 0.384 0.608 0.736 0.928 1.088 2.304 2.528 4.704 3.712 6.848 2.528-1.76 0.992-3.776 1.568-5.952 1.568-4.416 0-8.256-2.368-10.336-5.92M16 1.344c-8.096 0-14.656 6.56-14.656 14.656s6.56 14.656 14.656 14.656c8.096 0 14.656-6.56 14.656-14.656s-6.56-14.656-14.656-14.656M18.912 15.744c0.832-0.608 1.536-1.184 2.112-1.696-0.128-0.224-0.256-0.48-0.416-0.704-0.128-0.256-0.256-0.48-0.416-0.704-0.736 0.224-1.6 0.544-2.528 0.992 0.224 0.32 0.448 0.672 0.64 1.024 0.224 0.352 0.416 0.736 0.608 1.088"/>
</svg>
