<svg
  version="1.1"
  xmlns="http://www.w3.org/2000/svg"
  viewBox="0 0 32 32">
  <path d="M14.304 3.168c-0.224-0.32-0.576-0.512-0.96-0.512s-0.736 0.192-0.96 0.512c-2.4 3.424-8.384 12.384-8.384 16.608 0 5.28 4.192 9.568 9.344 9.568s9.312-4.288 9.312-9.568c0.032-4.224-5.984-13.184-8.352-16.608M6.368 16.896l1.152 0.32c-1.056 4 1.28 8.096 5.248 9.152l-0.32 1.184c-4.608-1.248-7.328-6.016-6.080-10.656M25.024 2.848c-0.096-0.128-0.224-0.192-0.352-0.192s-0.256 0.064-0.352 0.192c-0.864 1.184-2.976 4.32-2.976 5.792 0 1.856 1.472 3.36 3.328 3.36 1.824 0 3.328-1.504 3.328-3.36 0-1.472-2.144-4.608-2.976-5.792"/>
</svg>
