<svg
  version="1.1"
  xmlns="http://www.w3.org/2000/svg"
  viewBox="0 0 32 32">
  <path d="M26.912 5.088c1.056 1.056 1.76 2.272 2.144 3.648 0.384 1.408 0.384 2.784 0 4.192-0.352 1.376-1.056 2.592-2.080 3.648-1.056 1.056-2.336 1.792-3.84 2.208s-2.944 0.448-4.288 0.064l-1.888 1.92h-3.808v2.848h-2.88v2.88h-2.848v2.848h-4.768v-5.728l10.496-10.464c-0.384-1.344-0.352-2.784 0.064-4.288s1.152-2.784 2.208-3.84c1.056-1.024 2.272-1.728 3.648-2.080 1.408-0.384 2.784-0.384 4.192 0 1.376 0.384 2.592 1.088 3.648 2.144v0zM22.656 11.488c0.608 0 1.088-0.224 1.536-0.64 0.416-0.416 0.608-0.928 0.608-1.504 0-0.608-0.192-1.088-0.608-1.536-0.448-0.416-0.928-0.608-1.536-0.608-0.576 0-1.088 0.192-1.504 0.608-0.416 0.448-0.64 0.928-0.64 1.536 0 0.576 0.224 1.088 0.64 1.504s0.928 0.64 1.504 0.64v0z"/>
</svg>
