<svg
  version="1.1"
  xmlns="http://www.w3.org/2000/svg"
  viewBox="0 0 32 32">
  <path d="M25.536 2.656h-19.072c-2.080 0-3.808 1.728-3.808 3.808v19.072c0 2.080 1.728 3.808 3.808 3.808h19.072c2.080 0 3.808-1.728 3.808-3.808v-19.072c0-2.080-1.728-3.808-3.808-3.808zM17.184 19.040h-2.4v4.224h-2.944v-14.528h5.344c3.424 0 5.152 1.696 5.152 5.056 0 1.696-0.448 2.976-1.312 3.872-0.864 0.928-2.144 1.376-3.84 1.376zM14.816 16.512h2.368c1.44 0 2.176-0.896 2.176-2.72 0-0.896-0.16-1.536-0.512-1.952-0.352-0.384-0.928-0.576-1.664-0.576h-2.368v5.248z"/>
</svg>
