<svg
  version="1.1"
  xmlns="http://www.w3.org/2000/svg"
  viewBox="0 0 32 32">
  <path d="M16 26.656v0c5.888 0 10.656-4.768 10.656-10.656s-4.768-10.656-10.656-10.656c-5.888 0-10.656 4.768-10.656 10.656s4.768 10.656 10.656 10.656v0zM16 29.344v0c-7.36 0-13.344-5.984-13.344-13.344s5.984-13.344 13.344-13.344c7.36 0 13.344 5.984 13.344 13.344s-5.984 13.344-13.344 13.344v0zM17.408 9.472c3.008 0.64 5.248 3.328 5.248 6.528 0 3.68-2.976 6.656-6.656 6.656s-6.656-2.976-6.656-6.656c0-3.2 2.24-5.888 5.248-6.528l1.408-2.816 1.408 2.816z"/>
</svg>
