<svg
  version="1.1"
  xmlns="http://www.w3.org/2000/svg"
  viewBox="0 0 32 32">
  <path d="M17.6 11.424c0.352 0.416 0.48 0.576 0.768 0.928 0.352 0.448 0.672 0.928 1.056 1.376 0.352 0.448 0.832 0.608 1.376 0.48 1.216-0.288 2.432-0.608 3.648-0.928 0.768-0.192 1.024-0.512 0.832-1.248-0.16-0.704-0.704-0.8-1.536-0.608-0.832 0.224-1.664 0.416-2.464 0.64-0.224 0.064-0.32 0-0.448-0.16-0.576-0.832-1.152-1.632-1.728-2.464-0.384-0.608-0.896-0.96-1.568-1.12-0.992-0.192-1.952-0.448-2.912-0.64-0.32-0.064-0.64-0.064-0.96 0-1.408 0.352-2.784 0.704-4.192 1.056-0.544 0.16-0.768 0.608-0.992 1.056-0.384 0.736-0.768 1.504-1.12 2.24-0.224 0.416-0.448 0.832-0.672 1.28-0.288 0.672 0.128 1.216 0.672 1.344 0.736 0.128 1.12-0.64 1.472-1.248 0.384-0.704 1.12-2.176 1.248-2.432s0.864-0.416 1.088-0.448c0.672-0.16 1.6-0.416 2.304-0.608 0 0.128-1.056 3.52-1.632 5.376-0.192 0.576-0.352 1.152-0.128 1.76 0.256 0.736 0.832 1.088 1.472 1.376 1.504 0.672 3.008 1.344 4.48 2.016 0.192 0.096 0.288 0.224 0.256 0.448 0 1.824 0 3.712 0 5.6 0 0.8 0.448 1.44 1.184 1.504 0.768 0.064 1.248-0.544 1.312-1.312 0.096-1.472 0.16-2.976 0.256-4.448 0.064-0.768 0.096-1.536 0.128-2.304 0.064-0.832-0.256-1.344-0.992-1.664-1.12-0.512-2.208-1.024-3.328-1.536-0.224-0.096-0.256-0.256-0.192-0.48 0.288-0.96 1.248-4.672 1.312-4.832zM11.808 18.176c-0.224 0.768-0.512 1.504-0.704 2.272-0.096 0.288-0.16 0.448-0.448 0.576-1.472 0.608-2.88 1.12-4.448 1.632-0.608 0.224-0.992 1.024-0.832 1.6 0.128 0.544 0.704 1.088 1.632 0.768 1.12-0.352 4.64-1.312 5.344-1.536 0.544-0.16 0.896-0.512 1.056-1.088 0.288-0.864 0.576-1.728 0.864-2.56 0.064-0.256-0.032-0.32-0.192-0.384-0.448-0.192-0.928-0.352-1.344-0.576-0.32-0.192-0.608-0.448-0.928-0.704zM14.752 5.76c0.32 1.312 1.728 2.144 3.008 1.792 1.28-0.32 2.112-1.728 1.792-3.008s-1.728-2.144-3.008-1.824c-1.28 0.352-2.144 1.76-1.792 3.040z"/>
</svg>
