<svg
  version="1.1"
  xmlns="http://www.w3.org/2000/svg"
  viewBox="0 0 32 32">
  <path d="M13.024 14.752c-0.096-1.632-0.48-4.768-1.536-6.976-2.4-4.96-5.12-5.568-6.72-4.864-1.632 0.704-4.416 5.856 1.44 14.688 0.192 0.32 0.544 0.512 0.928 0.288 1.376-0.928 3.68-1.888 5.216-2.080 0.576-0.064 0.704-0.384 0.672-1.056zM13.28 16.736l-5.696 2.976c0 0 0.8 1.984 1.568 3.36 1.184 2.272 3.104 3.264 5.024 2.24 2.272-1.216 2.144-3.072 0.928-5.376-0.736-1.376-1.824-3.2-1.824-3.2zM26.976 19.136c0.448-0.032 0.576-0.416 0.512-0.768-1.76-10.368-7.392-12.416-9.088-11.904-1.664 0.512-3.296 2.752-1.632 7.968 0.736 2.336 2.624 4.928 3.68 6.208 0.448 0.512 0.768 0.64 1.216 0.352 1.28-0.864 3.68-1.632 5.312-1.856zM29.088 24.288c-0.416-1.472-1.184-3.488-1.184-3.488l-6.272 1.472c0 0 0.48 2.048 0.864 3.552 0.672 2.496 1.856 3.936 4.416 3.392 2.144-0.48 2.848-2.432 2.176-4.928z"/>
</svg>
