<svg
  version="1.1"
  xmlns="http://www.w3.org/2000/svg"
  viewBox="0 0 32 32">
  <path d="M25.536 2.656h-19.072c-2.080 0-3.808 1.728-3.808 3.808v19.072c0 2.080 1.728 3.808 3.808 3.808h19.072c2.080 0 3.808-1.728 3.808-3.808v-19.072c0-2.080-1.728-3.808-3.808-3.808v0zM24.704 10.336v1.312h-6.016l-0.32 4.032c0.96-0.512 1.92-0.768 2.88-0.768 2.624 0 3.936 1.216 3.936 3.616 0 1.408-0.352 2.464-1.088 3.2s-1.728 1.12-3.040 1.12c-1.056 0-2.208-0.16-3.488-0.416l-0.608-0.128 0.16-1.152c1.44 0.288 2.656 0.416 3.616 0.416 0.992 0 1.728-0.256 2.208-0.768 0.512-0.512 0.768-1.216 0.768-2.112s-0.224-1.536-0.704-1.92c-0.448-0.384-1.088-0.576-1.92-0.576-0.448 0-0.928 0.064-1.408 0.192s-0.864 0.224-1.12 0.352l-0.416 0.192-0.96-0.192 0.32-6.4h7.2zM6.784 11.648v-1.312h7.648v1.888l-4.736 10.624-1.376-0.416 4.64-10.304v-0.48h-6.176z"/>
</svg>
