<svg
  version="1.1"
  xmlns="http://www.w3.org/2000/svg"
  viewBox="0 0 32 32">
  <path d="M16 2.656c1.792 0 3.52 0.352 5.184 1.056 1.632 0.704 3.072 1.664 4.256 2.848s2.144 2.624 2.848 4.256c0.704 1.664 1.056 3.392 1.056 5.184s-0.352 3.52-1.056 5.184c-0.704 1.632-1.664 3.040-2.848 4.256-1.184 1.184-2.624 2.144-4.256 2.848-1.664 0.704-3.392 1.056-5.184 1.056s-3.52-0.352-5.184-1.056c-1.632-0.704-3.040-1.664-4.256-2.848-1.184-1.216-2.144-2.624-2.848-4.256-0.704-1.664-1.056-3.392-1.056-5.184s0.352-3.52 1.056-5.184c0.704-1.632 1.664-3.072 2.848-4.256 1.216-1.184 2.624-2.144 4.256-2.848 1.664-0.704 3.392-1.056 5.184-1.056v0zM16 27.68c1.568 0 3.104-0.32 4.544-0.928 1.44-0.64 2.656-1.44 3.712-2.496 1.056-1.024 1.856-2.272 2.496-3.712 0.608-1.44 0.928-2.944 0.928-4.544 0-1.568-0.32-3.104-0.928-4.544-0.64-1.44-1.44-2.656-2.496-3.712s-2.272-1.856-3.712-2.496c-1.44-0.608-2.976-0.928-4.544-0.928-1.6 0-3.104 0.32-4.544 0.928-1.44 0.64-2.688 1.44-3.712 2.496-1.056 1.056-1.856 2.272-2.496 3.712-0.608 1.44-0.928 2.976-0.928 4.544 0 1.6 0.32 3.104 0.928 4.544 0.64 1.44 1.44 2.688 2.496 3.712 1.024 1.056 2.272 1.856 3.712 2.496 1.44 0.608 2.944 0.928 4.544 0.928v0zM13.504 21.824v-11.648l7.904 5.824-7.904 5.824z"/>
</svg>
