<svg
  version="1.1"
  xmlns="http://www.w3.org/2000/svg"
  viewBox="0 0 32 32">
  <path d="M8.192 6.656l-0.256 0.576h12.512l-0.256-0.576h-12zM7.52 8.064l-0.256 0.576h13.856l-0.256-0.576h-13.344zM6.88 9.472l-0.288 0.576h15.2l-0.288-0.576h-14.624zM5.952 11.456h16.48l-0.256-0.544h-15.968l-0.256 0.544zM5.536 12.32l-0.256 0.576h0.672l0.192 0.416h9.024l-0.192-0.416h8.128l0.224 0.416h6.88l0.448-0.992h-25.12zM4.896 13.728l-0.288 0.576h2.016l0.192 0.448 9.024-0.032-0.192-0.416h8.128l0.192 0.448h5.568l0.48-1.024h-25.12zM3.968 15.712h3.296l0.224 0.448h9.024l-0.192-0.448h8.096l0.224 0.448h4.224l0.48-1.024h-25.12l-0.256 0.576zM3.328 17.12h4.608l0.192 0.448h9.024l-0.192-0.448h8.128l0.192 0.448h2.912l0.48-1.024h-25.12l-0.224 0.576zM2.912 17.952l-0.256 0.576h5.92l0.224 0.448h9.024l-0.192-0.448h8.096l0.224 0.416h1.632l0.448-0.992h-25.12zM2.24 19.36l-0.256 0.576h7.264l0.192 0.448h9.056l-0.224-0.448h8.128l0.192 0.416h0.32l0.448-0.992h-25.12zM1.6 20.768l-0.256 0.544h8.544l0.224 0.48h16.128l0.48-1.024h-25.12zM10.304 22.176l0.48 1.024h14.784l0.48-1.024h-15.744zM10.976 23.616l0.448 0.992h13.472l0.48-0.992h-14.4zM12.096 26.016h12.16l0.48-0.992h-13.12l0.48 0.992z"/>
</svg>
