<svg
  version="1.1"
  xmlns="http://www.w3.org/2000/svg"
  viewBox="0 0 32 32">
  <path d="M6.272 19.968l3.904-3.968h11.552l-9.696 9.728-5.76-5.76zM27.392 9.408l0.992 0.928c0.48 0.512 0.736 1.152 0.736 1.92-0.032 0.8-0.256 1.44-0.736 1.92l-14.4 14.4c-0.512 0.512-1.152 0.768-1.952 0.768s-1.44-0.256-1.952-0.768l-6.688-6.72c-0.48-0.48-0.736-1.12-0.736-1.92 0-0.768 0.256-1.44 0.736-1.92l14.4-14.4c0.512-0.48 1.152-0.704 1.92-0.704s1.408 0.224 1.952 0.704l0.928 0.992 1.952-1.952 4.8 4.8-1.952 1.952zM27.008 12.832c0.128-0.096 0.192-0.288 0.192-0.544 0-0.288-0.064-0.448-0.192-0.576l-6.72-6.72c-0.128-0.128-0.32-0.192-0.576-0.192s-0.448 0.064-0.576 0.192l-14.4 14.4c-0.128 0.096-0.192 0.288-0.192 0.576 0 0.256 0.064 0.448 0.192 0.544l6.752 6.752c0.096 0.096 0.288 0.16 0.544 0.16 0.288 0 0.448-0.064 0.576-0.16l14.4-14.432z"/>
</svg>
