<svg
  version="1.1"
  xmlns="http://www.w3.org/2000/svg"
  viewBox="0 0 32 32">
  <path d="M17.024 26.72l10.272-5.6v-10.176l-10.272 3.712v12.064zM16 12.864l11.2-4.064-11.2-4.096-11.2 4.096 11.2 4.064zM29.344 8.832v12.288c0 0.384-0.096 0.736-0.288 1.056s-0.448 0.576-0.8 0.736l-11.264 6.176c-0.32 0.16-0.64 0.256-0.992 0.256s-0.672-0.096-0.96-0.256l-11.296-6.176c-0.32-0.16-0.608-0.416-0.8-0.736s-0.288-0.672-0.288-1.056v-12.288c0-0.448 0.128-0.832 0.384-1.184s0.576-0.608 0.96-0.768l11.296-4.096c0.224-0.064 0.48-0.128 0.704-0.128s0.48 0.064 0.704 0.128l11.296 4.096c0.384 0.16 0.736 0.416 0.96 0.768 0.256 0.352 0.384 0.736 0.384 1.184v0z"/>
</svg>
