<svg
  version="1.1"
  xmlns="http://www.w3.org/2000/svg"
  viewBox="0 0 32 32">
  <path d="M26.656 10.656h-3.744c-0.576-1.024-1.408-1.92-2.432-2.592l2.176-2.176-1.856-1.888-2.912 2.88c-0.608-0.128-1.248-0.224-1.888-0.224s-1.28 0.096-1.888 0.224l-2.912-2.88-1.856 1.888 2.144 2.176c-0.992 0.672-1.792 1.568-2.4 2.592h-3.744v2.688h2.784c-0.064 0.416-0.128 0.864-0.128 1.312v1.344h-2.656v2.656h2.656v1.344c0 0.448 0.064 0.896 0.128 1.344h-2.784v2.656h3.744c1.376 2.4 3.968 4 6.912 4 2.976 0 5.536-1.6 6.912-4h3.744v-2.656h-2.784c0.064-0.448 0.128-0.896 0.128-1.344v-1.344h2.656v-2.656h-2.656v-1.344c0-0.448-0.064-0.896-0.128-1.312h2.784v-2.688zM18.656 21.344h-5.312v-2.688h5.312v2.688zM18.656 16h-5.312v-2.656h5.312v2.656z"/>
</svg>
