<svg
  version="1.1"
  xmlns="http://www.w3.org/2000/svg"
  viewBox="0 0 32 32">
  <path d="M16 6.464c-5.28 0-9.536 4.288-9.536 9.536s4.256 9.536 9.536 9.536c5.248 0 9.536-4.288 9.536-9.536s-4.288-9.536-9.536-9.536v0zM16 2.656c-7.392 0-13.344 5.984-13.344 13.344s5.952 13.344 13.344 13.344c7.36 0 13.344-5.984 13.344-13.344s-5.984-13.344-13.344-13.344v0zM16 26.944c-6.048 0-10.944-4.896-10.944-10.944s4.896-10.944 10.944-10.944c6.048 0 10.944 4.896 10.944 10.944s-4.896 10.944-10.944 10.944v0z"/>
</svg>
