<svg
  version="1.1"
  xmlns="http://www.w3.org/2000/svg"
  viewBox="0 0 32 32">
  <path d="M25.216 6.688c-0.256-0.8-0.992-1.344-1.888-1.344h-14.656c-0.896 0-1.632 0.544-1.888 1.344l-2.784 7.968v10.688c0 0.736 0.608 1.312 1.344 1.312h1.312c0.736 0 1.344-0.576 1.344-1.312v-1.344h16v1.344c0 0.736 0.608 1.312 1.344 1.312h1.312c0.736 0 1.344-0.576 1.344-1.312v-10.688l-2.784-7.968zM8.672 20c-1.12 0-2.016-0.896-2.016-2.016 0-1.088 0.896-1.984 2.016-1.984 1.088 0 1.984 0.896 1.984 1.984 0 1.12-0.896 2.016-1.984 2.016v0zM23.328 20c-1.088 0-1.984-0.896-1.984-2.016 0-1.088 0.896-1.984 1.984-1.984 1.12 0 2.016 0.896 2.016 1.984 0 1.12-0.896 2.016-2.016 2.016v0zM6.656 13.344l2.016-6.016h14.656l2.016 6.016h-18.688z"/>
</svg>
