<svg
  version="1.1"
  xmlns="http://www.w3.org/2000/svg"
  viewBox="0 0 32 32">
  <path d="M25.024 21.344h-3.424v-0.96l1.152-1.12c0.384-0.416 0.672-0.736 0.832-0.96s0.224-0.448 0.224-0.704c0-0.256-0.064-0.416-0.192-0.512s-0.32-0.16-0.544-0.16c-0.352 0-0.768 0.032-1.184 0.096l-0.192 0.032-0.064-0.864c0.544-0.16 1.088-0.224 1.632-0.224 1.12 0 1.696 0.48 1.696 1.504 0 0.384-0.096 0.736-0.256 1.024-0.192 0.288-0.48 0.64-0.928 1.056l-0.928 0.832h2.176v0.96zM19.872 19.136c-0.512 0.672-1.376 0.992-2.624 0.992-1.216 0-2.112-0.32-2.624-0.992-0.48-0.672-0.736-1.728-0.736-3.168s0.256-2.528 0.736-3.232c0.512-0.704 1.408-1.056 2.624-1.056 1.248 0 2.112 0.352 2.624 1.056s0.768 1.792 0.768 3.232c0 1.44-0.256 2.496-0.768 3.168v0zM9.44 18.144c0.224 0.352 0.64 0.544 1.312 0.544s1.376-0.064 2.112-0.192l0.032 1.376c-0.864 0.192-1.632 0.256-2.304 0.256s-1.216-0.064-1.632-0.224c-0.384-0.192-0.704-0.448-0.96-0.832-0.224-0.352-0.384-0.8-0.48-1.28-0.096-0.512-0.128-1.12-0.128-1.888 0-1.568 0.224-2.656 0.672-3.296 0.448-0.608 1.248-0.928 2.464-0.928 0.672 0 1.472 0.128 2.368 0.352l-0.032 1.312c-0.8-0.128-1.472-0.192-1.984-0.192s-0.896 0.064-1.12 0.224c-0.224 0.128-0.384 0.384-0.512 0.8-0.096 0.384-0.16 1.056-0.16 1.984 0 0.96 0.128 1.6 0.352 1.984v0zM30.656 16c0-1.984-1.088-3.712-2.688-4.64 0.032-0.224 0.032-0.448 0.032-0.704 0-4.416-3.584-8-8-8-2.336 0-4.416 0.992-5.888 2.592-0.928-0.768-2.144-1.248-3.456-1.248-2.944 0-5.312 2.4-5.312 5.344 0 0.16 0 0.352 0.032 0.544-2.368 1.024-4.032 3.36-4.032 6.112 0 2.848 1.792 5.28 4.32 6.24 0.96 3.328 4.032 5.76 7.68 5.76 2.336 0 4.416-0.992 5.888-2.592 0.928 0.768 2.112 1.248 3.424 1.248 2.944 0 5.344-2.368 5.344-5.312 0-0.256 0-0.48-0.032-0.704 1.6-0.928 2.688-2.656 2.688-4.64v0zM17.248 13.12c-0.64 0-1.056 0.224-1.312 0.672-0.224 0.448-0.352 1.184-0.352 2.176s0.128 1.696 0.352 2.112c0.224 0.416 0.672 0.608 1.312 0.608 0.672 0 1.088-0.192 1.344-0.608 0.224-0.416 0.352-1.12 0.352-2.112s-0.128-1.728-0.352-2.176c-0.256-0.448-0.704-0.672-1.344-0.672"/>
</svg>
