<svg
  version="1.1"
  xmlns="http://www.w3.org/2000/svg"
  viewBox="0 0 32 32">
  <path d="M21.344 20h0.928c0.224 0 0.384-0.192 0.384-0.384 0-0.032 0-7.168 0-7.168 0-0.224-0.16-0.384-0.384-0.448h-0.928v-1.312c-0.256-2.208-2.048-4.032-4-4.032h-10.656c-2.208 0-4.032 1.824-4.032 4.032v10.656c0 2.208 1.824 4.032 4.032 4h14.080c0.192 0.032 0.576-0.224 0.576-0.512v-2.176h8v2.048c0.032 0.224 0.192 0.384 0.416 0.384h0.512c0.224 0 0.384-0.16 0.384-0.384v-3.36h-9.312v-1.344zM12 21.344c-2.944 0-5.344-2.4-5.344-5.344s2.4-5.344 5.344-5.344c2.944 0 5.344 2.4 5.344 5.344s-2.4 5.344-5.344 5.344v0zM12 12c-2.208 0-4 1.792-4 4s1.792 4 4 4c2.208 0 4-1.792 4-4s-1.792-4-4-4v0z"/>
</svg>
