<svg
  version="1.1"
  xmlns="http://www.w3.org/2000/svg"
  viewBox="0 0 32 32">
  <path d="M21.568 8.544l2.912-2.912c-5.184-4.256-13.024-3.968-17.92 0.928-4.864 4.896-5.184 12.736-0.928 17.92l2.912-2.912c-2.4-3.264-2.464-8.864 0.864-12.16 3.328-3.328 8.896-3.264 12.16-0.864v0zM23.52 21.632l2.848 2.848c4.288-5.152 4.288-11.808 0-16.96l-2.912 2.912c2.432 3.232 2.496 7.968 0.064 11.2v0zM10.432 23.456l-2.912 2.912c5.152 4.288 11.808 4.288 16.96 0l-2.848-2.848c-3.232 2.4-7.968 2.368-11.2-0.064v0z"/>
</svg>
