<svg
  version="1.1"
  xmlns="http://www.w3.org/2000/svg"
  viewBox="0 0 32 32">
  <path d="M16 27.392l5.312 1.952h1.344v-24l-6.656 1.792v20.256zM16.96 18.624c-0.224 0-0.384-0.32-0.384-0.736 0-0.384 0.16-0.704 0.384-0.704s0.384 0.32 0.384 0.704c0 0.416-0.16 0.736-0.384 0.736v0zM6.656 14.624l1.344-1.056v-9.568h16v25.344c0 0 1.344-0.032 1.344-0.032v-25.312c0-0.736-0.608-1.344-1.344-1.344h-16c-0.736 0-1.344 0.608-1.344 1.344v10.624zM13.92 10.144c0 1.152-0.928 2.112-2.112 2.112-1.152 0-2.112-0.96-2.112-2.112 0-1.184 0.96-2.144 2.112-2.144 1.184 0 2.112 0.96 2.112 2.144v0 0 0zM13.952 17.312c0 0-0.928-1.984-1.408-3.072-0.448-1.056-0.8-1.312-1.44-1.312h-0.992c-0.512 0-0.704 0.192-1.024 0.384l-2.688 2.304c-0.224 0.128-0.384 0.32-0.48 0.608l-0.576 3.904c-0.064 0.64 0.256 0.896 0.64 0.992 0.288 0.064 0.736-0.096 0.832-0.544 0.064-0.352 0.608-3.552 0.608-3.552l1.76-1.344c-0.288 1.344-0.608 2.816-0.704 3.328-0.16 0.864 0.288 1.536 0.608 2.048 0.32 0.448 4.032 6.752 4.544 7.456 0.544 0.672 1.024 1.024 1.728 0.608 0.608-0.352 0.512-1.12 0.192-1.696-0.352-0.608-4.096-7.168-4.096-7.168l0.672-2.944c0 0 0.448 0.672 0.672 1.056 0.128 0.192 1.536 1.44 2.080 1.696 0.48 0.224 1.056 0.32 1.312-0.128 0.256-0.416-0.064-0.928-0.416-1.12-0.416-0.16-1.824-1.504-1.824-1.504v0zM8.352 20.992l-1.056 3.36c0 0-1.664 2.496-2.144 3.168-0.352 0.544-0.608 1.152-0.032 1.632 0.704 0.512 1.248-0.16 1.6-0.576 0.32-0.352 1.632-2.208 1.984-2.688 0.256-0.288 0.384-0.576 0.48-0.832 0.064-0.192 0.576-1.152 0.768-1.632l-1.6-2.432z"/>
</svg>
