<svg
  version="1.1"
  xmlns="http://www.w3.org/2000/svg"
  viewBox="0 0 32 32">
  <path d="M14.016 2.656c-0.384 0-0.672 0.32-0.672 0.672v5.344c0 0.352-0.32 0.672-0.672 0.672s-0.672-0.32-0.672-0.672v-5.344c0-0.352-0.288-0.672-0.672-0.672s-0.672 0.32-0.672 0.672v5.344c0 0.352-0.288 0.672-0.64 0.672s-0.672-0.32-0.672-0.672v-5.344c0-0.352-0.32-0.672-0.672-0.672s-0.672 0.32-0.672 0.672v7.328c0 0.448 0.128 0.864 0.32 1.216 0.416 0.832 1.28 1.44 2.272 1.44l-1.248 14.016c0 1.12 0.896 2.016 1.984 2.016s2.016-0.896 2.016-2.016l-1.28-14.016c1.024 0 1.856-0.608 2.304-1.44 0.192-0.352 0.288-0.768 0.288-1.216v-7.328c0-0.352-0.288-0.672-0.64-0.672zM20.672 2.656h-1.344c-1.088 0-1.984 0.896-1.984 2.016v10.656c0 0.864 0.544 1.6 1.312 1.888v10.112c0 1.12 0.896 2.016 2.016 2.016s1.984-0.896 1.984-2.016v-22.656c0-1.12-0.896-2.016-1.984-2.016z"/>
</svg>
