<svg
  version="1.1"
  xmlns="http://www.w3.org/2000/svg"
  viewBox="0 0 32 32">
  <path d="M9.024 9.728c0.224-0.256 0.448-0.48 0.704-0.704l1.92 1.952c-0.224 0.192-0.48 0.416-0.672 0.672l-1.952-1.92zM7.168 12.864c0.032-0.16 0.16-0.448 0.352-0.928l2.528 1.056c-0.16 0.288-0.288 0.608-0.352 0.928l-2.528-1.056zM12.864 7.168l1.056 2.528c-0.32 0.064-0.64 0.192-0.928 0.352l-1.024-2.528c0.448-0.192 0.736-0.32 0.896-0.352v0zM16.512 9.344c-0.064 0-0.16 0-0.256 0s-0.192 0-0.256 0c-0.064 0-0.128 0-0.256 0-0.096 0-0.192 0-0.256 0v-2.72c0.064 0 0.16 0 0.256 0 0.128-0.032 0.192-0.032 0.256-0.032s0.16 0 0.256 0.032c0.096 0 0.192 0 0.256 0v2.72zM18.080 9.696l1.056-2.528c0.16 0.032 0.448 0.16 0.928 0.352l-1.056 2.528c-0.288-0.16-0.608-0.288-0.928-0.352v0zM24.48 11.936c0.16 0.32 0.288 0.608 0.352 0.928l-2.528 1.056c-0.064-0.32-0.192-0.64-0.352-0.928l2.528-1.056zM16 2.656c1.792 0 3.52 0.352 5.184 1.056 1.632 0.704 3.072 1.664 4.256 2.848s2.144 2.624 2.848 4.256c0.704 1.664 1.056 3.392 1.056 5.184s-0.352 3.52-1.056 5.184c-0.704 1.632-1.664 3.040-2.848 4.256-1.184 1.184-2.624 2.144-4.256 2.848-1.664 0.704-3.392 1.056-5.184 1.056s-3.52-0.352-5.184-1.056c-1.632-0.704-3.040-1.664-4.256-2.848-1.184-1.216-2.144-2.624-2.848-4.256-0.704-1.664-1.056-3.392-1.056-5.184s0.352-3.52 1.056-5.184c0.704-1.632 1.664-3.072 2.848-4.256 1.216-1.184 2.624-2.144 4.256-2.848 1.664-0.704 3.392-1.056 5.184-1.056v0zM16 26.496c1.408 0 2.784-0.288 4.064-0.864 1.28-0.544 2.4-1.28 3.36-2.24 0.928-0.928 1.664-2.048 2.24-3.328 0.544-1.312 0.832-2.656 0.832-4.064s-0.288-2.784-0.832-4.064c-0.576-1.28-1.312-2.4-2.24-3.36-0.96-0.928-2.080-1.664-3.36-2.24-1.28-0.544-2.656-0.832-4.064-0.832s-2.752 0.288-4.064 0.832c-1.28 0.576-2.4 1.312-3.328 2.24-0.96 0.96-1.696 2.080-2.24 3.36-0.576 1.28-0.864 2.656-0.864 4.064s0.288 2.752 0.864 4.064c0.544 1.28 1.28 2.4 2.24 3.328 0.928 0.96 2.048 1.696 3.328 2.24 1.312 0.576 2.656 0.864 4.064 0.864v0zM22.272 9.024c0.256 0.224 0.48 0.448 0.704 0.704l-1.952 1.92c-0.192-0.256-0.416-0.48-0.672-0.672l1.92-1.952zM16.96 20.032c0.416 0.16 0.768 0.448 1.024 0.864 0.256 0.384 0.416 0.8 0.416 1.28 0 0.672-0.256 1.216-0.704 1.696-0.48 0.448-1.024 0.704-1.696 0.704s-1.216-0.256-1.696-0.704c-0.448-0.48-0.672-1.024-0.672-1.696 0-0.48 0.128-0.896 0.384-1.28 0.256-0.416 0.608-0.704 1.024-0.864v-6.88c0-0.288 0.096-0.512 0.288-0.704 0.192-0.16 0.416-0.256 0.672-0.256s0.512 0.096 0.672 0.256c0.192 0.192 0.288 0.416 0.288 0.704v6.88z"/>
</svg>
