<svg
  version="1.1"
  xmlns="http://www.w3.org/2000/svg"
  viewBox="0 0 32 32">
  <path d="M29.312 21.6v-17.312l-25.088 25.056h18.688c1.248 0 2.304-0.032 3.168-0.352 1.536-0.48 2.656-1.952 3.040-3.36 0.288-1.056 0.192-2.688 0.192-4.032v0zM13.28 10.88c-0.48 0.288-1.024 0.48-1.472 0.576-0.864 0.192-2.144-0.064-2.88 0.416-0.288 0.16-0.544 0.448-0.64 0.864-0.032 0.224 0.064 0.704-0.032 0.896-0.128 0.192-1.76 0-2.016 0-0.128-0.416-0.096-1.376 0-1.664 0.352-1.184 1.376-2.208 2.56-2.464 0.832-0.192 2.176 0.032 2.976-0.352 0.16-0.064 0.448-0.192 0.608-0.416 0.32-0.416 0.224-1.056 0.32-1.632 0.576 0 2.080 0 2.080 0s-0.032 0.096 0 0.416c0.032 0.192 0.032 0.448 0 0.608-0.032 0.288-0.064 0.576-0.128 0.8-0.192 0.64-0.672 1.536-1.376 1.952zM7.744 2.656c-1.024 0-2.048 0.416-2.144 0.448-0.576 0.288-1.344 0.704-1.856 1.376-0.352 0.448-0.64 1.024-0.8 1.504-0.224 0.704-0.288 1.536-0.288 2.528v19.264l25.088-25.12h-20zM21.504 22.304l1.696 1.728-3.424 3.424-1.728-1.728 3.456-3.424zM25.792 18.016l1.696 1.728-3.424 3.424-1.728-1.728 3.456-3.424zM23.2 15.456l1.728 1.696-7.744 7.744-1.696-1.728 7.712-7.712z"/>
</svg>
