<svg
  version="1.1"
  xmlns="http://www.w3.org/2000/svg"
  viewBox="0 0 32 32">
  <path d="M27.68 2.656c0.448 0 0.832 0.16 1.152 0.512 0.352 0.32 0.512 0.704 0.512 1.152v23.36c0 0.448-0.16 0.832-0.512 1.152-0.32 0.352-0.704 0.512-1.152 0.512h-23.36c-0.448 0-0.832-0.16-1.152-0.512-0.352-0.32-0.512-0.704-0.512-1.152v-23.36c0-0.448 0.16-0.832 0.512-1.152 0.32-0.352 0.704-0.512 1.152-0.512h23.36zM15.168 27.68v-10.848h-10.848v10.848h10.848zM15.168 15.168v-10.848h-10.848v10.848h10.848zM27.68 27.68v-10.848h-10.848v10.848h10.848zM27.68 15.168v-10.848h-10.848v10.848h10.848zM12.672 25.152h-5.824v-5.824h5.824v5.824zM12.672 12.672h-5.824v-5.856h5.824v5.856zM25.184 12.672h-5.856v-5.856h5.856v5.856zM25.184 25.152h-5.856v-5.824h5.856v5.824z"/>
</svg>
