<svg
  version="1.1"
  xmlns="http://www.w3.org/2000/svg"
  viewBox="0 0 32 32">
  <path d="M16 22.656v0c3.744 0 6.656-2.912 6.656-6.656s-2.912-6.656-6.656-6.656-6.656 2.912-6.656 6.656 2.912 6.656 6.656 6.656v0zM16 24v0c-4.384 0-8-3.616-8-8s3.616-8 8-8 8 3.584 8 8-3.584 8-8 8v0zM16 10.656c2.944 0 5.344 2.4 5.344 5.344s-2.4 5.344-5.344 5.344-5.344-2.4-5.344-5.344 2.4-5.344 5.344-5.344zM16 2.656l2.656 2.688h-5.312l2.656-2.688zM16 29.344l-2.656-2.688h5.312l-2.656 2.688zM2.656 16l2.688-2.656v5.312l-2.688-2.656zM29.344 16l-2.688 2.656v-5.312l2.688 2.656z"/>
</svg>
