<svg
  version="1.1"
  xmlns="http://www.w3.org/2000/svg"
  viewBox="0 0 32 32">
  <path d="M22.56 25.344c-0.288 0.768-1.024 1.312-1.888 1.312s-1.6-0.544-1.888-1.312h-12.128v-1.344h12.128c0.288-0.768 1.024-1.344 1.888-1.344s1.6 0.576 1.888 1.344h2.784v1.344h-2.784zM25.536 2.656h-19.072c-2.080 0-3.808 1.728-3.808 3.808v19.072c0 2.080 1.728 3.808 3.808 3.808h19.072c2.080 0 3.808-1.728 3.808-3.808v-19.072c0-2.080-1.728-3.808-3.808-3.808zM22.592 13.472c-0.608 0.608-1.344 1.024-2.208 1.248-0.256 0.064-0.736 0.192-1.472 0.416-0.704 0.224-1.12 0.352-1.216 0.384-0.064 0.032-0.256 0.192-0.64 0.48l-0.992-0.96 3.744-2.144c0.064-0.032 0.128-0.096 0.16-0.192 0-0.064 0-0.128-0.032-0.224-0.064-0.096-0.16-0.16-0.256-0.16-0.064 0-0.096 0.032-0.16 0.064l-3.904 2.208-0.96-0.96 2.24-3.872c0.032-0.064 0.032-0.128 0-0.224 0-0.064-0.064-0.128-0.128-0.16s-0.096-0.064-0.128-0.064c-0.128 0-0.224 0.064-0.288 0.16l-2.144 3.68-0.96-0.96c0.032-0.032 0.096-0.16 0.224-0.32s0.192-0.256 0.224-0.32c0.032-0.032 0.064-0.128 0.128-0.32s0.128-0.416 0.224-0.672c0.064-0.256 0.128-0.48 0.192-0.736 0.096-0.224 0.16-0.416 0.224-0.608 0.032-0.192 0.064-0.288 0.064-0.32 0.224-0.832 0.64-1.568 1.248-2.176 0.48-0.448 0.992-0.8 1.6-1.024 0.576-0.256 1.184-0.352 1.792-0.352 0.64 0 1.248 0.096 1.856 0.352 0.576 0.224 1.088 0.576 1.568 1.024 0.608 0.608 1.024 1.312 1.248 2.144s0.224 1.632 0 2.464c-0.224 0.8-0.64 1.504-1.248 2.144zM12.224 11.968l5.152 5.152-3.072 3.072h-2.88c-0.032 0.032-0.064 0.064-0.096 0.128s-0.128 0.128-0.288 0.256c-0.128 0.128-0.256 0.256-0.384 0.352s-0.288 0.192-0.448 0.288c-0.192 0.064-0.352 0.128-0.48 0.128-0.48 0-0.896-0.192-1.216-0.512-0.352-0.32-0.512-0.736-0.512-1.216 0-0.128 0.032-0.288 0.128-0.48 0.064-0.16 0.16-0.32 0.288-0.448 0.096-0.16 0.224-0.288 0.32-0.416 0.128-0.096 0.224-0.192 0.288-0.256l0.128-0.128v-2.848l3.072-3.072z"/>
</svg>
