<svg
  version="1.1"
  xmlns="http://www.w3.org/2000/svg"
  viewBox="0 0 32 32">
  <path d="M1.344 4v24h29.344v-2.016h-27.36v-21.984h-1.984zM27.456 4c-1.76 0-3.2 1.44-3.2 3.2 0 0.672 0.192 1.248 0.512 1.792l-4.608 3.68c-0.512-0.256-0.992-0.352-1.536-0.352-1.76 0-3.232 1.44-3.232 3.2 0 0.256 0.064 0.48 0.096 0.736l-5.344 2.752c-0.576-0.672-1.408-1.056-2.368-1.056-1.792 0-3.232 1.44-3.232 3.2s1.44 3.2 3.232 3.2c1.76 0 3.2-1.44 3.2-3.2 0-0.256-0.032-0.48-0.064-0.736l5.344-2.752c0.544 0.672 1.408 1.088 2.368 1.088 1.76 0 3.2-1.472 3.2-3.232 0-0.64-0.192-1.248-0.512-1.76l4.608-3.744c0.448 0.256 0.992 0.384 1.536 0.384 1.76 0 3.232-1.472 3.232-3.232s-1.472-3.168-3.232-3.168M7.776 22.752c-0.896 0-1.632-0.704-1.632-1.6s0.736-1.6 1.632-1.6c0.864 0 1.6 0.704 1.6 1.6s-0.736 1.6-1.6 1.6M18.624 17.12c-0.896 0-1.6-0.704-1.6-1.6 0-0.864 0.704-1.6 1.6-1.6 0.864 0 1.6 0.736 1.6 1.6 0 0.896-0.736 1.6-1.6 1.6M27.456 8.832c-0.896 0-1.6-0.736-1.6-1.632 0-0.864 0.704-1.6 1.6-1.6s1.6 0.736 1.6 1.6c0 0.896-0.704 1.632-1.6 1.632"/>
</svg>
