<svg
  version="1.1"
  xmlns="http://www.w3.org/2000/svg"
  viewBox="0 0 32 32">
  <path d="M16.352 13.024c-0.8 0-1.408 0.288-1.824 0.896-0.384 0.512-0.576 1.248-0.576 2.144s0.192 1.632 0.576 2.144c0.416 0.576 1.024 0.896 1.824 0.896 1.6 0 2.4-1.056 2.4-3.168 0-0.832-0.192-1.536-0.576-2.048-0.416-0.576-1.024-0.864-1.824-0.864M16.352 10.784c1.6 0 2.912 0.48 3.872 1.408 0.992 0.928 1.472 2.208 1.472 3.872s-0.48 2.944-1.472 3.872c-0.96 0.928-2.272 1.376-3.872 1.376s-2.88-0.448-3.872-1.376c-0.992-0.928-1.472-2.208-1.472-3.872s0.48-2.944 1.472-3.872c0.992-0.928 2.272-1.408 3.872-1.408M16.256 8.8c1.472 0 2.848 0.416 4 1.152l0.576-0.8c-1.312-0.864-2.88-1.344-4.576-1.344-1.6 0-3.104 0.448-4.384 1.216l0.576 0.832c1.088-0.672 2.4-1.056 3.808-1.056M10.080 6.496l0.768 1.088c1.568-0.992 3.424-1.568 5.408-1.568 2.080 0 4 0.608 5.6 1.664l0.768-1.088c-1.824-1.216-4-1.92-6.368-1.92-2.272 0-4.384 0.672-6.176 1.824M16.256 3.168c2.688 0 5.184 0.8 7.264 2.176l0.96-1.344c-2.336-1.6-5.184-2.496-8.224-2.496-2.944 0-5.728 0.864-8.032 2.368l0.96 1.344c2.048-1.28 4.48-2.048 7.072-2.048M16.448 23.36c-1.472 0-2.848-0.416-4-1.184l-0.576 0.832c1.312 0.864 2.88 1.344 4.576 1.344 1.6 0 3.136-0.448 4.416-1.248l-0.576-0.8c-1.12 0.672-2.432 1.056-3.84 1.056M22.656 25.664l-0.768-1.088c-1.6 0.992-3.456 1.568-5.44 1.568-2.080 0-4-0.608-5.6-1.696l-0.768 1.12c1.824 1.184 4 1.92 6.368 1.92 2.272 0 4.416-0.672 6.208-1.824M16.448 28.992c-2.688 0-5.184-0.8-7.264-2.176l-0.96 1.344c2.368 1.6 5.184 2.496 8.224 2.496 2.976 0 5.728-0.864 8.032-2.368l-0.96-1.376c-2.048 1.312-4.48 2.080-7.072 2.080"/>
</svg>
