<svg
  version="1.1"
  xmlns="http://www.w3.org/2000/svg"
  viewBox="0 0 32 32">
  <path d="M23.968 16l1.6-1.6 2.4 2.4-1.6 1.6-2.4-2.4zM16 8l-2.4-2.368 1.6-1.6 2.4 2.4-1.6 1.568zM6.432 25.568c-3.52-3.52-3.52-9.248 0-12.768l6.368-6.368 2.4 2.368-6.144 6.144c-2.208 2.208-2.208 5.792 0 8 1.056 1.056 2.496 1.632 4 1.632s2.912-0.576 3.968-1.632l6.176-6.144 2.368 2.368-6.368 6.4c-1.696 1.696-3.968 2.624-6.4 2.624-2.4 0-4.672-0.928-6.368-2.624v0zM30.112 15.456l-3.2-3.2c-0.352-0.352-0.832-0.544-1.344-0.544-0.48 0-0.992 0.192-1.344 0.544l-8.928 8.928c-0.608 0.608-1.408 0.928-2.24 0.928-0.864 0-1.664-0.32-2.24-0.928-1.248-1.216-1.248-3.232 0-4.48l8.928-8.928c0.352-0.384 0.544-0.864 0.544-1.344 0-0.512-0.192-0.992-0.544-1.344l-3.2-3.2c-0.352-0.352-0.832-0.544-1.344-0.544s-0.96 0.192-1.344 0.544l-9.152 9.184c-4.48 4.48-4.48 11.744 0 16.224 2.144 2.176 5.056 3.36 8.128 3.36 3.040 0 5.952-1.184 8.096-3.36l9.184-9.152c0.352-0.352 0.544-0.864 0.544-1.344 0-0.512-0.192-0.992-0.544-1.344v0z"/>
</svg>
