<svg
  version="1.1"
  xmlns="http://www.w3.org/2000/svg"
  viewBox="0 0 32 32">
  <path d="M17.664 26.656c0-0.448-0.16-0.832-0.48-1.184-0.32-0.32-0.736-0.48-1.184-0.48s-0.864 0.16-1.184 0.48c-0.32 0.352-0.48 0.736-0.48 1.184 0 0.48 0.16 0.864 0.48 1.184s0.736 0.48 1.184 0.48c0.448 0 0.864-0.16 1.184-0.48s0.48-0.704 0.48-1.184v0zM22.016 23.328v-14.656c0-0.192-0.096-0.352-0.224-0.48s-0.288-0.192-0.448-0.192h-10.688c-0.16 0-0.32 0.064-0.448 0.192s-0.192 0.288-0.192 0.48v14.656c0 0.192 0.064 0.352 0.192 0.48s0.288 0.192 0.448 0.192h10.688c0.16 0 0.32-0.064 0.448-0.192s0.224-0.288 0.224-0.48v0zM18.016 5.664c0-0.224-0.128-0.32-0.352-0.32h-3.328c-0.224 0-0.32 0.096-0.32 0.32s0.096 0.32 0.32 0.32h3.328c0.224 0 0.352-0.096 0.352-0.32v0zM24 5.344v21.312c0 0.736-0.256 1.344-0.8 1.888-0.512 0.512-1.152 0.8-1.856 0.8h-10.688c-0.704 0-1.344-0.288-1.856-0.8-0.544-0.544-0.8-1.152-0.8-1.888v-21.312c0-0.736 0.256-1.344 0.8-1.888 0.512-0.512 1.152-0.8 1.856-0.8h10.688c0.704 0 1.344 0.288 1.856 0.8 0.544 0.544 0.8 1.152 0.8 1.888v0z"/>
</svg>
