<svg
  version="1.1"
  xmlns="http://www.w3.org/2000/svg"
  viewBox="0 0 32 32">
  <path d="M19.904 5.184c0 1.408-1.12 2.56-2.528 2.56s-2.528-1.152-2.528-2.56c0-1.376 1.12-2.528 2.528-2.528s2.528 1.152 2.528 2.528v0 0 0zM19.936 13.728c0 0-1.12-2.368-1.696-3.648-0.544-1.248-0.928-1.568-1.696-1.568h-1.184c-0.64 0-0.864 0.224-1.248 0.448l-3.232 2.752c-0.256 0.16-0.448 0.384-0.544 0.736l-0.704 4.64c-0.096 0.736 0.288 1.056 0.736 1.152 0.352 0.064 0.896-0.128 0.992-0.64 0.096-0.416 0.736-4.224 0.736-4.224l2.112-1.6c-0.352 1.6-0.704 3.36-0.8 3.968-0.224 1.024 0.288 1.792 0.704 2.4 0.352 0.576 4.832 8.064 5.44 8.864 0.64 0.832 1.216 1.216 2.080 0.736 0.736-0.416 0.608-1.344 0.224-2.016-0.416-0.704-4.928-8.512-4.928-8.512l0.8-3.488c0 0 0.576 0.8 0.864 1.248 0.128 0.224 1.792 1.728 2.464 2.016 0.576 0.256 1.28 0.352 1.568-0.16s-0.064-1.12-0.512-1.312c-0.48-0.224-2.176-1.792-2.176-1.792v0zM13.216 18.112l-1.248 4c0 0-2.016 2.912-2.592 3.744-0.416 0.608-0.736 1.376-0.032 1.92 0.832 0.608 1.472-0.192 1.888-0.672 0.384-0.416 1.984-2.624 2.4-3.168 0.32-0.384 0.48-0.704 0.608-1.024 0.064-0.192 0.672-1.344 0.896-1.92l-1.92-2.88zM5.6 22.432c-1.504-1.568-2.432-3.68-2.592-5.856-0.192-2.624 0.8-5.28 2.624-7.136 0.32-0.32 0.288-0.864-0.032-1.152-0.256-0.288-0.8-0.32-1.088-0.032-2.176 2.176-3.328 5.344-3.104 8.416 0.16 2.56 1.248 5.024 3.008 6.88 0.128 0.128 0.288 0.256 0.448 0.288 0.512 0.096 1.056-0.384 0.992-0.896 0-0.192-0.128-0.384-0.256-0.512v0 0zM4.512 16.608v0c0.16 1.792 0.96 3.552 2.176 4.832 0.288 0.256 0.768 0.224 1.024-0.064 0.352-0.256 0.384-0.8 0.064-1.12-1.216-1.28-1.888-3.136-1.76-4.96 0.128-1.472 0.768-2.944 1.76-4 0.288-0.288 0.256-0.832-0.064-1.088-0.256-0.288-0.704-0.32-0.992-0.064-1.632 1.664-2.464 4.096-2.208 6.464v0 0 0zM26.4 22.432c1.504-1.568 2.432-3.68 2.592-5.856 0.192-2.624-0.8-5.28-2.592-7.136-0.352-0.32-0.32-0.864 0-1.152 0.256-0.288 0.8-0.32 1.088-0.032 2.176 2.176 3.328 5.344 3.104 8.416-0.16 2.56-1.248 5.024-3.008 6.88-0.128 0.128-0.288 0.256-0.448 0.288-0.512 0.096-1.056-0.384-0.992-0.896 0-0.192 0.128-0.384 0.256-0.512v0 0zM27.52 16.608v0c-0.192 1.792-0.992 3.552-2.208 4.832-0.288 0.256-0.768 0.224-1.024-0.064-0.32-0.256-0.384-0.8-0.064-1.12 1.248-1.28 1.888-3.136 1.76-4.96-0.096-1.472-0.768-2.944-1.76-4-0.288-0.288-0.256-0.832 0.064-1.088 0.256-0.288 0.704-0.32 0.992-0.064 1.632 1.664 2.464 4.096 2.24 6.464v0 0 0z"/>
</svg>
