<svg
  version="1.1"
  xmlns="http://www.w3.org/2000/svg"
  viewBox="0 0 32 32">
  <path d="M24.576 16c0 0.448 0.064 0.864 0.16 1.28 0.128 0.416 0.256 0.768 0.416 1.056 0.128 0.32 0.352 0.672 0.672 1.056 0.32 0.416 0.576 0.736 0.8 0.96 0.224 0.256 0.544 0.608 0.992 1.056 0.128 0.128 0.224 0.224 0.288 0.32h-23.808c1.024-1.088 1.696-1.824 2.016-2.24 0.864-1.152 1.312-2.336 1.312-3.488v-3.808c0.032-1.28 0.288-2.496 0.832-3.648 0.512-1.152 1.28-2.144 2.272-2.976s2.144-1.408 3.424-1.728c0.16-0.384 0.416-0.672 0.768-0.864 0.384-0.224 0.8-0.32 1.28-0.32s0.896 0.128 1.248 0.32c0.352 0.224 0.608 0.544 0.768 0.928 1.28 0.32 2.432 0.896 3.424 1.696 0.992 0.832 1.76 1.824 2.304 2.976 0.544 1.12 0.832 2.336 0.832 3.616v3.808zM2.656 22.656h26.688v1.92h-26.688v-1.92zM16 29.344c-1.024 0-1.952-0.384-2.752-1.12-0.832-0.704-1.344-1.632-1.6-2.72h8.64c-0.224 1.088-0.736 2.016-1.536 2.72-0.8 0.736-1.728 1.12-2.752 1.12v0z"/>
</svg>
