<svg
  version="1.1"
  xmlns="http://www.w3.org/2000/svg"
  viewBox="0 0 32 32">
  <path d="M24 10.656h-1.344v-2.656c0-3.68-2.976-6.656-6.656-6.656s-6.656 2.976-6.656 6.656v2.656h-1.344c-1.472 0-2.656 1.216-2.656 2.688v13.312c0 1.472 1.184 2.688 2.656 2.688h16c1.472 0 2.656-1.216 2.656-2.688v-13.312c0-1.472-1.184-2.688-2.656-2.688v0zM16 22.656c-1.472 0-2.656-1.184-2.656-2.656s1.184-2.656 2.656-2.656c1.472 0 2.656 1.184 2.656 2.656s-1.184 2.656-2.656 2.656v0zM20.128 10.656h-8.256v-2.656c0-2.272 1.856-4.128 4.128-4.128s4.128 1.856 4.128 4.128v2.656z"/>
</svg>
