<svg
  version="1.1"
  xmlns="http://www.w3.org/2000/svg"
  viewBox="0 0 32 32">
  <path d="M21.344 10.080l-4.672 4.64v5.504l4.672 3.168v0.608h-10.688v-0.608l4.672-3.168v-5.504l-4.672-4.64v-0.736h10.688v0.736zM20.224 15.552c-0.064 0.096-0.128 0.16-0.16 0.256-0.032 0.064-0.064 0.128-0.064 0.16 0 0.128 0.064 0.288 0.224 0.512 0.256 0.32 0.544 0.672 0.864 1.056 0.832 0.96 1.472 1.824 1.856 2.56 0.704 1.216 1.056 2.528 1.056 3.936v1.312c0.736 0 1.344 0.576 1.344 1.312v0c0 0.736-0.608 1.344-1.344 1.344h-16c-0.736 0-1.344-0.576-1.344-1.344v0.16c0-0.736 0.608-1.408 1.344-1.472v0-1.312c0-1.376 0.352-2.688 1.024-3.936 0.416-0.736 1.056-1.6 1.888-2.56 0.32-0.384 0.608-0.736 0.864-1.056 0.064-0.096 0.128-0.192 0.16-0.288 0.032-0.064 0.064-0.128 0.064-0.16 0-0.128-0.064-0.256-0.224-0.48-0.224-0.32-0.512-0.672-0.864-1.088-0.832-0.96-1.472-1.824-1.888-2.56-0.672-1.248-1.024-2.56-1.024-3.936v-1.312c-0.736 0-1.344-0.576-1.344-1.312v0c0-0.736 0.608-1.344 1.344-1.344h16c0.736 0 1.344 0.576 1.344 1.344v0c0 0.736-0.608 1.312-1.344 1.312v0 1.312c0 1.376-0.352 2.72-1.056 3.936-0.384 0.736-1.024 1.6-1.856 2.56-0.352 0.416-0.64 0.768-0.864 1.088zM18.912 15.008c0.128-0.32 0.288-0.608 0.48-0.832 0.16-0.224 0.448-0.544 0.8-0.96 0.288-0.32 0.48-0.544 0.608-0.704s0.288-0.384 0.512-0.704c0.224-0.32 0.416-0.608 0.576-0.864 0.512-0.96 0.768-1.952 0.768-2.976v-1.312h-13.312v1.312c0 1.024 0.256 2.016 0.768 2.976 0.16 0.256 0.352 0.544 0.576 0.864s0.384 0.544 0.512 0.704c0.128 0.16 0.352 0.384 0.608 0.704 0.384 0.416 0.64 0.736 0.8 0.96 0.192 0.224 0.352 0.512 0.48 0.832 0.16 0.352 0.256 0.672 0.256 0.992 0 0.256-0.032 0.48-0.128 0.704-0.064 0.224-0.16 0.448-0.352 0.704-0.16 0.256-0.32 0.48-0.448 0.64s-0.32 0.416-0.608 0.736c-0.256 0.32-0.48 0.544-0.608 0.704s-0.288 0.416-0.512 0.704c-0.224 0.32-0.416 0.608-0.576 0.896-0.512 0.928-0.768 1.92-0.768 2.944v1.312h13.312v-1.312c0-1.024-0.256-2.016-0.768-2.944-0.16-0.288-0.352-0.576-0.576-0.896-0.224-0.288-0.384-0.544-0.512-0.704s-0.32-0.384-0.608-0.704c-0.288-0.32-0.48-0.576-0.608-0.736s-0.288-0.384-0.448-0.64c-0.192-0.256-0.288-0.48-0.352-0.704s-0.096-0.448-0.096-0.704c0-0.32 0.064-0.64 0.224-0.992z"/>
</svg>
