<svg
  version="1.1"
  xmlns="http://www.w3.org/2000/svg"
  viewBox="0 0 32 32">
  <path d="M19.904 6.528c0 1.408-1.12 2.528-2.528 2.528s-2.528-1.12-2.528-2.528c0-1.408 1.12-2.528 2.528-2.528s2.528 1.12 2.528 2.528v0 0 0zM19.936 15.072c0 0-1.12-2.368-1.696-3.68-0.544-1.216-0.928-1.536-1.696-1.536h-1.184c-0.64 0-0.864 0.224-1.248 0.448l-3.232 2.72c-0.256 0.16-0.448 0.416-0.544 0.768l-0.704 4.64c-0.096 0.736 0.288 1.056 0.736 1.12 0.352 0.096 0.896-0.096 0.992-0.608 0.096-0.448 0.736-4.224 0.736-4.224l2.112-1.632c-0.352 1.632-0.704 3.392-0.8 4-0.224 1.024 0.288 1.792 0.704 2.4 0.352 0.544 4.832 8.064 5.44 8.864 0.64 0.8 1.216 1.216 2.080 0.736 0.736-0.416 0.608-1.344 0.224-2.048-0.416-0.672-4.928-8.48-4.928-8.48l0.8-3.488c0 0 0.576 0.8 0.864 1.248 0.128 0.224 1.792 1.728 2.464 2.016 0.576 0.256 1.28 0.352 1.568-0.16s-0.064-1.12-0.512-1.312c-0.48-0.224-2.176-1.792-2.176-1.792v0zM13.216 19.424l-1.248 4c0 0-2.016 2.944-2.592 3.776-0.416 0.608-0.736 1.376-0.032 1.92 0.832 0.608 1.472-0.192 1.888-0.672 0.384-0.448 1.984-2.624 2.4-3.2 0.32-0.352 0.48-0.672 0.608-0.992 0.064-0.224 0.672-1.376 0.896-1.92l-1.92-2.912z"/>
</svg>
