<svg
  version="1.1"
  xmlns="http://www.w3.org/2000/svg"
  viewBox="0 0 32 32">
  <path d="M24.928 14.176c-0.096 1.12-6.080-3.936-5.056-4.128 2.816-0.448 5.12 1.184 5.056 4.128M18.336 2.336c0.064 0.224 0.128 0.416 0.192 0.448 0.32-0.352 0.608-0.704 1.024-1.056 0 0.192-0.096 0.416 0.16 0.576 0.224-0.32 0.544-0.576 0.96-0.8-0.224 0.32-0.032 0.448 0.064 0.576 0.32-0.256 0.608-0.544 1.184-0.736-0.16 0.192-0.384 0.352-0.128 0.576 0.32-0.192 0.64-0.384 1.408-0.544-0.16 0.192-0.544 0.384-0.32 0.576 0.416-0.16 0.864-0.256 1.376-0.32-0.256 0.192-0.448 0.384-0.256 0.544 0.448-0.16 1.024-0.32 1.632-0.16l-0.384 0.352c-0.032 0.064 0.864 0.032 1.472 0.064-0.224 0.288-0.448 0.576-0.576 1.088 0.064 0.064 0.352 0.032 0.64 0-0.288 0.608-0.8 0.768-0.896 1.024 0.16 0.128 0.416 0.096 0.672 0-0.192 0.416-0.64 0.704-0.992 1.056 0.096 0.064 0.256 0.096 0.608 0.064-0.32 0.32-0.704 0.64-1.152 0.896 0.064 0.096 0.352 0.096 0.608 0.096-0.416 0.384-0.928 0.608-1.44 0.864 0.256 0.16 0.448 0.128 0.608 0.128-0.352 0.288-0.928 0.416-1.472 0.608 0.096 0.16 0.192 0.192 0.416 0.256-0.576 0.32-1.408 0.16-1.664 0.32 0.064 0.16 0.224 0.288 0.416 0.352-0.928 0.064-3.52-0.032-4-1.952 0.96-1.056 2.72-2.272 5.728-3.808-2.336 0.8-4.48 1.824-6.24 3.264-2.112-0.96-0.672-3.392 0.352-4.352M19.456 11.392c0 0.896-1.28 1.632-3.296 1.632-1.984-0.032-3.296-0.928-3.296-1.824 0-0.704 1.6-1.952 3.296-1.92 1.472-0.032 3.328 1.088 3.296 2.112M8.64 8.512c0.224-0.064 0.32-0.096 0.448-0.256-0.576-0.192-1.152-0.32-1.504-0.608 0.192 0 0.352 0.032 0.608-0.128-0.48-0.256-1.024-0.48-1.44-0.864 0.256 0 0.544 0 0.608-0.096-0.448-0.256-0.832-0.576-1.152-0.896 0.352 0.032 0.512 0 0.608-0.064-0.352-0.352-0.768-0.64-0.992-1.056 0.256 0.096 0.512 0.128 0.704 0-0.128-0.256-0.64-0.416-0.928-1.024 0.288 0.032 0.576 0.064 0.64 0-0.128-0.512-0.352-0.8-0.576-1.088 0.608-0.032 1.536 0 1.472-0.064l-0.352-0.352c0.576-0.16 1.184 0 1.6 0.16 0.192-0.16 0-0.352-0.224-0.544 0.48 0.064 0.928 0.16 1.344 0.32 0.224-0.192-0.128-0.384-0.32-0.576 0.768 0.16 1.12 0.352 1.44 0.544 0.224-0.224 0-0.384-0.16-0.576 0.576 0.192 0.896 0.48 1.184 0.736 0.128-0.128 0.288-0.256 0.096-0.576 0.416 0.224 0.704 0.48 0.928 0.8 0.256-0.16 0.16-0.384 0.16-0.576 0.448 0.352 0.704 0.704 1.056 1.056 0.064-0.032 0.096-0.192 0.16-0.448 1.024 0.96 2.464 3.392 0.384 4.352-1.792-1.44-3.904-2.464-6.272-3.264 3.040 1.536 4.8 2.752 5.76 3.808-0.512 1.92-3.072 2.016-4.032 1.952 0.192-0.064 0.352-0.192 0.416-0.352-0.224-0.16-1.088 0-1.664-0.32M12.128 9.984c1.024 0.16-4.96 5.248-5.056 4.096-0.096-2.944 2.24-4.576 5.056-4.096M5.856 21.312c-1.472-1.152-1.952-4.48 0.768-5.984 1.6-0.416 0.544 6.56-0.768 5.984M11.52 27.264c-0.832 0.48-2.816 0.288-4.224-1.696-0.96-1.664-0.832-3.36-0.16-3.84 0.992-0.608 2.528 0.192 3.744 1.536 1.024 1.248 1.504 3.36 0.64 4M9.888 20c-1.504-0.96-1.76-3.136-0.608-4.864 1.184-1.728 3.36-2.336 4.864-1.376s1.76 3.136 0.608 4.864c-1.184 1.728-3.36 2.336-4.864 1.376M16.16 30.656c-1.792 0.096-3.584-1.44-3.552-1.952-0.032-0.768 2.208-1.376 3.648-1.344 1.472-0.064 3.424 0.448 3.424 1.152 0.032 0.672-1.792 2.176-3.52 2.144M19.872 23.072c0 1.792-1.6 3.264-3.616 3.264-2.016 0.032-3.648-1.44-3.648-3.232v-0.032c0-1.792 1.6-3.264 3.616-3.264 1.984-0.032 3.648 1.44 3.648 3.232v0.032zM17.6 18.432c-1.184-1.696-0.896-3.872 0.608-4.832s3.648-0.352 4.832 1.376c1.184 1.728 0.896 3.904-0.608 4.864s-3.68 0.32-4.832-1.408M24.96 25.664c-1.568 2.112-3.68 2.176-4.448 1.6-0.832-0.768-0.192-3.104 0.928-4.384 1.28-1.408 2.656-2.336 3.616-1.6 0.64 0.608 1.024 2.976-0.096 4.384M25.376 15.232c2.72 1.504 2.24 4.832 0.8 5.984-1.344 0.576-2.4-6.4-0.8-5.984"/>
</svg>
