<svg
  version="1.1"
  xmlns="http://www.w3.org/2000/svg"
  viewBox="0 0 32 32">
  <path d="M10.176 11.84l-1.024 6.016-2.976 2.976 1.472 1.504-4.992 4.992 2.016 2.016 4.992-4.992 1.504 1.472 2.976-2.976 6.016-1.024 3.488-3.488-9.984-9.984-3.488 3.488zM27.136 15.84l-1.504-1.472 3.488-3.52c0.288-0.256 0.288-0.704 0-0.992l-0.992-0.992c-0.288-0.288-0.736-0.288-0.992 0l-3.488 3.488-4-4 3.488-3.488c0.288-0.256 0.288-0.704 0-0.992l-0.992-0.992c-0.288-0.288-0.736-0.288-0.992 0l-3.52 3.488-1.472-1.504c-0.288-0.256-0.736-0.256-1.024 0l-0.992 0.992c-0.256 0.288-0.256 0.736 0 1.024l0.512 0.48 9.984 9.984 0.48 0.512c0.288 0.256 0.736 0.256 1.024 0l0.992-0.992c0.256-0.288 0.256-0.736 0-1.024z"/>
</svg>
