<svg
  version="1.1"
  xmlns="http://www.w3.org/2000/svg"
  viewBox="0 0 32 32">
  <path d="M25.44 22.336c2.272-2.144 3.584-5.088 3.584-8.256 0-6.272-5.056-11.328-11.328-11.328-3.776 0-7.264 1.856-9.344 4.928l1.088 0.736c1.856-2.688 4.928-4.352 8.256-4.352 5.536 0 10.016 4.48 10.016 10.016 0 2.784-1.184 5.408-3.168 7.264l0.896 0.992zM23.968 23.936c0.032 1.408-0.48 2.656-1.504 3.712-4.512 4.608-11.904-1.536-13.28-2.784 0.768-0.992 1.664-0.736 4.928 1.088 0.128 0.096 0.288 0.096 0.384-0.064 0.096-0.128 0.064-0.288-0.064-0.416l-10.144-10.368c-0.384-0.384-0.384-1.056 0-1.472 0.416-0.416 1.056-0.416 1.472 0l6.976 7.168 0.48-0.512-6.976-7.136-0.96-0.992c-0.416-0.416-0.416-1.088 0-1.472 0.384-0.416 1.024-0.416 1.44 0l0.96 0.992 6.272 6.4 0.736 0.736 0.48-0.48-0.736-0.736-6.272-6.432c-0.384-0.416-0.384-1.056 0-1.472 0.416-0.416 1.056-0.416 1.44 0l1.952 1.984 4.32 4.416 0.736 0.736 0.48-0.48-0.736-0.736-4.32-4.448c-0.416-0.416-0.416-1.056 0-1.472 0.384-0.416 1.024-0.416 1.44 0l6.528 6.656c0.032 0.032 3.936 3.776 3.968 7.584"/>
</svg>
