<svg
  version="1.1"
  xmlns="http://www.w3.org/2000/svg"
  viewBox="0 0 32 32">
  <path d="M27.84 12.384c0.448 0.032 0.8 0.224 1.056 0.544 0.288 0.32 0.448 0.672 0.448 1.12v3.904c0 0.448-0.16 0.8-0.448 1.12-0.256 0.32-0.608 0.512-1.056 0.544l-2.432 0.288 1.536 1.92c0.256 0.32 0.384 0.704 0.352 1.12 0 0.416-0.16 0.8-0.48 1.088l-2.784 2.784c-0.32 0.32-0.704 0.512-1.184 0.512-0.384 0-0.736-0.128-1.024-0.384l-1.92-1.536-0.288 2.432c-0.032 0.448-0.224 0.8-0.544 1.056-0.32 0.288-0.672 0.448-1.12 0.448h-3.904c-0.448 0-0.8-0.16-1.12-0.448-0.32-0.256-0.512-0.608-0.544-1.056l-0.288-2.432-1.92 1.536c-0.288 0.256-0.64 0.384-1.024 0.384-0.448 0-0.864-0.192-1.184-0.512l-2.784-2.784c-0.32-0.288-0.48-0.672-0.48-1.088-0.032-0.416 0.096-0.8 0.352-1.12l1.536-1.92-2.432-0.288c-0.448-0.032-0.8-0.224-1.056-0.544-0.288-0.32-0.448-0.672-0.448-1.12v-3.904c0-0.448 0.16-0.8 0.448-1.12 0.256-0.32 0.608-0.512 1.056-0.576l2.432-0.256-1.536-1.92c-0.256-0.32-0.384-0.704-0.352-1.12 0-0.416 0.16-0.8 0.48-1.088l2.784-2.784c0.32-0.32 0.736-0.512 1.184-0.512 0.384 0 0.736 0.128 1.056 0.384l1.888 1.536 0.288-2.432c0.032-0.448 0.224-0.8 0.544-1.056 0.32-0.288 0.672-0.448 1.12-0.448h3.904c0.448 0 0.8 0.16 1.12 0.448 0.32 0.256 0.512 0.608 0.576 1.056l0.256 2.432 1.92-1.536c0.288-0.256 0.64-0.384 1.024-0.384 0.48 0 0.864 0.192 1.184 0.512l2.784 2.784c0.32 0.288 0.48 0.672 0.48 1.088 0.032 0.416-0.096 0.8-0.352 1.12l-1.536 1.92 2.432 0.288zM27.68 17.952v-3.904l-3.584-0.416c-0.16-0.608-0.384-1.152-0.672-1.696l2.24-2.784-2.816-2.816-2.784 2.24c-0.544-0.288-1.088-0.512-1.696-0.672l-0.416-3.584h-3.904l-0.416 3.584c-0.544 0.16-1.12 0.384-1.696 0.672l-2.784-2.24-2.784 2.816 2.24 2.784c-0.32 0.544-0.544 1.12-0.704 1.696l-3.584 0.416v3.904l3.584 0.416c0.16 0.544 0.384 1.12 0.704 1.696l-2.24 2.784 2.784 2.784 2.784-2.24c0.576 0.32 1.152 0.544 1.696 0.704l0.416 3.584h3.904l0.416-3.584c0.608-0.16 1.152-0.416 1.696-0.704l2.784 2.24 2.816-2.784-2.24-2.784c0.288-0.576 0.512-1.152 0.672-1.696l3.584-0.416zM16 11.424c1.28 0 2.336 0.448 3.232 1.344s1.344 1.952 1.344 3.232c0 1.28-0.448 2.336-1.344 3.232s-1.952 1.344-3.232 1.344c-1.28 0-2.336-0.448-3.232-1.344s-1.344-1.952-1.344-3.232c0-1.28 0.448-2.336 1.344-3.232s1.952-1.344 3.232-1.344v0zM16 19.744c1.024 0 1.92-0.352 2.656-1.088s1.088-1.632 1.088-2.656c0-1.024-0.352-1.92-1.088-2.656s-1.632-1.088-2.656-1.088c-1.024 0-1.92 0.352-2.656 1.088s-1.088 1.632-1.088 2.656c0 1.024 0.352 1.92 1.088 2.656s1.632 1.088 2.656 1.088v0z"/>
</svg>
