<svg
  version="1.1"
  xmlns="http://www.w3.org/2000/svg"
  viewBox="0 0 32 32">
  <path d="M20.992 20.032c0.544-0.128 0.96-0.32 1.28-0.64l0.384-0.288v8.576c0 0.448-0.16 0.832-0.48 1.152-0.32 0.352-0.704 0.512-1.184 0.512h-16.672c-0.448 0-0.832-0.16-1.152-0.512-0.352-0.32-0.512-0.704-0.512-1.152v-16.672c0-0.48 0.16-0.864 0.512-1.184 0.32-0.32 0.704-0.48 1.152-0.48h6.912c-0.48 0.512-0.928 1.088-1.344 1.664h-5.568v16.672h16.672v-7.648zM28.736 9.344c0.384 0.288 0.608 0.704 0.608 1.248 0 0.512-0.224 0.96-0.608 1.312l-7.52 6.208c-0.288 0.256-0.64 0.384-1.056 0.384-0.224 0-0.448-0.032-0.704-0.128-0.288-0.16-0.544-0.352-0.704-0.64-0.16-0.256-0.256-0.576-0.256-0.896v-1.984c-0.512 0.32-0.928 0.768-1.216 1.344s-0.448 1.248-0.448 1.952v2.848c0 0.48-0.16 0.864-0.48 1.184s-0.736 0.48-1.184 0.48h-4.16c-0.48 0-0.864-0.16-1.184-0.48s-0.48-0.704-0.48-1.184v-2.848c0-1.792 0.384-3.488 1.184-5.088s1.92-2.912 3.328-4c1.376-1.056 2.944-1.728 4.64-2.048v-2.688c0-0.32 0.096-0.608 0.256-0.864 0.192-0.288 0.416-0.48 0.704-0.64 0.288-0.096 0.512-0.16 0.704-0.16 0.448 0 0.8 0.128 1.088 0.384l7.488 6.304zM20.16 16.832l7.52-6.24-7.52-6.272v4.192c-1.248 0.032-2.432 0.288-3.584 0.832-1.12 0.544-2.112 1.216-2.912 2.080-0.832 0.864-1.472 1.888-1.952 3.072-0.48 1.152-0.704 2.368-0.704 3.648v2.848h4.16v-2.848c0-1.504 0.48-2.784 1.408-3.84 0.928-1.024 2.112-1.568 3.584-1.632v4.16zM18.496 25.152v-5.44c0.128 0.064 0.192 0.128 0.224 0.128 0.096 0.032 0.288 0.096 0.608 0.192v5.952h-13.312v-13.312h2.912c-0.032 0.064-0.128 0.224-0.224 0.416s-0.16 0.32-0.192 0.416h-1.664v11.648h11.648z"/>
</svg>
