<svg
  version="1.1"
  xmlns="http://www.w3.org/2000/svg"
  viewBox="0 0 32 32">
  <path d="M12 13.984c0 1.12-0.896 2.016-1.984 2.016s-2.016-0.896-2.016-2.016 0.896-1.984 2.016-1.984 1.984 0.896 1.984 1.984zM27.328 10.656c-1.088 0-1.984 0.896-1.984 2.016v4.672h-18.688v-8.672c0-1.12-0.896-2.016-1.984-2.016s-2.016 0.896-2.016 2.016v14.656c0 1.12 0.896 2.016 2.016 2.016s1.984-0.896 1.984-2.016v-1.984h18.688v1.984c0 1.12 0.896 2.016 1.984 2.016s2.016-0.896 2.016-2.016v-10.656c0-1.12-0.896-2.016-2.016-2.016zM24 13.984c0-1.088-0.896-1.984-1.984-1.984h-6.688c-1.088 0-1.984 0.896-1.984 1.984v0c0 1.12 0.896 2.016 1.984 2.016h6.688c1.088 0 1.984-0.896 1.984-2.016v0z"/>
</svg>
