<svg
  version="1.1"
  xmlns="http://www.w3.org/2000/svg"
  viewBox="0 0 32 32">
  <path d="M25.952 6.656h-7.296v-1.312c-0.032-0.736-0.64-1.344-1.312-1.344h-2.688c-0.768 0-1.376 0.608-1.312 1.344v1.312h-7.424l-0.384 0.544c-3.808 5.28-3.808 12.32 0 17.568l0.384 0.576h2.080v2.4c-0.064 0.128 0.096 0.256 0.288 0.256h1.312c0.192 0 0.384-0.096 0.448-0.224l1.28-2.432h9.344l1.152 2.432c0.064 0.128 0.256 0.224 0.448 0.224h1.344c0.192 0 0.32-0.128 0.384-0.256v-2.4h1.952l0.416-0.576c3.808-5.248 3.808-12.288 0-17.568l-0.416-0.544zM25.344 24h-18.688v-16h18.688v16zM8 22.656h16v-5.312h-16v5.312z"/>
</svg>
