<svg
  version="1.1"
  xmlns="http://www.w3.org/2000/svg"
  viewBox="0 0 32 32">
  <path d="M24.288 6.4c-1.856-0.384-3.744-0.736-5.664-0.928 0.032-0.032 0.032-0.096 0.032-0.128v-1.344c0-0.736-0.576-1.344-1.312-1.344h-2.688c-0.736 0-1.312 0.608-1.312 1.344v1.344c0 0.032 0 0.096 0.032 0.128-1.92 0.192-3.808 0.544-5.664 0.928-1.344 0.288-2.368 1.568-2.368 2.944v16c0 1.344 1.024 2.656 2.368 2.912 2.72 0.576 5.504 1.088 8.288 1.088s5.568-0.512 8.288-1.088c1.344-0.256 2.368-1.568 2.368-2.912v-16c0-1.376-1.024-2.656-2.368-2.944zM25.344 25.344c0 0.704-0.608 1.472-1.312 1.632-2.656 0.512-5.344 1.024-8.032 1.024s-5.376-0.512-8-1.024c-0.736-0.16-1.344-0.928-1.344-1.632v-16c0-0.736 0.608-1.472 1.344-1.632 2.624-0.544 5.312-1.056 8-1.056s5.376 0.512 8.032 1.056c0.704 0.16 1.312 0.896 1.312 1.632v16zM23.328 15.168c-4.832-1.056-9.824-1.056-14.656 0-0.384 0.096-0.672 0.48-0.672 0.832v9.056c0 0.352 0.288 0.736 0.672 0.8 4.832 1.088 9.824 1.088 14.656 0 0.384-0.064 0.672-0.448 0.672-0.8v-9.056c0-0.352-0.288-0.736-0.672-0.832z"/>
</svg>
