<svg
  version="1.1"
  xmlns="http://www.w3.org/2000/svg"
  viewBox="0 0 32 32">
  <path d="M25.536 2.656c0.672 0 1.312 0.192 1.888 0.512 0.608 0.352 1.056 0.8 1.408 1.408 0.32 0.576 0.512 1.216 0.512 1.888v19.072c0 0.672-0.192 1.312-0.512 1.888-0.352 0.576-0.8 1.056-1.408 1.408-0.576 0.32-1.216 0.512-1.888 0.512h-19.072c-0.672 0-1.312-0.192-1.888-0.512-0.576-0.352-1.056-0.832-1.408-1.408-0.32-0.576-0.512-1.216-0.512-1.888v-19.072c0-0.672 0.192-1.312 0.512-1.888 0.352-0.608 0.832-1.056 1.408-1.408 0.576-0.32 1.216-0.512 1.888-0.512h19.072zM6.656 25.344h10.688v-2.688h-10.688v2.688zM6.656 20h18.688v-2.656h-18.688v2.656zM6.656 14.656h18.688v-2.656h-18.688v2.656zM6.656 9.344h18.688v-2.688h-18.688v2.688z"/>
</svg>
