<svg
  version="1.1"
  xmlns="http://www.w3.org/2000/svg"
  viewBox="0 0 32 32">
  <path d="M11.52 19.264c0.064-0.064 0.16-0.16 0.256-0.224 0.096-0.096 0.192-0.16 0.32-0.256v-13.6c0-2.112 1.76-3.84 3.936-3.84 2.144 0 3.936 1.728 3.936 3.84v13.6c0.448 0.352 0.864 0.736 1.216 1.184 0.256 0.288 0.48 0.608 0.64 0.928 0.544 0.96 0.832 2.048 0.832 3.2 0 0.8-0.128 1.536-0.384 2.24 0 0.032-0.032 0.064-0.032 0.096-0.096 0.224-0.192 0.448-0.32 0.672-0.128 0.256-0.288 0.512-0.448 0.736-0.032 0.032-0.032 0.064-0.064 0.096-0.064 0.064-0.096 0.128-0.128 0.192-0.064 0.064-0.096 0.096-0.16 0.16s-0.128 0.16-0.192 0.224c-0.064 0.064-0.128 0.16-0.224 0.224-0.064 0.096-0.16 0.16-0.256 0.224-0.064 0.064-0.128 0.128-0.192 0.192-0.032 0-0.032 0.032-0.032 0.032-0.128 0.096-0.224 0.16-0.352 0.256-0.16 0.096-0.32 0.224-0.48 0.32-0.064 0.032-0.16 0.064-0.224 0.128-0.032 0-0.096 0.032-0.128 0.064-0.096 0.032-0.16 0.064-0.224 0.096-0.288 0.128-0.576 0.256-0.896 0.32-0.064 0.032-0.16 0.064-0.256 0.096-0.064 0-0.128 0.032-0.16 0.032-0.224 0.064-0.448 0.096-0.672 0.128-0.288 0.032-0.544 0.032-0.832 0.032-0.416 0-0.8-0.032-1.184-0.096-0.128-0.032-0.224-0.032-0.32-0.064-0.064 0-0.128-0.032-0.16-0.032-0.096-0.032-0.192-0.064-0.288-0.096-0.064 0-0.128-0.032-0.192-0.032-0.064-0.032-0.096-0.064-0.16-0.064-0.096-0.032-0.192-0.096-0.288-0.128-0.064 0-0.096-0.032-0.16-0.064-0.096-0.032-0.192-0.096-0.288-0.128-0.096-0.064-0.192-0.096-0.288-0.16-0.224-0.128-0.448-0.288-0.672-0.416-0.032-0.032-0.064-0.064-0.128-0.096-1.536-1.216-2.528-3.072-2.528-5.184 0-1.824 0.768-3.488 2.016-4.704 0.064-0.032 0.096-0.096 0.16-0.128zM13.984 5.184v7.488h4.064v-7.488c0-1.088-0.896-1.984-2.016-1.984s-2.048 0.896-2.048 1.984z"/>
</svg>
