<svg
  version="1.1"
  xmlns="http://www.w3.org/2000/svg"
  viewBox="0 0 32 32">
  <path d="M18.4 16c0 0.672-0.256 1.216-0.704 1.696-0.48 0.448-1.024 0.672-1.696 0.672-0.48 0-0.928-0.128-1.312-0.384s-0.672-0.608-0.864-1.024h-5.44c-0.256 0-0.48-0.096-0.672-0.288s-0.288-0.416-0.288-0.672c0-0.256 0.096-0.512 0.288-0.672 0.192-0.192 0.416-0.288 0.672-0.288h5.44c0.256-0.576 0.672-0.992 1.216-1.216v-6.4c0-0.256 0.096-0.48 0.288-0.672s0.416-0.256 0.672-0.256c0.256 0 0.512 0.064 0.672 0.256 0.192 0.192 0.288 0.416 0.288 0.672v6.4c0.416 0.192 0.768 0.48 1.024 0.864s0.416 0.832 0.416 1.312v0zM16 2.656c1.792 0 3.52 0.352 5.184 1.056 1.632 0.704 3.072 1.664 4.256 2.848s2.144 2.624 2.848 4.256c0.704 1.664 1.056 3.392 1.056 5.184s-0.352 3.52-1.056 5.184c-0.704 1.632-1.664 3.040-2.848 4.256-1.184 1.184-2.624 2.144-4.256 2.848-1.664 0.704-3.392 1.056-5.184 1.056s-3.52-0.352-5.184-1.056c-1.632-0.704-3.040-1.664-4.256-2.848-1.184-1.216-2.144-2.624-2.848-4.256-0.704-1.664-1.056-3.392-1.056-5.184s0.352-3.52 1.056-5.184c0.704-1.632 1.664-3.072 2.848-4.256 1.216-1.184 2.624-2.144 4.256-2.848 1.664-0.704 3.392-1.056 5.184-1.056v0zM16 26.496c1.408 0 2.784-0.288 4.064-0.864 1.28-0.544 2.4-1.28 3.36-2.24 0.928-0.928 1.664-2.048 2.24-3.328 0.544-1.312 0.832-2.656 0.832-4.064s-0.288-2.784-0.832-4.064c-0.576-1.28-1.312-2.4-2.24-3.36-0.96-0.928-2.080-1.664-3.36-2.24-1.28-0.544-2.656-0.832-4.064-0.832s-2.752 0.288-4.064 0.832c-1.28 0.576-2.4 1.312-3.328 2.24-0.96 0.96-1.696 2.080-2.24 3.36-0.576 1.28-0.864 2.656-0.864 4.064s0.288 2.752 0.864 4.064c0.544 1.28 1.28 2.4 2.24 3.328 0.928 0.96 2.048 1.696 3.328 2.24 1.312 0.576 2.656 0.864 4.064 0.864v0z"/>
</svg>
