<svg
  version="1.1"
  xmlns="http://www.w3.org/2000/svg"
  viewBox="0 0 32 32">
  <path d="M22.048 17.216c-0.864 0-1.728-0.16-2.592-0.48l-11.712 11.712c-0.576 0.608-1.28 0.896-2.080 0.896-0.832 0-1.536-0.288-2.112-0.896-0.608-0.576-0.896-1.28-0.896-2.112 0-0.8 0.288-1.504 0.896-2.080l11.712-11.744c-0.512-1.28-0.608-2.624-0.32-4.032 0.288-1.44 0.928-2.656 1.952-3.68 0.704-0.704 1.504-1.248 2.4-1.6 0.864-0.352 1.792-0.544 2.752-0.544 0.896 0 1.76 0.16 2.592 0.48l-4.576 4.576 0.448 3.776 3.776 0.448 4.576-4.576c0.48 1.28 0.608 2.624 0.32 4.064-0.288 1.408-0.96 2.624-1.984 3.648-0.704 0.704-1.472 1.248-2.368 1.6s-1.824 0.544-2.784 0.544v0zM25.472 21.024l3.84 5.024-3.296 3.296-4.992-3.872-1.568-4.032-1.312-1.344 1.728-1.728c0.128 0.032 0.32 0.064 0.544 0.096l1.024 1.024 4.032 1.536zM9.152 14.304l-5.408-5.408c-0.704-0.704-1.088-1.568-1.088-2.592 0-0.992 0.384-1.856 1.088-2.56 0.704-0.736 1.568-1.088 2.56-1.088 1.024 0 1.888 0.352 2.592 1.088l4.64 4.64c-0.256 1.248-0.224 2.496 0.096 3.744l-3.168 3.168c-0.768-0.576-1.216-0.896-1.312-0.992v0z"/>
</svg>
