<svg
  version="1.1"
  xmlns="http://www.w3.org/2000/svg"
  viewBox="0 0 32 32">
  <path d="M28.672 20c-0.416 0-0.672 0.256-0.672 0.672v0c0 0.384-0.256 0.672-0.672 0.672h-6.656c-0.416 0-0.672-0.288-0.672-0.672v-8c0-0.416 0.256-0.672 0.672-0.672v0c0.384 0 0.672-0.256 0.672-0.672v-1.344c0-0.384-0.288-0.64-0.672-0.64h-2.656c-0.416 0-0.672-0.288-0.672-0.672v-1.344c0-0.384 0.256-0.672 0.672-0.672h1.312c0.416 0 0.672-0.256 0.672-0.672v-4c0-0.384-0.256-0.64-0.672-0.64h-6.656c-0.416 0-0.672 0.256-0.672 0.64v4c0 0.416 0.256 0.672 0.672 0.672h1.344c0.384 0 0.64 0.288 0.64 0.672v1.344c0 0.384-0.256 0.672-0.64 0.672h-2.688c-0.384 0-0.672 0.256-0.672 0.64v1.344c0 0.416 0.288 0.672 0.672 0.672v0c0.416 0 0.672 0.256 0.672 0.672v8c0 0.384-0.256 0.672-0.672 0.672h-6.656c-0.416 0-0.672-0.288-0.672-0.672v0c0-0.416-0.256-0.672-0.672-0.672h-1.312c-0.416 0-0.672 0.256-0.672 0.672v9.312c0 0.416 0.256 0.672 0.672 0.672h1.312c0.416 0 0.672-0.256 0.672-0.672v0c0-0.384 0.256-0.64 0.672-0.64h22.656c0.416 0 0.672 0.256 0.672 0.64v0c0 0.416 0.256 0.672 0.672 0.672h1.344c0.384 0 0.64-0.256 0.64-0.672v-9.312c0-0.416-0.256-0.672-0.64-0.672h-1.344z"/>
</svg>
